<svg width="520" height="167" viewBox="0 0 520 167" fill="none" xmlns="http://www.w3.org/2000/svg">
<g clip-path="url(#clip0_107_31)" filter="url(#filter0_d_107_31)">
<mask id="path-1-inside-1_107_31" fill="white">
<path d="M101.847 142.588C101.541 140.643 100.748 138.889 99.362 137.429C97.695 135.66 96.677 133.615 96.521 131.128C96.34 128.271 94.7075 126.389 92.1225 125.386C91.273 125.055 90.6705 124.607 90.265 123.83C89.781 122.902 89.2285 122.001 88.826 121.04C88.314 119.821 87.421 119.001 86.219 118.734C84.817 118.418 84.199 117.563 83.89 116.307C83.7745 115.846 83.6185 115.396 83.5495 114.929C83.0785 111.919 81.439 109.714 78.8665 108.192C78.0455 107.703 77.6365 107.023 77.2495 106.181C76.4625 104.474 75.7445 102.654 74.583 101.226C72.928 99.193 70.846 97.627 67.905 98.7922L67.5335 98.6889C67.178 97.9405 66.856 97.1073 66.4065 96.3489C65.3075 94.5105 64.5895 94.348 62.7475 95.4129L62.495 95.4285C62.3355 95.0964 62.164 94.7297 61.983 94.3636C61.3525 93.0985 60.787 91.7919 60.0695 90.577C59.426 89.4865 58.649 88.4974 57.1285 88.5691C56.7415 88.5877 56.3385 88.2245 55.655 87.9025C56.42 87.3693 56.816 87.0157 57.272 86.7905C58.6925 86.0792 59.7665 85.0454 60.3035 83.5421C60.547 82.8655 61 82.4898 61.6085 82.3017C62.3545 82.073 63.1225 81.8698 63.897 81.8006C65.9825 81.6125 67.3655 80.366 68.38 78.7248C69.426 77.0334 70.197 75.1795 70.522 73.1811C70.6875 72.1473 70.8685 71.2079 71.93 70.5789C72.4325 70.2814 72.745 69.4949 72.929 68.8689C73.154 68.0734 73.251 67.2116 73.2415 66.385C73.226 64.9474 73.585 63.7451 74.615 62.6737C76.501 60.729 77.0345 58.3233 76.5945 55.6829C76.2385 53.5501 76.014 51.461 76.804 49.3282C77.7435 46.8037 77.144 44.558 74.993 42.8576C74.3345 42.3374 74.0905 41.7646 74.203 40.9661C74.2715 40.4991 74.3185 40.0261 74.34 39.5536C74.415 37.9344 74.5085 36.3153 74.518 34.6931C74.518 34.2482 74.3615 33.722 74.0965 33.3679C72.2265 30.878 70.7245 30.117 68.0865 31.041C67.543 31.2321 66.9965 31.4423 66.435 31.5295C65.5265 31.6795 65.205 31.3856 65.108 30.4676C65.0395 29.791 65.03 29.1023 64.8925 28.4382C64.6175 27.0447 63.8155 26.3681 62.3885 26.2929C61.87 26.2643 61.3365 26.2898 60.8275 26.3902C59.251 26.7002 57.896 26.4373 56.616 25.3468C55.717 24.5734 54.6055 24.0347 53.541 23.4774C51.6895 22.5063 49.782 21.642 47.943 20.6489C46.807 20.0289 45.63 19.7029 44.3525 19.6562C43.728 19.6311 43.085 19.7189 42.473 19.6091C40.444 19.2429 38.8045 19.9853 37.25 21.2037C35.5175 22.56 33.7535 23.8812 31.9425 25.1312C29.5635 26.7754 26.988 27.599 24.0875 26.6691L23.4755 26.5437C22.2955 26.171 21.2305 26.4779 20.1475 26.9851C18.4025 27.8057 16.9505 28.9769 15.711 30.427C14.9835 31.2822 14.2435 31.6078 13.1195 31.0911C12.1205 30.6367 11.543 30.8248 11.0685 31.6113C9.9325 33.4938 9.1985 36.6037 11.5555 38.8458C11.9365 39.206 12.3175 39.5666 12.7205 39.9012C14.3535 41.2575 14.5745 42.9609 13.972 44.8871C13.71 45.7358 13.4195 46.588 13.2635 47.4582C12.6295 51.0442 12.908 54.3768 15.955 56.9359C16.5915 57.4686 17.135 58.1357 17.644 58.7994C18.5555 59.9866 19.2425 61.2486 18.8275 62.8618C18.515 64.0767 18.381 65.3357 18.075 66.548C17.8155 67.5723 17.8155 68.4957 18.4185 69.4106C18.634 69.7362 18.787 70.2027 18.7495 70.5789C18.65 71.562 18.859 72.4483 19.2805 73.3191C19.7335 74.249 19.7705 75.1735 19.4775 76.2068C18.9965 77.8916 19.181 79.5329 20.364 80.9514C20.8695 81.5558 21.3255 82.1948 21.831 82.7993C22.5835 83.6951 22.955 84.6441 22.602 85.847C22.2025 87.2063 22.4115 88.5029 23.0235 89.8086C24.3225 92.5864 25.1655 95.5308 25.178 98.6096C25.181 100.355 25.3465 102.18 24.304 103.8C23.4235 105.162 23.926 106.537 24.825 107.576C26.074 109.023 26.658 110.724 27.282 112.453C27.5755 113.271 27.507 113.966 27.048 114.69C25.671 116.866 25.596 119.203 26.155 121.658C26.5485 123.384 27.3225 124.919 28.259 126.372C28.927 127.408 29.4295 128.48 29.617 129.689C29.7735 130.716 30.179 131.577 30.991 132.26C31.247 132.476 31.4965 132.84 31.5245 133.162C31.693 134.872 32.099 136.557 31.609 138.312C31.1095 140.093 31.5215 141.039 33.142 142.007C34.2285 142.655 34.628 143.576 34.6905 144.728C34.7375 145.618 34.678 146.517 34.722 147.406C34.8095 148.978 35.287 150.397 36.536 151.45C37.101 151.926 37.71 152.415 38.509 152.076C39.3235 151.738 39.655 151.005 39.6705 150.172C39.692 149.18 39.6455 148.177 39.58 147.184C39.4675 145.453 39.53 143.809 41.3035 142.831L41.5345 142.621C43.3955 140.77 43.589 138.828 42.2965 136.529C41.3475 134.837 40.9135 133.043 41.7625 131.117C42.0965 130.359 42.375 129.523 42.434 128.702C42.487 127.9 42.415 126.989 42.069 126.288C41.3975 124.935 40.5145 123.682 39.6805 122.41C38.3725 120.419 37.6325 118.387 39.0405 116.118L39.234 115.689C40.57 113.244 40.6885 110.8 39.178 108.38C38.716 107.64 38.6565 106.93 39.175 106.184C40.1395 104.812 39.949 103.44 39.1965 102.037C38.75 101.21 38.363 100.34 38.0505 99.4563C37.451 97.7649 37.9945 96.7371 40.002 96.0234C40.798 96.8936 41.6565 97.8803 42.562 98.8233C43.9075 100.22 45.581 100.758 47.4295 100.23C48.822 99.832 49.646 100.411 50.3235 101.439C51.0445 102.535 51.6565 103.7 52.3965 104.777C52.9865 105.632 53.6295 106.475 54.379 107.189C55.1625 107.944 55.7745 107.843 56.558 107.085C58.013 105.664 58.325 105.638 59.7145 107.089C60.4765 107.894 61.2975 108.466 62.4465 108.33C63.305 108.223 63.8515 108.583 64.1915 109.338C64.919 110.96 65.6995 112.561 66.3675 114.205C67.2045 116.272 68.5875 116.923 70.5825 116.078C70.8695 115.956 71.151 115.815 71.444 115.695C72.571 115.239 72.6865 115.216 73.333 116.312C74.129 117.662 74.8565 119.059 75.5245 120.481C76.4205 122.376 77.894 123.619 79.883 123.97C81.094 124.186 81.731 124.756 82.218 125.742C82.471 126.26 82.777 126.755 83.03 127.271C84.204 129.661 85.534 131.891 88.278 132.778L88.8025 133.116C90.1545 134.055 91.4315 135.029 91.522 136.909C91.6155 138.776 92.377 140.46 93.0705 142.164C93.545 143.326 94.235 144.263 95.353 144.864C96.2615 145.356 96.8795 146.089 97.2415 147.079C97.588 148.012 98.0065 148.923 98.4465 149.813C99.0615 151.047 100.179 151.814 100.963 151.607C101.778 151.391 102.208 150.492 102.168 148.948C102.152 148.272 101.806 147.52 102.003 146.934C102.506 145.434 102.072 144.016 101.847 142.588ZM54.2145 75.7915C53.89 75.9981 53.4775 76.0829 53.0935 76.1676C52.241 76.3678 51.3515 76.4526 50.524 76.7284C49.5875 77.0419 48.66 77.4362 47.7985 77.9247C47.1365 78.304 46.4965 78.8081 46.019 79.3934C45.332 80.2421 44.5235 80.831 43.418 81.2759C43.043 80.9599 42.6845 80.5867 42.263 80.3018C40.4145 79.0518 39.297 78.9615 37.8205 80.0731C37.4175 80.377 36.946 80.5807 36.15 81.0316C36.3 80.042 36.3405 79.3969 36.506 78.786C36.659 78.2347 36.971 77.7306 37.174 77.1919C37.7985 75.5381 37.608 74.8459 36.103 73.8874C35.485 73.4961 35.2505 73.0447 35.2665 72.35C35.2915 71.3007 35.276 70.2483 35.2695 69.1959C35.2635 67.6455 34.648 66.4868 33.206 65.7881C32.238 65.3181 32.154 64.98 32.3915 63.9026C32.541 63.245 32.666 62.5683 32.741 61.8952C33.0065 59.6275 31.8765 58.049 30.2155 56.7052C29.9315 56.4765 29.641 56.0411 29.6505 55.706C29.688 54.0994 29.154 52.4928 29.782 50.8796C30.1785 49.8554 29.532 49.0348 28.839 48.3737C27.7525 47.3464 27.6245 46.0999 27.893 44.7531C28.1145 43.6195 28.633 43.2779 29.7665 43.4344C30.0755 43.4816 30.4005 43.4876 30.6965 43.5754C33.2695 44.3554 35.2955 43.3752 37.0875 41.6086C37.384 41.3142 37.696 41.0288 37.9865 40.7283C38.97 39.7071 40.1845 39.3469 41.5585 39.4914C42.445 39.5822 43.319 39.7948 44.203 39.842C45.3455 39.9047 46.4885 39.8611 47.762 39.8611C50.2595 44.4115 51.3305 44.9568 55.177 43.5533C56.101 44.4898 57.1405 45.339 56.463 46.9923C56.154 47.7537 56.435 48.5648 56.975 49.2003C57.718 50.0806 58.461 50.9639 59.276 51.775C59.8285 52.3293 60.503 52.7616 61.137 53.2597C60.731 53.9329 60.5375 54.29 60.3095 54.619C59.3825 55.9628 59.198 56.9023 60.2065 58.061C61.599 59.6551 60.8685 61.3339 60.787 63.0098L60.5905 63.4231C59.598 64.5446 58.586 65.6562 57.5965 66.7808C56.6165 67.8928 56.323 69.2832 56.098 70.6832C55.967 71.5098 55.9205 72.353 55.789 73.1826C55.616 74.2566 55.1635 75.1961 54.2145 75.7915Z"/>
</mask>
<path d="M101.847 142.588C101.541 140.643 100.748 138.889 99.362 137.429C97.695 135.66 96.677 133.615 96.521 131.128C96.34 128.271 94.7075 126.389 92.1225 125.386C91.273 125.055 90.6705 124.607 90.265 123.83C89.781 122.902 89.2285 122.001 88.826 121.04C88.314 119.821 87.421 119.001 86.219 118.734C84.817 118.418 84.199 117.563 83.89 116.307C83.7745 115.846 83.6185 115.396 83.5495 114.929C83.0785 111.919 81.439 109.714 78.8665 108.192C78.0455 107.703 77.6365 107.023 77.2495 106.181C76.4625 104.474 75.7445 102.654 74.583 101.226C72.928 99.193 70.846 97.627 67.905 98.7922L67.5335 98.6889C67.178 97.9405 66.856 97.1073 66.4065 96.3489C65.3075 94.5105 64.5895 94.348 62.7475 95.4129L62.495 95.4285C62.3355 95.0964 62.164 94.7297 61.983 94.3636C61.3525 93.0985 60.787 91.7919 60.0695 90.577C59.426 89.4865 58.649 88.4974 57.1285 88.5691C56.7415 88.5877 56.3385 88.2245 55.655 87.9025C56.42 87.3693 56.816 87.0157 57.272 86.7905C58.6925 86.0792 59.7665 85.0454 60.3035 83.5421C60.547 82.8655 61 82.4898 61.6085 82.3017C62.3545 82.073 63.1225 81.8698 63.897 81.8006C65.9825 81.6125 67.3655 80.366 68.38 78.7248C69.426 77.0334 70.197 75.1795 70.522 73.1811C70.6875 72.1473 70.8685 71.2079 71.93 70.5789C72.4325 70.2814 72.745 69.4949 72.929 68.8689C73.154 68.0734 73.251 67.2116 73.2415 66.385C73.226 64.9474 73.585 63.7451 74.615 62.6737C76.501 60.729 77.0345 58.3233 76.5945 55.6829C76.2385 53.5501 76.014 51.461 76.804 49.3282C77.7435 46.8037 77.144 44.558 74.993 42.8576C74.3345 42.3374 74.0905 41.7646 74.203 40.9661C74.2715 40.4991 74.3185 40.0261 74.34 39.5536C74.415 37.9344 74.5085 36.3153 74.518 34.6931C74.518 34.2482 74.3615 33.722 74.0965 33.3679C72.2265 30.878 70.7245 30.117 68.0865 31.041C67.543 31.2321 66.9965 31.4423 66.435 31.5295C65.5265 31.6795 65.205 31.3856 65.108 30.4676C65.0395 29.791 65.03 29.1023 64.8925 28.4382C64.6175 27.0447 63.8155 26.3681 62.3885 26.2929C61.87 26.2643 61.3365 26.2898 60.8275 26.3902C59.251 26.7002 57.896 26.4373 56.616 25.3468C55.717 24.5734 54.6055 24.0347 53.541 23.4774C51.6895 22.5063 49.782 21.642 47.943 20.6489C46.807 20.0289 45.63 19.7029 44.3525 19.6562C43.728 19.6311 43.085 19.7189 42.473 19.6091C40.444 19.2429 38.8045 19.9853 37.25 21.2037C35.5175 22.56 33.7535 23.8812 31.9425 25.1312C29.5635 26.7754 26.988 27.599 24.0875 26.6691L23.4755 26.5437C22.2955 26.171 21.2305 26.4779 20.1475 26.9851C18.4025 27.8057 16.9505 28.9769 15.711 30.427C14.9835 31.2822 14.2435 31.6078 13.1195 31.0911C12.1205 30.6367 11.543 30.8248 11.0685 31.6113C9.9325 33.4938 9.1985 36.6037 11.5555 38.8458C11.9365 39.206 12.3175 39.5666 12.7205 39.9012C14.3535 41.2575 14.5745 42.9609 13.972 44.8871C13.71 45.7358 13.4195 46.588 13.2635 47.4582C12.6295 51.0442 12.908 54.3768 15.955 56.9359C16.5915 57.4686 17.135 58.1357 17.644 58.7994C18.5555 59.9866 19.2425 61.2486 18.8275 62.8618C18.515 64.0767 18.381 65.3357 18.075 66.548C17.8155 67.5723 17.8155 68.4957 18.4185 69.4106C18.634 69.7362 18.787 70.2027 18.7495 70.5789C18.65 71.562 18.859 72.4483 19.2805 73.3191C19.7335 74.249 19.7705 75.1735 19.4775 76.2068C18.9965 77.8916 19.181 79.5329 20.364 80.9514C20.8695 81.5558 21.3255 82.1948 21.831 82.7993C22.5835 83.6951 22.955 84.6441 22.602 85.847C22.2025 87.2063 22.4115 88.5029 23.0235 89.8086C24.3225 92.5864 25.1655 95.5308 25.178 98.6096C25.181 100.355 25.3465 102.18 24.304 103.8C23.4235 105.162 23.926 106.537 24.825 107.576C26.074 109.023 26.658 110.724 27.282 112.453C27.5755 113.271 27.507 113.966 27.048 114.69C25.671 116.866 25.596 119.203 26.155 121.658C26.5485 123.384 27.3225 124.919 28.259 126.372C28.927 127.408 29.4295 128.48 29.617 129.689C29.7735 130.716 30.179 131.577 30.991 132.26C31.247 132.476 31.4965 132.84 31.5245 133.162C31.693 134.872 32.099 136.557 31.609 138.312C31.1095 140.093 31.5215 141.039 33.142 142.007C34.2285 142.655 34.628 143.576 34.6905 144.728C34.7375 145.618 34.678 146.517 34.722 147.406C34.8095 148.978 35.287 150.397 36.536 151.45C37.101 151.926 37.71 152.415 38.509 152.076C39.3235 151.738 39.655 151.005 39.6705 150.172C39.692 149.18 39.6455 148.177 39.58 147.184C39.4675 145.453 39.53 143.809 41.3035 142.831L41.5345 142.621C43.3955 140.77 43.589 138.828 42.2965 136.529C41.3475 134.837 40.9135 133.043 41.7625 131.117C42.0965 130.359 42.375 129.523 42.434 128.702C42.487 127.9 42.415 126.989 42.069 126.288C41.3975 124.935 40.5145 123.682 39.6805 122.41C38.3725 120.419 37.6325 118.387 39.0405 116.118L39.234 115.689C40.57 113.244 40.6885 110.8 39.178 108.38C38.716 107.64 38.6565 106.93 39.175 106.184C40.1395 104.812 39.949 103.44 39.1965 102.037C38.75 101.21 38.363 100.34 38.0505 99.4563C37.451 97.7649 37.9945 96.7371 40.002 96.0234C40.798 96.8936 41.6565 97.8803 42.562 98.8233C43.9075 100.22 45.581 100.758 47.4295 100.23C48.822 99.832 49.646 100.411 50.3235 101.439C51.0445 102.535 51.6565 103.7 52.3965 104.777C52.9865 105.632 53.6295 106.475 54.379 107.189C55.1625 107.944 55.7745 107.843 56.558 107.085C58.013 105.664 58.325 105.638 59.7145 107.089C60.4765 107.894 61.2975 108.466 62.4465 108.33C63.305 108.223 63.8515 108.583 64.1915 109.338C64.919 110.96 65.6995 112.561 66.3675 114.205C67.2045 116.272 68.5875 116.923 70.5825 116.078C70.8695 115.956 71.151 115.815 71.444 115.695C72.571 115.239 72.6865 115.216 73.333 116.312C74.129 117.662 74.8565 119.059 75.5245 120.481C76.4205 122.376 77.894 123.619 79.883 123.97C81.094 124.186 81.731 124.756 82.218 125.742C82.471 126.26 82.777 126.755 83.03 127.271C84.204 129.661 85.534 131.891 88.278 132.778L88.8025 133.116C90.1545 134.055 91.4315 135.029 91.522 136.909C91.6155 138.776 92.377 140.46 93.0705 142.164C93.545 143.326 94.235 144.263 95.353 144.864C96.2615 145.356 96.8795 146.089 97.2415 147.079C97.588 148.012 98.0065 148.923 98.4465 149.813C99.0615 151.047 100.179 151.814 100.963 151.607C101.778 151.391 102.208 150.492 102.168 148.948C102.152 148.272 101.806 147.52 102.003 146.934C102.506 145.434 102.072 144.016 101.847 142.588ZM54.2145 75.7915C53.89 75.9981 53.4775 76.0829 53.0935 76.1676C52.241 76.3678 51.3515 76.4526 50.524 76.7284C49.5875 77.0419 48.66 77.4362 47.7985 77.9247C47.1365 78.304 46.4965 78.8081 46.019 79.3934C45.332 80.2421 44.5235 80.831 43.418 81.2759C43.043 80.9599 42.6845 80.5867 42.263 80.3018C40.4145 79.0518 39.297 78.9615 37.8205 80.0731C37.4175 80.377 36.946 80.5807 36.15 81.0316C36.3 80.042 36.3405 79.3969 36.506 78.786C36.659 78.2347 36.971 77.7306 37.174 77.1919C37.7985 75.5381 37.608 74.8459 36.103 73.8874C35.485 73.4961 35.2505 73.0447 35.2665 72.35C35.2915 71.3007 35.276 70.2483 35.2695 69.1959C35.2635 67.6455 34.648 66.4868 33.206 65.7881C32.238 65.3181 32.154 64.98 32.3915 63.9026C32.541 63.245 32.666 62.5683 32.741 61.8952C33.0065 59.6275 31.8765 58.049 30.2155 56.7052C29.9315 56.4765 29.641 56.0411 29.6505 55.706C29.688 54.0994 29.154 52.4928 29.782 50.8796C30.1785 49.8554 29.532 49.0348 28.839 48.3737C27.7525 47.3464 27.6245 46.0999 27.893 44.7531C28.1145 43.6195 28.633 43.2779 29.7665 43.4344C30.0755 43.4816 30.4005 43.4876 30.6965 43.5754C33.2695 44.3554 35.2955 43.3752 37.0875 41.6086C37.384 41.3142 37.696 41.0288 37.9865 40.7283C38.97 39.7071 40.1845 39.3469 41.5585 39.4914C42.445 39.5822 43.319 39.7948 44.203 39.842C45.3455 39.9047 46.4885 39.8611 47.762 39.8611C50.2595 44.4115 51.3305 44.9568 55.177 43.5533C56.101 44.4898 57.1405 45.339 56.463 46.9923C56.154 47.7537 56.435 48.5648 56.975 49.2003C57.718 50.0806 58.461 50.9639 59.276 51.775C59.8285 52.3293 60.503 52.7616 61.137 53.2597C60.731 53.9329 60.5375 54.29 60.3095 54.619C59.3825 55.9628 59.198 56.9023 60.2065 58.061C61.599 59.6551 60.8685 61.3339 60.787 63.0098L60.5905 63.4231C59.598 64.5446 58.586 65.6562 57.5965 66.7808C56.6165 67.8928 56.323 69.2832 56.098 70.6832C55.967 71.5098 55.9205 72.353 55.789 73.1826C55.616 74.2566 55.1635 75.1961 54.2145 75.7915Z" fill="#1ABED6" stroke="black" stroke-width="2" mask="url(#path-1-inside-1_107_31)"/>
<path d="M508.75 75.192L508.749 75.1918C508.216 74.9323 507.689 75.0313 507.044 75.3107C506.617 75.4958 506.191 75.6774 505.767 75.8582C504.415 76.4342 503.081 77.0032 501.785 77.6569L501.784 77.6574C500.665 78.2185 499.57 78.8044 498.802 79.6148C498.801 79.615 498.801 79.6152 498.801 79.6155L498.438 79.2715C497 80.7943 495.216 81.7851 493.434 82.7745C491.969 83.588 490.505 84.4007 489.238 85.5074L508.75 75.192ZM508.75 75.192C509.245 75.4321 509.438 75.6971 509.485 75.9006C509.53 76.0906 509.482 76.385 509.115 76.7802L509.114 76.7817C507.772 78.2407 506.401 79.6747 504.967 81.0287L504.967 81.0291C502.508 83.3567 499.865 85.4125 496.881 86.9953L496.88 86.996M508.75 75.192L496.88 86.996M457.501 43.2784C457.371 43.9677 457.408 44.6912 457.445 45.4119C457.454 45.5854 457.463 45.7587 457.47 45.9314C457.54 48.0942 457.623 50.2609 457.708 52.4489C457.729 53.0081 457.751 53.5687 457.772 54.131C456.068 54.5132 455.656 55.6533 455.752 57.0187M457.501 43.2784L457.992 43.373C457.993 43.3728 457.993 43.3727 457.993 43.3725M457.501 43.2784L457.993 43.3715C457.993 43.3718 457.993 43.3722 457.993 43.3725M457.501 43.2784C457.592 42.8084 458.092 42.2321 458.541 42.0786C458.847 41.9693 459.509 42.4042 459.777 42.7678M457.993 43.3725C457.874 43.9969 457.907 44.6444 457.944 45.3583C457.953 45.5385 457.962 45.723 457.97 45.9123L457.97 45.9153C458.039 48.0763 458.123 50.2408 458.207 52.4284C458.229 52.988 458.251 53.549 458.272 54.1119L458.288 54.5278L457.882 54.6189C457.131 54.7872 456.734 55.1029 456.515 55.4646C456.287 55.8432 456.207 56.3505 456.251 56.9828M457.993 43.3725C458.016 43.2521 458.107 43.0687 458.265 42.8873C458.407 42.7228 458.558 42.6129 458.669 42.5648M456.251 56.9828L455.752 57.0187M456.251 56.9828C456.251 56.983 456.251 56.9832 456.251 56.9834L455.752 57.0187M456.251 56.9828C456.374 58.6833 456.566 60.376 456.76 62.0802C456.773 62.1938 456.786 62.3074 456.799 62.4211L456.302 62.4776C456.289 62.3631 456.276 62.2487 456.263 62.1343C456.07 60.4324 455.876 58.7299 455.752 57.0187M459.933 83.718C459.846 81.7301 459.316 79.8736 458.475 78.0902L458.474 78.0885C457.53 76.1053 457.169 73.9673 457.205 71.7341L456.705 71.726C456.739 69.681 456.774 67.6295 456.717 65.5845L459.434 83.7403M459.933 83.718C459.933 83.718 459.933 83.7181 459.933 83.7182L459.434 83.7403M459.933 83.718C459.933 83.7175 459.933 83.7171 459.933 83.7166L459.434 83.7403M459.933 83.718C459.937 83.7823 459.94 83.8467 459.943 83.9113C459.987 84.8371 460.032 85.7905 460.003 86.7404M459.434 83.7403C459.437 83.8037 459.44 83.8672 459.443 83.9307C459.487 84.8611 459.532 85.7961 459.503 86.7258M460.003 86.7404C460.003 86.7404 460.003 86.7403 460.003 86.7403L459.503 86.7258M460.003 86.7404C459.979 87.5713 460.269 88.1877 460.886 88.6585M460.003 86.7404C460.003 86.7407 460.003 86.741 460.003 86.7414L459.503 86.7258M459.503 86.7258L460.886 88.6585M460.886 88.6585C460.886 88.6582 460.885 88.658 460.885 88.6578L460.583 89.0562L460.886 88.6586C460.886 88.6586 460.886 88.6585 460.886 88.6585ZM460.886 88.6585C461.209 88.9031 461.547 89.0981 461.996 89.3565C462.239 89.4964 462.514 89.6548 462.837 89.8497L463.16 90.0454L463.06 90.41C462.854 91.1612 462.651 91.922 462.447 92.688C461.984 94.4301 461.513 96.1988 460.973 97.9413M460.886 88.6585L462.578 90.2776C462.369 91.037 462.166 91.8024 461.961 92.5708C461.499 94.3085 461.032 96.0613 460.496 97.794M460.973 97.9413L460.496 97.794M460.973 97.9413C460.973 97.9415 460.973 97.9417 460.973 97.9419L460.496 97.794M460.973 97.9413C460.865 98.2934 460.753 98.6385 460.643 98.9786C459.978 101.028 459.373 102.894 459.921 105.013C460.096 105.68 460.08 106.275 459.731 106.768C459.405 107.227 458.856 107.494 458.249 107.703C458.249 107.703 458.249 107.704 458.248 107.704L460.496 97.794M448.846 115.123C449.231 114.924 449.605 114.708 449.966 114.484L450.067 114.421L450.128 114.321L450.309 114.026L450.48 113.748L450.295 113.48L450.054 113.132L450.044 113.117L450.032 113.103C449.498 112.442 449.36 111.995 449.407 111.693C449.449 111.416 449.682 111.075 450.415 110.711C451.812 110.02 453.266 109.463 454.745 108.897C455.169 108.735 455.595 108.572 456.022 108.405L448.845 115.123C448.845 115.123 448.845 115.123 448.846 115.123ZM448.846 115.123C446.554 116.313 444.691 118.034 443.028 120.032M448.846 115.123L443.028 120.032M443.028 120.032C442.483 120.687 442.27 121.162 442.247 121.584C442.224 122.006 442.384 122.479 442.826 123.147C442.826 123.147 442.826 123.147 442.826 123.147L443.028 120.032ZM458.669 42.5648C458.675 42.5661 458.681 42.5678 458.689 42.57C458.745 42.5859 458.824 42.6202 458.919 42.6761C459.112 42.7903 459.288 42.947 459.374 43.063M458.669 42.5648C458.681 42.5598 458.692 42.5554 458.703 42.5517L458.703 42.5518L458.709 42.5496C458.707 42.5503 458.705 42.551 458.703 42.5517C458.675 42.5606 458.657 42.5616 458.65 42.5615M458.669 42.5648C458.66 42.5627 458.653 42.5618 458.65 42.5615M459.777 42.7678L459.372 43.0604C459.373 43.0613 459.373 43.0621 459.374 43.063M459.777 42.7678L459.375 43.0648C459.375 43.0642 459.374 43.0636 459.374 43.063M459.777 42.7678L464.334 54.0767M459.374 43.063C460.081 44.0431 460.764 45.0029 461.2 46.0378L461.2 46.0382C462.053 48.0572 462.829 50.1068 463.609 52.1676C463.849 52.8031 464.09 53.4396 464.334 54.0767M458.65 42.5615C458.649 42.5614 458.648 42.5614 458.648 42.5613L458.65 42.5615ZM464.334 54.0767C464.453 54.3917 464.539 54.7051 464.555 54.9906M464.334 54.0767L473.073 84.9474C473.073 84.9475 473.073 84.9476 473.073 84.9477C473.062 84.9291 473.05 84.9098 473.038 84.8901C472.93 84.7171 472.799 84.5056 472.695 84.2888C472.579 84.0487 472.47 83.7494 472.475 83.4284L472.475 83.4239C472.496 82.5696 472.129 81.9376 471.565 81.1623L471.562 81.1585C471.158 80.5909 470.802 79.7982 470.78 79.0447M464.334 54.0767C464.334 54.0769 464.334 54.0772 464.334 54.0774L464.801 53.8988M464.334 54.0767C464.334 54.0764 464.333 54.0761 464.333 54.0758L464.801 53.8988M464.555 54.9906C464.63 56.7739 465.168 58.3973 465.775 59.9428C465.937 60.3551 466.103 60.7594 466.267 61.1596C466.728 62.2822 467.175 63.3725 467.488 64.5166L467.488 64.5182C467.579 64.8453 467.784 65.1338 467.996 65.3608C468.213 65.5927 468.469 65.7937 468.712 65.9419L468.713 65.9423C469.993 66.7217 470.607 67.8314 470.636 69.2989C470.661 70.6159 470.673 71.9421 470.686 73.2715C470.704 75.195 470.722 77.1253 470.78 79.0447M464.555 54.9906C464.555 54.9914 464.555 54.9922 464.555 54.993L465.054 54.9667M464.555 54.9906C464.555 54.9897 464.554 54.9887 464.554 54.9878L465.054 54.9667M470.78 79.0447L471.28 79.0298M470.78 79.0447C470.78 79.0447 470.78 79.0446 470.78 79.0446L471.28 79.0298M471.28 79.0298C471.222 77.1121 471.204 75.1942 471.186 73.2771C471.174 71.9473 471.161 70.618 471.136 69.2893C471.104 67.6546 470.402 66.3855 468.973 65.5152L471.28 79.0298ZM465.054 54.9667C465.035 54.6065 464.929 54.2368 464.801 53.8988M465.054 54.9667L464.801 53.8988M475.326 91.1155C475.177 91.2855 475.034 91.4674 474.898 91.6622L475.307 91.9494L475.806 91.9162C475.791 91.6988 475.792 91.505 475.806 91.3283C477.083 89.9376 478.772 89.4339 480.491 88.9213C480.79 88.8322 481.09 88.7428 481.389 88.6484C483.197 88.0757 484.95 87.3311 486.703 86.5866L475.326 91.1155ZM475.326 91.1155C475.355 90.901 475.404 90.701 475.475 90.5088L475.326 91.1155ZM426.858 142.694L426.857 142.694C426.464 142.897 426.055 143.07 425.667 143.235C425.625 143.253 425.583 143.271 425.542 143.288C425.109 143.472 424.702 143.65 424.321 143.864C420.743 145.872 417.797 148.707 414.81 151.583L414.81 151.583C414.253 152.119 413.9 152.923 413.519 153.791C413.492 153.852 413.465 153.913 413.438 153.975L413.437 153.977C413.24 154.419 413.123 154.815 413.137 155.165C413.15 155.485 413.272 155.802 413.645 156.112L426.858 142.694ZM426.858 142.694C428.502 141.839 429.665 140.522 430.523 138.94C431.417 137.294 432.525 135.999 434.263 135.366L426.858 142.694ZM442.985 138.082L442.986 138.08C443.322 137.753 443.717 137.388 444.166 137.118M442.985 138.082L471.006 106.874M442.985 138.082C442.442 138.615 441.894 139.147 441.346 139.68C439.789 141.194 438.223 142.717 436.725 144.298C435.292 145.807 433.569 146.627 431.548 147.087C429.614 147.522 427.653 147.975 425.753 148.61C424.706 148.959 423.75 149.639 422.94 150.296M442.985 138.082L415.975 156.074M444.166 137.118C444.167 137.118 444.167 137.118 444.168 137.117L444.425 137.546L444.166 137.118C444.166 137.118 444.166 137.118 444.166 137.118ZM444.166 137.118C445.429 136.353 446.345 135.272 446.873 133.944L447.337 134.129L446.873 133.945C447.912 131.317 449.636 129.194 451.367 127.156M451.367 127.156L451.749 127.48L451.368 127.156C451.368 127.156 451.368 127.156 451.367 127.156ZM451.367 127.156C451.683 126.783 451.997 126.437 452.304 126.098C452.795 125.556 453.27 125.031 453.713 124.444L453.713 124.443C454.154 123.861 454.53 123.213 454.689 122.573L454.689 122.571C455.297 120.169 456.673 118.409 458.689 117.083M458.689 117.083C458.689 117.083 458.689 117.083 458.689 117.083L458.964 117.501L458.689 117.083C458.689 117.083 458.689 117.083 458.689 117.083ZM458.689 117.083C460.272 116.038 461.831 114.976 463.395 113.911C464.465 113.182 465.538 112.451 466.621 111.724L466.622 111.724C467.703 111 468.498 110.052 469.094 108.867L469.095 108.866C469.51 108.043 470.037 107.261 470.62 106.556M470.62 106.556L471.006 106.874M470.62 106.556C470.62 106.556 470.621 106.556 470.621 106.556L471.006 106.874M470.62 106.556C472.31 104.507 474.472 103.251 476.993 102.507L477.135 102.987L476.993 102.507C480.764 101.396 483.447 98.915 485.156 95.3602L485.157 95.3596L471.006 106.874M496.88 86.996C495.823 87.5607 494.875 88.342 494.009 89.1033L496.88 86.996ZM415.975 156.074C415.459 156.376 415.025 156.501 414.66 156.501C414.302 156.501 413.969 156.381 413.646 156.113L415.975 156.074ZM415.975 156.074L416.58 155.647C417.255 155.078 417.93 154.504 418.605 153.928C420.037 152.707 421.475 151.481 422.94 150.296M422.94 150.296C422.94 150.296 422.94 150.296 422.94 150.296L423.254 150.684L422.94 150.296C422.94 150.296 422.94 150.296 422.94 150.296ZM437.039 131.928C438.832 130.402 440.623 128.86 442.371 127.27L435.312 134.186C435.643 133.272 436.254 132.598 437.039 131.928Z" fill="#1ABED6" stroke="black"/>
<path d="M93.5619 75.1008L93.562 75.1005C94.0626 73.7805 94.2711 72.5105 93.7082 71.357C92.9373 69.7779 92.755 68.1929 93.052 66.5204V65.953C93.0141 65.4274 92.8762 65.1149 92.6871 64.9203C92.4965 64.7242 92.1844 64.5762 91.6495 64.526C90.6845 64.4422 89.8094 64.6584 88.9956 65.2035C88.6586 65.432 88.1197 65.7184 87.5836 65.6858L87.5836 65.6857C86.639 65.6282 86.1803 65.753 85.9614 65.9507C85.7708 66.1228 85.6244 66.4875 85.7403 67.3735L85.7404 67.3746C86.0072 69.4502 85.7587 71.3992 85.0382 73.3201L85.0381 73.3204C84.9987 73.4251 84.9707 73.544 84.9436 73.6896C84.9354 73.7335 84.9264 73.7854 84.9168 73.8411C84.8986 73.9463 84.8781 74.065 84.8562 74.1688L84.367 74.0654M93.5619 75.1008L85.625 80.3269L86.0894 80.5122C86.0895 80.5121 86.0895 80.5119 86.0896 80.5118C86.1146 80.4491 86.1402 80.3855 86.1661 80.321C86.3908 79.7628 86.6408 79.1417 86.7601 78.4979L86.7604 78.4965C86.8355 78.0846 86.8299 77.6397 86.6615 77.2283C86.4881 76.8046 86.1598 76.461 85.6754 76.2414L85.6754 76.2414C85.1894 76.0212 84.9629 75.7413 84.8571 75.4389C84.7432 75.1134 84.7459 74.6941 84.8563 74.1682L84.367 74.0654M93.5619 75.1008C92.8441 76.9973 92.4942 78.9473 92.5557 80.9896C92.5754 81.6853 92.6707 82.3521 92.9613 82.9583C93.2571 83.5751 93.7362 84.0904 94.4572 84.5134C95.5169 85.136 96.0396 85.9315 96.1924 86.7267C96.3469 87.5307 96.1361 88.4017 95.5997 89.1869L95.5983 89.1889C95.3185 89.6027 95.0813 90.0386 94.8583 90.4551C94.8386 90.4919 94.819 90.5286 94.7995 90.5651C94.5948 90.9479 94.4004 91.3118 94.1818 91.6578L94.1817 91.658C93.8296 92.2158 93.6357 92.7919 93.6132 93.3881C93.5907 93.9831 93.7403 94.5658 94.0266 95.1365L94.0265 95.1365L94.0307 95.1445L94.1772 95.4239L94.1772 95.4239L94.1789 95.4271C95.1353 97.2194 95.352 99.032 94.6275 100.926L94.6263 100.929C94.5468 101.141 94.4839 101.367 94.4285 101.567C94.4132 101.622 94.3985 101.675 94.3841 101.725C94.3131 101.972 94.245 102.175 94.1499 102.349L94.1479 102.353C92.6458 105.153 92.3439 108.126 92.5572 111.175L92.5573 111.176C92.6269 112.127 92.5083 113.09 92.3838 114.102C92.3543 114.341 92.3244 114.584 92.2967 114.829L92.2964 114.832C92.2656 115.119 92.1141 115.451 91.9108 115.783C91.5614 116.332 91.1622 116.564 90.8039 116.6C90.4447 116.635 90.0031 116.485 89.5448 116.011C88.7056 115.139 88.4239 114.006 88.3731 112.727L88.3731 112.727C88.343 111.973 88.3502 111.226 88.3575 110.465C88.3592 110.289 88.3608 110.113 88.3621 109.936H88.4075V109.436C88.4075 109.134 88.406 108.835 88.4044 108.537C88.4011 107.892 88.3978 107.254 88.4104 106.613C88.4403 105.506 88.214 104.451 87.5677 103.486C86.9989 102.633 86.796 101.739 87.0272 100.735M93.5619 75.1008L87.0272 100.735M84.367 74.0654C84.1295 75.196 84.2855 76.1606 85.469 76.6968M84.367 74.0654C84.3874 73.9687 84.4042 73.8711 84.421 73.7737C84.4579 73.5589 84.4947 73.345 84.57 73.1445C85.263 71.2971 85.5005 69.4302 85.2445 67.4383C85.004 65.6 85.713 65.0708 87.614 65.1867L85.469 76.6968M85.469 76.6968C86.2215 77.0379 86.396 77.708 86.2685 78.4068L85.469 76.6968ZM85.8093 87.7923L85.8095 87.7925C86.5529 88.3677 86.9628 89.1533 86.9205 90.1138C86.9049 90.4711 86.8927 90.8327 86.8803 91.1971C86.8395 92.4018 86.7977 93.6375 86.6294 94.8488M85.8093 87.7923L86.134 94.7809M85.8093 87.7923C85.0904 87.2368 84.715 86.6149 84.5704 85.9522C84.4234 85.2786 84.5051 84.5166 84.7852 83.6767L85.8093 87.7923ZM86.6294 94.8488C86.6293 94.8491 86.6293 94.8494 86.6293 94.8497L86.134 94.7809M86.6294 94.8488C86.6294 94.8486 86.6294 94.8483 86.6295 94.8481L86.134 94.7809M86.6294 94.8488C86.619 94.9251 86.6087 95.0001 86.5985 95.074C86.4598 96.0784 86.3496 96.8766 86.714 97.6495M86.134 94.7809C86.1225 94.8655 86.1107 94.9499 86.0989 95.0342C85.9633 96.0038 85.831 96.9494 86.262 97.8632M86.714 97.6495C86.714 97.6493 86.7139 97.6492 86.7138 97.6491L86.262 97.8632M86.714 97.6495C87.1935 98.6612 87.2689 99.6951 87.0272 100.735M86.714 97.6495C86.7141 97.6496 86.7142 97.6498 86.7142 97.6499L86.262 97.8632M86.262 97.8632L87.0272 100.735" fill="#1ABED6" stroke="black"/>
<path d="M90.9735 58.7127L90.974 58.7125C92.2527 58.2486 92.8948 57.185 93.0029 55.7258C93.0029 55.7258 93.0029 55.7258 93.0029 55.7257L93.5015 55.7627C93.6605 53.6143 93.9665 51.5096 94.4815 49.4079L90.9735 58.7127ZM90.9735 58.7127C89.706 59.1739 88.4614 58.8752 87.3468 57.9625C87.1459 57.798 86.9457 57.6356 86.7465 57.4741C86.1421 56.9842 85.5475 56.5021 84.9756 55.9901C83.9253 55.043 83.743 53.8166 84.1489 52.4702C84.468 51.4292 84.9666 50.4154 85.5089 49.4113L85.5094 49.4105M90.9735 58.7127L85.5094 49.4105M85.5094 49.4105C85.7878 48.8926 86.013 48.3564 86.0504 47.7806C86.0889 47.1875 85.9257 46.6043 85.524 45.9983C84.8974 45.0403 85.1372 43.6269 85.9841 42.683L85.5094 49.4105ZM93.6101 47.1266C94.039 47.5555 94.2444 48.2714 93.9959 49.2889L85.9842 42.6829C86.7378 41.8444 87.733 41.4387 88.8504 41.3108L88.8506 41.3108C89.435 41.2436 90.0047 41.5164 90.4239 42.0373C90.8436 42.559 91.0812 43.2986 90.9881 44.0676L90.9877 44.0715C90.9427 44.4694 90.8695 44.8525 90.7836 45.3015C90.742 45.5191 90.6974 45.7522 90.6517 46.01L90.5314 46.6877L91.2131 46.5926C92.3805 46.4297 93.1712 46.6877 93.6101 47.1266Z" fill="#1ABED6" stroke="black"/>
<path d="M414.539 85.5519L414.539 85.552C414.028 85.6868 413.728 85.9144 413.567 86.1755C413.405 86.4376 413.337 86.8084 413.438 87.3203L413.438 87.3206C413.561 87.943 413.799 88.3701 414.106 88.6299C414.405 88.8826 414.825 89.0242 415.419 88.971L415.419 88.971C416.658 88.8603 417.691 89.2592 418.654 89.6305C418.75 89.6677 418.846 89.7047 418.941 89.7409L418.942 89.7411C419.39 89.9121 419.803 90.142 420.188 90.3732C420.329 90.4582 420.463 90.5412 420.595 90.6224C420.834 90.7703 421.063 90.9119 421.306 91.0476C422.033 91.4535 422.741 91.7185 423.605 91.6136L424.377 91.5198L424.142 92.261C424.1 92.3926 424.072 92.5008 424.044 92.6101C424.031 92.6585 424.018 92.7071 424.004 92.758C423.963 92.9088 423.909 93.0855 423.809 93.2536C423.046 94.5591 422.756 95.9694 422.707 97.5271L422.707 97.5286C422.678 98.3924 422.264 99.2627 421.871 99.9319C421.412 100.719 421.284 101.463 421.506 102.257L421.506 102.258C421.714 103.008 421.942 103.725 422.291 104.345L422.291 104.345C422.544 104.796 422.696 105.239 422.714 105.713C422.732 106.186 422.614 106.646 422.399 107.127C421.606 108.915 421.42 110.7 422.358 112.454L422.36 112.456C422.545 112.808 422.718 113.288 422.698 113.757L422.698 113.761C422.665 114.402 422.657 115.024 422.648 115.656C422.642 116.145 422.635 116.64 422.617 117.156C422.577 118.302 422.479 119.463 422.182 120.582L422.182 120.582C421.411 123.474 421.34 126.358 421.409 129.331L420.909 129.342L421.409 129.331C421.439 130.642 421.708 131.889 422.47 132.9C422.82 133.362 423.13 133.47 423.338 133.454C423.55 133.438 423.851 133.278 424.146 132.773L424.146 132.772C424.249 132.597 424.311 132.396 424.393 132.13C424.406 132.087 424.42 132.043 424.434 131.997C424.892 130.502 425.344 129.004 425.783 127.498C425.847 127.281 425.912 127.072 425.975 126.869C426.16 126.275 426.331 125.729 426.401 125.158C426.819 121.627 427.218 118.093 427.539 114.558L414.539 85.5519ZM414.539 85.5519C414.909 85.4543 415.298 85.3932 415.682 85.3705L414.539 85.5519ZM430.371 92.0522L430.588 91.8934L430.97 91.6145L431.209 91.4399L431.477 91.5652C431.635 91.6391 431.783 91.6947 431.949 91.7568C432.057 91.7975 432.173 91.841 432.304 91.8943C432.601 92.0147 432.936 92.1734 433.215 92.4305L433.215 92.4307C434.849 93.9391 436.85 94.1195 438.969 93.7917L439.045 94.2858M430.371 92.0522L433.472 74.4477L432.981 74.3583C432.981 74.3584 432.981 74.3584 432.981 74.3584C432.556 76.6948 431.873 78.9618 430.863 81.1228C430.675 81.5245 430.539 81.9429 430.421 82.3494C430.374 82.5112 430.331 82.6664 430.288 82.8189C430.22 83.0644 430.154 83.3027 430.076 83.55L429.942 83.9776L430.353 84.1575C431.572 84.692 432.686 84.5276 433.614 84.3907C433.753 84.3702 433.888 84.3503 434.018 84.3335L434.02 84.3332C435.289 84.1634 435.879 84.1419 436.318 84.3099C436.739 84.471 437.096 84.8377 437.772 85.7715L437.922 85.9783H438.177C438.49 85.9783 438.799 85.9772 439.106 85.976C439.8 85.9735 440.481 85.971 441.164 85.9817C442.361 86.0018 443.362 86.4158 444.114 87.3075L444.116 87.3095C444.651 87.9374 445.273 88.2103 446.036 88.3105C446.948 88.4303 447.847 88.6032 448.665 88.9124L448.665 88.9125C449.254 89.1349 449.839 89.5302 450.284 89.9914L450.285 89.9925C450.718 90.4379 450.865 90.8572 450.842 91.2208C450.819 91.5891 450.616 92.0008 450.146 92.4124C449.905 92.6221 449.657 92.7908 449.383 92.9775C449.233 93.0792 449.076 93.1862 448.908 93.3081L448.713 93.4492L448.702 93.6896C448.655 94.6762 448.441 95.2026 448.113 95.4966C447.782 95.7938 447.216 95.9615 446.194 95.9255C444.783 95.8698 443.507 95.4317 442.394 94.5864L442.394 94.5859C441.344 93.7914 440.294 93.5832 438.967 93.7919L439.045 94.2858M430.371 92.0522L430.384 92.321C430.398 92.6061 430.406 92.9019 430.415 93.2035C430.434 93.8918 430.454 94.6103 430.541 95.3019M430.371 92.0522L442.092 94.9846C441.165 94.2828 440.256 94.0952 439.045 94.2858M439.045 94.2858C436.856 94.6244 434.671 94.4549 432.876 92.7981C432.588 92.5323 432.194 92.3839 431.801 92.2356C431.619 92.167 431.437 92.0984 431.265 92.0181L430.883 92.297C430.898 92.6035 430.907 92.9111 430.915 93.219C430.934 93.8958 430.953 94.5734 431.037 95.2409M431.037 95.2409L430.541 95.3019M431.037 95.2409C431.299 97.3707 431.196 99.4257 430.122 101.345L431.037 95.2409ZM430.541 95.3019C430.796 97.3797 430.686 99.3122 429.686 101.101M430.541 95.3019L429.686 101.101M429.686 101.101C429.25 101.876 429.215 102.678 429.528 103.486C429.99 104.69 429.891 105.93 429.781 107.292C429.768 107.456 429.755 107.62 429.742 107.787C429.718 108.098 429.539 108.479 429.297 108.82C428.037 110.583 427.718 112.578 427.539 114.558L429.686 101.101ZM415.463 89.469C414.062 89.5944 413.222 88.8079 412.947 87.4175C412.71 86.2212 413.213 85.3845 414.411 85.0685L415.463 89.469ZM415.463 89.469C416.58 89.3692 417.507 89.7255 418.482 90.1004M415.463 89.469L418.482 90.1004M418.482 90.1004C418.575 90.1363 418.669 90.1725 418.764 90.2084L418.482 90.1004ZM421.917 112.689C422.082 113.002 422.213 113.391 422.198 113.735L421.917 112.689ZM435.263 66.531L435.193 66.7534L415.682 85.3705C416.659 85.3129 417.608 85.067 418.432 84.37C419.099 83.8069 419.914 83.708 420.917 83.7051L420.918 83.705C421.87 83.7004 422.693 83.5362 423.179 82.9467C423.666 82.3561 423.672 81.5126 423.482 80.5525C423.172 78.9815 423.356 77.5268 424.043 76.1247C424.623 74.948 424.911 73.7235 424.891 72.4077L424.891 72.4065C424.861 70.6902 425.314 69.0421 425.893 67.3608C425.945 67.2124 425.999 67.0619 426.053 66.9095C426.383 65.9809 426.738 64.9816 426.866 63.9583C427.222 61.1159 428.434 58.6022 429.691 55.9976C429.779 55.8132 429.869 55.6284 429.958 55.443C430.075 55.1989 430.193 54.9545 430.312 54.7097C430.717 53.8718 431.124 53.0293 431.506 52.1772C432.147 50.7472 433.064 49.7966 434.563 49.5566C435.419 49.4199 436.065 49.6063 436.469 49.9601C436.866 50.308 437.111 50.8892 437.028 51.7236C436.937 52.5895 436.584 53.4936 436.153 54.3377L436.153 54.3379C435.651 55.3207 435.088 56.257 434.515 57.2106C434.227 57.6906 433.936 58.1751 433.649 58.672L433.648 58.6722C433.443 59.0284 433.273 59.3428 433.164 59.6267C433.053 59.9161 432.99 60.2112 433.037 60.5205C433.085 60.8309 433.234 61.0937 433.43 61.336C433.622 61.573 433.884 61.8181 434.194 62.0912C435.526 63.266 435.527 64.7502 435.263 66.531Z" fill="#1ABED6" stroke="black"/>
<path d="M130.669 98.6934L130.669 98.6935C129.7 99.3924 128.825 99.8025 127.896 99.8096C126.968 99.8168 126.085 99.4201 125.103 98.7323C125.103 98.7323 125.103 98.7322 125.103 98.7321L125.39 98.3227C125.146 98.1517 124.907 97.9723 124.669 97.7931C124.363 97.5622 124.057 97.3317 123.739 97.1199L130.669 98.6934ZM130.669 98.6934C131.375 98.1835 131.928 97.9863 132.335 97.9978C132.696 98.008 133.027 98.1856 133.319 98.6826L133.32 98.6842C133.595 99.1481 133.72 99.8674 133.628 100.428L133.628 100.43C133.153 103.395 130.439 105.35 127.482 104.857C125.943 104.601 124.65 104.896 123.458 105.979M130.669 98.6934L123.458 105.979M100.82 101.927C100.692 103.43 101.404 104.132 102.931 104.251C103.408 104.29 103.887 104.289 104.366 104.287C104.62 104.287 104.874 104.286 105.128 104.292C106.652 104.329 107.13 104.833 106.833 106.33C106.565 107.712 106.839 108.901 107.979 109.684C109.031 110.415 109.247 111.367 109.272 112.516C109.287 113.246 109.362 113.992 109.565 114.69C109.718 115.216 110.036 115.743 110.411 116.149C111.054 116.857 111.953 116.935 112.643 116.293C113.239 115.733 113.77 115.05 114.16 114.33C114.467 113.761 114.722 113.162 114.976 112.564C115.215 112.002 115.454 111.44 115.737 110.903C116.199 110.033 116.739 109.18 117.372 108.432C117.925 107.777 118.615 107.477 119.598 107.85C120.198 108.078 121.05 107.928 121.69 107.683C122.455 107.393 123.183 106.901 123.794 106.349M100.82 101.927L130.376 98.2881C131.859 97.2172 133.03 97.2051 133.75 98.429C134.09 99.0019 134.231 99.8415 134.122 100.509C133.604 103.747 130.632 105.889 127.4 105.351C125.992 105.116 124.859 105.382 123.794 106.349M100.82 101.927C100.89 101.095 101.175 100.27 101.456 99.4599C101.499 99.3339 101.543 99.2083 101.585 99.0831C101.693 98.7645 101.879 98.4753 102.092 98.1451C102.1 98.1326 102.108 98.1201 102.116 98.1075C102.216 98.106 102.319 98.1044 102.428 98.1044L100.82 101.927ZM123.794 106.349L123.459 105.978C123.459 105.978 123.459 105.978 123.458 105.979M123.794 106.349L123.458 105.979C123.458 105.979 123.458 105.979 123.458 105.979M123.458 105.979C122.88 106.5 122.205 106.953 121.512 107.216L121.512 107.216C121.226 107.325 120.895 107.412 120.575 107.447C120.251 107.481 119.975 107.458 119.776 107.382L119.775 107.382C119.202 107.165 118.669 107.128 118.178 107.277C117.694 107.424 117.307 107.734 116.99 108.109C116.327 108.892 115.768 109.777 115.295 110.669L115.294 110.67C115.002 111.226 114.756 111.805 114.519 112.362L114.493 112.423C114.245 113.006 114.005 113.564 113.72 114.092C113.356 114.763 112.859 115.404 112.301 115.928C112.047 116.164 111.783 116.246 111.544 116.229C111.301 116.211 111.03 116.088 110.781 115.813L110.778 115.811C110.448 115.452 110.173 114.992 110.045 114.551C109.859 113.909 109.786 113.211 109.771 112.506L109.771 112.506C109.758 111.908 109.696 111.313 109.475 110.758C109.249 110.191 108.868 109.693 108.264 109.274L108.262 109.272C107.781 108.942 107.498 108.54 107.355 108.082C107.209 107.617 107.2 107.063 107.324 106.427C107.476 105.656 107.477 104.944 107.043 104.438C106.618 103.943 105.913 103.811 105.14 103.792L105.139 103.792C104.859 103.786 104.593 103.787 104.335 103.787C103.871 103.789 103.43 103.79 102.971 103.752L102.969 103.752C102.262 103.697 101.85 103.513 101.62 103.267C101.399 103.03 101.261 102.642 101.318 101.969L101.318 101.969C101.383 101.204 101.645 100.445 101.926 99.63C101.97 99.5027 102.014 99.374 102.059 99.2437L102.059 99.2436C102.121 99.0604 102.221 98.8772 102.364 98.6489C102.406 98.5818 102.453 98.5083 102.504 98.4297C102.614 98.2579 102.741 98.0619 102.86 97.8555L103.297 97.1044H102.428C102.267 97.1044 102.141 97.1065 102.036 97.1083C101.859 97.1113 101.739 97.1133 101.605 97.1029L101.604 97.1028C101.037 97.0599 100.625 96.8588 100.378 96.5842C100.14 96.3189 100.008 95.9328 100.096 95.4034L100.096 95.4018C100.256 94.4157 100.656 93.4191 101.137 92.4884L101.137 92.487C101.404 91.9662 101.818 91.5271 102.283 91.0346C102.399 90.9108 102.519 90.7836 102.641 90.6509L102.641 90.6503C103.524 89.6833 104.038 88.5455 104.107 87.2273C104.203 85.494 104.642 83.9212 105.482 82.3571L105.483 82.3549C106.124 81.146 106.317 79.6667 106.485 78.386C106.49 78.3443 106.496 78.3029 106.501 78.2618C106.711 76.6986 107.059 75.6956 107.669 74.9742C108.279 74.2544 109.207 73.7471 110.733 73.3086L110.733 73.3087L110.743 73.3055L111.461 73.0827C112.312 72.9247 113.048 72.6182 113.604 72.073C114.171 71.517 114.501 70.7619 114.622 69.8072C114.69 69.2878 115.141 68.6245 115.65 68.1966L115.65 68.1965C117.369 66.7489 119.4 65.989 121.666 65.8417C122.512 65.7888 123.177 66.0022 123.65 66.573C123.995 66.9895 124.386 67.2156 124.82 67.3134C125.228 67.4054 125.651 67.3766 126.038 67.3409C127.262 67.2313 128.484 67.188 129.723 67.144C130.203 67.1269 130.686 67.1098 131.172 67.0887L131.173 67.0887C131.981 67.0527 132.561 67.3623 132.911 68.0376L132.911 68.039C133.282 68.7487 133.111 69.4544 132.588 70.1721C131.325 71.898 129.531 72.5736 127.384 72.6574C126.507 72.6916 125.628 72.6887 124.738 72.6822C124.738 72.6822 124.738 72.6822 124.738 72.6822L124.734 73.1821C123.663 73.1726 122.667 73.4109 121.678 74.0374C122.371 75.4594 121.712 76.599 120.719 77.5104M123.458 105.979L113.08 87.098C112.946 87.0087 112.812 86.9217 112.646 86.8147C112.544 86.7492 112.431 86.6761 112.299 86.5903C112.571 84.5609 113.87 83.3676 115.243 82.2119C115.554 81.9507 115.865 81.6901 116.177 81.4294C117.711 80.1458 119.245 78.8617 120.719 77.5104M120.719 77.5104L120.381 77.1418C120.381 77.1419 120.381 77.142 120.381 77.1421L120.719 77.5104ZM111.662 96.5786L111.205 96.376C111.205 96.3761 111.205 96.3762 111.205 96.3763C111.205 96.3765 111.205 96.3767 111.205 96.3768L111.662 96.5786ZM111.662 96.5786C111.999 95.8147 112.399 95.0784 112.808 94.3515M111.662 96.5786C111.497 96.9508 111.416 97.3892 111.422 97.797M112.808 94.3515L113.47 98.9652C112.415 99.5727 111.438 99.0124 111.422 97.797M112.808 94.3515C112.996 94.0204 113.202 93.6972 113.408 93.374C113.767 92.8108 114.126 92.2477 114.388 91.6424L112.808 94.3515ZM111.422 97.797L110.922 97.8034C110.922 97.8037 110.922 97.8039 110.922 97.8042C110.922 97.8045 110.922 97.8047 110.922 97.805L111.422 97.797Z" fill="#1ABED6" stroke="black"/>
<path d="M413.543 122.502L413.544 122.501C413.98 121.895 414.109 121.21 413.905 120.54L413.904 120.539C413.5 119.204 413.047 117.881 412.509 116.602C411.592 114.446 411.048 112.256 411.436 109.766C411.993 106.173 411.202 102.773 409.025 99.8598L413.543 122.502ZM413.543 122.502C413.09 123.133 412.495 123.459 411.896 123.515C411.297 123.571 410.644 123.36 410.067 122.819C408.896 121.719 408.281 120.263 407.968 118.669C407.616 116.842 407.172 115.053 406.509 113.287L406.509 113.286M413.543 122.502L406.509 113.286M402.769 84.8166L402.771 84.8153C403.049 84.6311 403.345 84.4959 403.611 84.3791C403.649 84.3624 403.686 84.3462 403.723 84.3302C403.953 84.2294 404.158 84.1402 404.351 84.0315L404.353 84.0304C404.572 83.909 404.788 83.7929 405.001 83.6786C405.706 83.2993 406.374 82.9406 406.971 82.4784C408.037 81.6514 409.189 81.0564 410.549 80.7973C410.948 80.7204 411.348 80.5045 411.816 80.251L411.816 80.2507C413.226 79.4889 414.171 78.2581 415.031 76.8195C415.483 76.0638 415.645 75.2806 415.55 74.4181L415.55 74.4178C415.528 74.2189 415.513 74.0316 415.498 73.8529C415.461 73.4102 415.428 73.0195 415.317 72.6327C415.317 72.6326 415.317 72.6324 415.317 72.6322L415.797 72.494C415.753 72.3415 415.711 72.1844 415.669 72.0257L402.769 84.8166ZM402.769 84.8166C402.267 85.1532 401.958 85.6611 401.949 86.2078C401.941 86.766 402.247 87.2737 402.789 87.5734C404.841 88.7159 406.023 90.6022 407.292 92.6276C407.343 92.7081 407.393 92.7889 407.444 92.8699C407.926 93.6386 407.951 94.5002 407.822 95.4358C407.589 97.1162 407.986 98.4714 409.025 99.8597L402.769 84.8166ZM393.047 62.8723L392.551 62.9336C392.506 62.5658 392.462 62.1994 392.419 61.8342C392.233 60.2739 392.05 58.7373 391.743 57.2246L391.742 57.2242C391.648 56.757 391.454 56.4643 391.232 56.2855C391.008 56.1048 390.715 56.0079 390.368 56.0054L390.365 56.0053C389.663 55.9965 388.958 56.5048 388.719 57.3956L388.718 57.3978L388.718 57.3978C388.676 57.5541 388.659 57.7341 388.655 57.952C388.654 58.0478 388.654 58.1445 388.655 58.2481C388.655 58.2619 388.655 58.2758 388.655 58.2899C388.656 58.4067 388.656 58.5318 388.652 58.6577L388.652 58.6593C388.636 59.0746 388.629 59.5002 388.621 59.9313C388.605 60.8644 388.588 61.8234 388.49 62.7605C388.389 63.7515 388.244 64.7438 388.101 65.7231C388.055 66.0423 388.008 66.3601 387.964 66.676C387.781 67.9698 387.626 69.2446 387.594 70.5174C387.524 73.4178 387.099 76.2158 386.49 79.0142C386.327 79.7688 386.382 80.5844 386.442 81.4649C386.45 81.5844 386.458 81.705 386.465 81.8268L386.466 81.8273C386.53 82.8622 387.127 83.5581 388.121 84.107C388.85 84.5068 389.387 85.0009 389.621 85.6696C389.854 86.3352 389.749 87.0654 389.439 87.8527C389.273 88.2818 389.076 88.6954 388.889 89.0904L388.882 89.1057C388.689 89.5112 388.506 89.8978 388.353 90.2941L388.353 90.2944C387.836 91.6321 387.774 92.9386 388.445 94.1353L388.445 94.136C389.352 95.7609 389.369 97.3258 388.876 99.0429C388.527 100.266 388.386 101.634 388.548 102.868L388.548 102.868C388.774 104.599 388.791 106.288 388.582 108.001L388.582 108.003C388.497 108.687 388.426 109.323 388.504 109.913C388.567 110.381 388.759 110.874 389.021 111.159C389.58 111.762 390.28 111.97 390.898 111.862C391.512 111.754 392.1 111.325 392.418 110.54C392.825 109.529 392.997 108.341 393.016 107.202L393.016 107.202C393.048 105.309 393.431 103.573 394.205 101.839L394.205 101.838C394.639 100.868 394.838 99.7818 395.046 98.6432C395.084 98.4357 395.123 98.2265 395.163 98.016C395.26 97.493 395.268 96.9856 395.276 96.5021C395.279 96.2807 395.283 96.0643 395.295 95.8537L395.347 94.9274L396.092 95.4805C396.221 95.576 396.369 95.6832 396.528 95.7976C396.798 95.9924 397.098 96.2085 397.379 96.4248C397.379 96.425 397.379 96.4251 397.379 96.4252L397.074 96.8214L393.047 62.8723ZM393.047 62.8723C393.003 62.5096 392.959 62.1465 392.916 61.7834C392.73 60.2216 392.544 58.6598 392.232 57.125L393.047 62.8723ZM393.047 62.8723L392.551 62.9332C392.565 63.0475 392.576 63.1714 392.587 63.3026C392.648 64.0333 392.727 64.9892 393.564 65.7608L393.98 66.1448L394.31 65.6843C394.391 65.5703 394.465 65.4658 394.534 65.3679C394.683 65.1558 394.81 64.9749 394.949 64.7964L394.95 64.7953C395.349 64.282 395.739 63.7678 396.126 63.2563C397.066 62.0161 397.993 60.7922 399.011 59.639C399.684 58.8781 400.254 58.544 400.823 58.465C401.406 58.3842 402.092 58.5546 403.032 59.0357L403.033 59.0361C404.335 59.7008 405.756 60.0767 407.31 59.7265L407.311 59.7263C408.799 59.3877 410.042 59.8325 411.175 60.8933L393.047 62.8723ZM412.054 80.6906L412.025 80.7063C411.584 80.9454 411.122 81.1962 410.642 81.2885L412.054 80.6906ZM412.054 80.6906C413.584 79.8639 414.586 78.5387 415.46 77.0761L412.054 80.6906ZM406.509 113.286C406.212 112.499 406.197 111.523 406.244 110.542L406.509 113.286ZM402.341 75.027C402.498 75.6881 402.142 76.5619 401.795 77.216C401.513 77.7421 401.11 78.2006 400.687 78.6812C400.5 78.8929 400.31 79.1088 400.125 79.3367C399.998 79.2474 399.876 79.1751 399.765 79.1093L402.341 75.027ZM402.341 75.027L402.828 74.9118C402.586 73.8908 402.482 73.0004 402.675 72.1987C402.863 71.4203 403.346 70.6652 404.41 69.9445L405.562 69.1645L404.177 69.0328C403.393 68.9582 402.747 68.9144 402.209 68.9322C401.669 68.9501 401.203 69.0305 400.796 69.2294C399.966 69.6351 399.544 70.4557 399.083 71.5987L399.083 71.5999C398.83 72.2307 398.508 72.7178 398.084 73.0892C397.66 73.4601 397.108 73.7391 396.359 73.9136L395.831 74.0363M402.341 75.027L395.831 74.0363M395.831 74.0363L395.996 74.5522M395.831 74.0363L395.996 74.5522M395.996 74.5522C396.052 74.7294 396.085 74.8895 396.122 75.0676M395.996 74.5522L396.122 75.0676M396.122 75.0676C396.145 75.1792 396.169 75.2979 396.202 75.4322M396.122 75.0676L396.202 75.4322M396.202 75.4322C396.271 75.7149 396.387 76.1132 396.7 76.3714L396.202 75.4322Z" fill="#1ABED6" stroke="black"/>
<path d="M381.87 100.039C382.941 98.5419 383.731 96.7752 383.232 94.7207C382.758 92.77 381.693 91.1539 380.476 89.6721M381.87 100.039L381.463 99.7482M381.87 100.039L381.463 99.7483C381.463 99.7483 381.463 99.7483 381.463 99.7482M381.87 100.039C380.078 102.545 378.105 104.956 375.945 107.139C375.077 108.016 373.936 108.626 372.799 109.235C372.349 109.476 371.899 109.717 371.467 109.974C371.168 110.152 370.743 110.28 370.412 110.218C369.285 110.006 368.235 110.263 367.179 110.523C366.831 110.608 366.482 110.694 366.129 110.763M381.463 99.7482C382.498 98.3005 383.195 96.6865 382.746 94.8388L382.746 94.8388C382.298 92.9948 381.287 91.4478 380.09 89.9902M381.463 99.7482C379.683 102.236 377.727 104.626 375.589 106.787C375.031 107.351 374.34 107.806 373.575 108.241C373.245 108.429 372.908 108.61 372.564 108.794C372.511 108.822 372.457 108.851 372.403 108.88C372.006 109.093 371.603 109.311 371.211 109.544L371.211 109.544C370.969 109.688 370.671 109.758 370.505 109.726L370.504 109.726C369.668 109.569 368.884 109.647 368.147 109.789C367.781 109.86 367.418 109.949 367.069 110.035L367.065 110.036C366.713 110.122 366.374 110.205 366.033 110.272M380.09 89.9902C380.09 89.9903 380.09 89.9904 380.09 89.9906L380.476 89.6721M380.09 89.9902C380.09 89.99 380.089 89.9898 380.089 89.9896L380.476 89.6721M380.09 89.9902C379.481 89.2536 379.071 88.4954 378.935 87.6739C378.798 86.8464 378.948 86.007 379.368 85.1264M380.476 89.6721L379.368 85.1251C379.368 85.1255 379.368 85.126 379.368 85.1264M379.368 85.1264C379.382 85.0951 379.397 85.0638 379.412 85.0326M379.368 85.1264L379.412 85.0326M366.033 110.272C366.033 110.272 366.034 110.272 366.034 110.272L366.129 110.763M366.033 110.272C365.165 110.44 364.569 110.38 364.111 110.149C363.65 109.917 363.246 109.471 362.85 108.694M366.033 110.272L366.129 110.763M366.129 110.763C364.274 111.122 363.244 110.571 362.405 108.921M362.85 108.694C362.85 108.694 362.85 108.694 362.85 108.695L362.405 108.921M362.85 108.694C362.515 108.033 362.045 107.739 361.491 107.495L361.49 107.494C360.672 107.139 359.885 106.69 359.112 106.202L359.111 106.202C359.072 106.177 359.032 106.152 358.992 106.126C358.067 105.543 357.006 104.874 355.53 105.258M362.85 108.694L362.405 108.921M362.405 108.921C362.142 108.404 361.79 108.173 361.29 107.953C360.441 107.583 359.629 107.12 358.846 106.625C358.817 106.607 358.788 106.589 358.759 106.571C357.809 105.973 356.918 105.413 355.655 105.742M355.53 105.258C355.53 105.258 355.53 105.257 355.531 105.257L355.655 105.742M355.53 105.258C355.106 105.366 354.722 105.292 354.407 105.084C354.086 104.872 353.805 104.498 353.65 103.959L353.65 103.959C353.44 103.233 353.362 102.497 353.286 101.776C353.254 101.477 353.223 101.181 353.183 100.889M355.53 105.258C355.529 105.258 355.529 105.258 355.529 105.258L355.655 105.742M355.655 105.742C354.54 106.027 353.534 105.363 353.17 104.098C352.947 103.328 352.861 102.519 352.783 101.779C352.75 101.472 352.719 101.176 352.68 100.9M353.183 100.889C353.22 100.489 353.252 100.116 353.282 99.7593C353.347 98.9943 353.406 98.309 353.497 97.6205L353.497 97.6202C353.857 94.893 353.544 92.3069 351.722 89.9604L351.722 89.9601C350.585 88.4972 350.667 86.0669 352.043 84.4351C353.289 82.9611 353.929 81.3605 354.222 79.5411L354.222 79.5403C354.665 76.7586 356.426 74.9191 358.799 73.4061L358.8 73.4059C359.418 73.0109 359.929 72.4406 360.359 71.9373L360.359 71.9369C360.838 71.3745 361.3 70.7833 361.755 70.2022C361.966 69.9324 362.175 69.6647 362.383 69.4031C363.049 68.5678 363.722 67.7741 364.474 67.0782L353.183 100.889ZM353.183 100.889C353.181 100.908 353.179 100.928 353.177 100.947L352.68 100.9M353.183 100.889C353.18 100.869 353.177 100.849 353.175 100.83L352.68 100.9M353.183 100.889L353.002 97.5547C352.909 98.2548 352.849 98.9591 352.783 99.7315C352.751 100.103 352.718 100.49 352.68 100.9M380.636 82.0102L380.637 82.0087C381.363 79.3963 381.3 76.8646 380.018 74.4435L380.018 74.4433C379.691 73.8262 379.547 73.1054 379.482 72.4677C379.349 71.2635 378.946 70.2962 378.079 69.4415L378.079 69.4412C376.409 67.79 374.64 66.4446 372.454 65.6734C369.457 64.6214 366.745 64.9798 364.474 67.0781L380.636 82.0102ZM380.636 82.0102C380.356 83.0313 379.891 84.0166 379.412 85.0326M380.636 82.0102L379.412 85.0326M369.495 94.7848L369.495 94.7855C369.875 95.5721 370.093 96.0489 370.172 96.5397C370.242 96.9736 370.198 97.4072 370.135 98.0325C370.127 98.1071 370.12 98.1844 370.112 98.2648L370.071 98.6735L369.663 98.7135C368.697 98.8078 367.681 98.9053 366.777 98.9867L366.475 99.0139L366.311 98.759C366.05 98.3528 365.801 97.9622 365.557 97.582C365.097 96.863 364.661 96.1813 364.219 95.5024C363.676 94.6791 363.104 94.1867 362.251 94.2275L362.25 94.2275C361.727 94.2514 361.296 94.1058 360.984 93.7756C360.695 93.4697 360.567 93.0649 360.494 92.6982C360.427 92.3615 360.365 92.0233 360.304 91.6897L360.29 91.6098C360.224 91.2487 360.158 90.8927 360.086 90.54L360.576 90.4396M369.495 94.7848L363.439 80.4838C363.598 81.4284 363.533 82.2286 363.272 82.9367C363.011 83.6461 362.54 84.2972 361.836 84.923C360.149 86.4221 359.64 88.3745 360.086 90.5405L360.576 90.4396M369.495 94.7848C368.703 93.1478 368.725 91.54 369.406 89.8666L368.943 89.6782L369.406 89.8674C369.468 89.7143 369.539 89.5527 369.611 89.3857C369.771 89.0164 369.943 88.6205 370.07 88.2309C370.273 87.616 370.356 87.0547 370.176 86.5253C369.997 85.9967 369.591 85.6019 369.062 85.2364M369.495 94.7848L369.062 85.2364M360.576 90.4396C360.655 90.8243 360.726 91.2117 360.796 91.5989C360.857 91.9336 360.918 92.2682 360.985 92.601M360.576 90.4396L360.985 92.601M360.985 92.601C361.119 93.2771 361.403 93.7657 362.227 93.7281L360.985 92.601ZM366.877 76.2613L366.639 77.2878C366.574 77.5664 366.508 77.8421 366.443 78.1162C366.269 78.8485 366.097 79.5689 365.956 80.2985L365.956 80.3002C365.771 81.2369 365.877 82.0186 366.196 82.6881C366.518 83.3638 367.076 83.9624 367.854 84.4948L366.877 76.2613ZM366.877 76.2613L365.931 76.7261M366.877 76.2613L365.931 76.7261M365.931 76.7261C365.226 77.0726 364.528 77.5176 364.042 78.1242M365.931 76.7261L364.042 78.1242M364.042 78.1242C363.54 78.7503 363.28 79.5321 363.439 80.4837L364.042 78.1242ZM369.062 85.2364C368.849 85.0881 368.628 84.96 368.426 84.8434L368.415 84.8366C368.212 84.7194 368.028 84.6133 367.855 84.4953L369.062 85.2364Z" fill="#1ABED6" stroke="black"/>
<mask id="path-9-inside-2_107_31" fill="white">
<path d="M351.771 136.53C351.971 133.896 351.243 131.582 349.804 129.392C348.337 127.163 347.603 124.754 348.709 122.098L348.884 121.493C349.533 119.1 349.236 116.889 347.473 115.054C346.149 113.673 345.787 112.088 346.174 110.265C346.685 107.87 346.517 105.649 345.078 103.501C343.833 101.637 343.617 99.5792 344.607 97.3742C345.444 95.5233 345.99 93.5244 346.52 91.5546C346.933 90.0198 346.936 88.3946 346.358 86.9008C345.89 85.6824 346.012 84.5764 346.302 83.3771C346.611 82.1121 346.783 80.8059 346.952 79.5123C347.083 78.5166 346.752 77.6363 346.012 76.9531C345.038 76.0578 344.701 74.9427 344.863 73.6742C345.057 72.2176 345.337 70.777 344.579 69.374C344.445 69.1297 344.523 68.754 344.545 68.4405C344.732 65.91 344.095 63.5545 343.105 61.2617C342.537 59.94 342.297 58.5496 342.447 57.112C342.734 54.3216 342.559 51.5372 342.076 48.803C341.554 45.8622 340.733 42.9805 340.115 40.0552C339.899 39.0435 339.759 37.9791 339.822 36.9548C339.949 34.8657 340.199 32.78 340.477 30.7004C340.815 28.1944 341.426 25.7642 342.503 23.4528C343.537 21.2167 344.495 18.943 345.454 16.6722C345.797 15.8516 346.09 15.0029 346.297 14.1382C346.547 13.0983 346.534 12.049 345.907 11.1035C345.073 9.8475 343.974 9.61275 342.881 10.6651C341.992 11.5324 341.149 12.5225 340.552 13.606C339.379 15.7357 338.03 17.7085 336.403 19.5098C335.27 20.7658 334.786 22.263 334.717 23.973C334.589 27.296 333.833 30.4095 331.433 32.924C330.749 33.6413 330.15 34.4493 329.598 35.276C329.042 36.0966 328.458 36.9453 328.142 37.8692C327.39 40.0456 326.572 42.2381 326.188 44.4993C325.679 47.5089 324.892 50.4222 324.096 53.36C323.435 55.7998 322.304 57.8042 320.6 59.5648C319.52 60.6798 318.764 62.0015 318.293 63.4607C317.727 65.2083 317.234 66.9749 316.763 68.751C316.55 69.5591 316.403 70.3953 316.326 71.2249C315.963 75.1961 315.676 79.1742 315.274 83.1358C315.177 84.0753 315.262 85.1186 314.612 85.9704L314.334 85.7266C313.298 84.295 313.173 82.6383 313.013 80.9469C312.645 76.9817 312.242 73.0261 312.401 69.0329C312.448 67.8271 312.401 66.6182 312.438 65.4124C312.47 64.4258 312.058 63.6929 311.314 63.1041C311.031 62.8819 310.737 62.6752 310.409 62.4304C310.468 61.688 310.527 60.9582 310.584 60.2319C310.718 58.4593 310.478 56.812 309.335 55.3243C308.926 54.7981 308.748 53.965 308.755 53.2758C308.77 51.4971 308.935 49.7149 309.077 47.9388C309.186 46.4666 308.658 45.2703 307.634 44.2591C307.372 44.0053 307.031 43.7986 306.844 43.5011C306.551 43.0377 306.126 42.502 306.154 42.0199C306.244 40.3005 306.394 38.5684 306.728 36.8836C306.99 35.5553 307.593 34.2993 307.971 32.9902C308.651 30.6221 309.363 28.2641 309.9 25.862C310.175 24.6341 309.566 23.7758 308.535 23.3099C307.549 22.8554 306.724 22.9648 305.935 24.0457C304.576 25.9001 303.306 27.8323 302.151 29.8146C301.642 30.6944 301.433 31.7718 301.205 32.787C300.827 34.491 300.421 36.1854 299.154 37.4755C297.783 38.8724 297.034 40.5728 296.547 42.4302C296.469 42.7372 296.312 43.0251 296.131 43.47C295.276 41.259 294.926 41.0428 293.072 41.4872C293.006 41.1868 292.981 40.8703 292.866 40.5914C292.351 39.3419 291.371 39.1478 290.446 40.1465C290.059 40.5603 289.666 41.0358 289.475 41.559C288.76 43.5292 288.039 45.5025 287.48 47.5159C286.925 49.5359 286.644 51.6315 286.104 53.6545C284.911 58.1082 284.034 62.6556 282.12 66.8966C281.886 67.4133 281.798 68.0022 281.692 68.5659C281.137 71.6011 281.221 74.6202 281.861 77.6363C282.626 81.2253 282.551 84.8332 281.992 88.4417C281.636 90.7747 280.272 92.5754 278.802 94.3014C276.473 97.0291 275.455 100.167 275.745 103.759C275.885 105.507 276.254 107.168 276.956 108.774C278.175 111.549 278.624 114.389 277.522 117.331C277.337 117.82 277.203 118.34 277.141 118.856C276.975 120.159 276.925 121.437 277.515 122.712C277.85 123.442 277.999 124.318 278.005 125.133C278.027 128.337 277.952 131.538 277.946 134.742C277.943 135.308 278.049 135.891 278.202 136.44C278.418 137.235 278.879 137.887 279.726 138.083C280.643 138.296 281.206 137.695 281.68 137.047C282.529 135.885 283.128 134.601 283.272 133.157C283.535 130.56 284.384 128.162 285.395 125.784C285.851 124.701 286.039 123.457 286.116 122.273C286.266 119.95 285.757 117.682 285.276 115.421C285.158 114.866 285.071 114.261 285.167 113.714C285.645 111.017 286.672 108.521 288.717 106.68C290.4 105.154 291.099 103.431 290.809 101.233C290.743 100.71 290.784 100.172 290.674 99.6609C290.328 98.0794 290.534 96.5541 290.887 94.9941C291.368 92.8488 291.911 90.6909 292.089 88.5079C292.385 84.8834 293.003 81.3386 293.853 77.8179C294.446 75.3746 294.455 72.9504 293.587 70.5357C292.744 68.1867 292.819 65.8067 293.634 63.4296C294.04 62.2423 294.265 60.9958 294.655 59.8025C295.086 58.4808 295.386 57.0779 296.61 55.7341C296.709 56.4955 296.847 56.9871 296.825 57.4661C296.741 59.0386 296.631 60.6076 296.475 62.1676C296.279 64.194 296.71 65.9321 298.502 67.1193C299.298 67.642 299.707 68.3974 299.86 69.3244C300.019 70.2548 300.484 71.1316 301.28 71.4983C303.166 72.3721 303.481 73.9972 303.656 75.7608L303.703 76.2303C304.075 79.3683 304.624 82.4286 306.179 85.2721C306.807 86.4188 306.891 87.8749 307.168 89.1996C307.356 90.0674 307.278 91.0229 307.609 91.8215C308.261 93.409 308.152 94.9851 307.987 96.6193C307.646 100.099 308.583 102.11 311.655 102.721C312.414 102.871 312.838 103.335 312.91 104.121C312.988 104.901 313.091 105.68 313.191 106.46C313.453 108.496 313.769 110.526 315.036 112.235C315.776 113.235 316.722 113.812 318.018 113.511C319.086 113.26 319.969 112.167 320.088 110.836C320.2 109.633 320.297 108.418 320.228 107.219C320.041 103.949 320.997 101.014 322.548 98.1953C322.992 97.3902 323.341 96.4633 323.466 95.5544C323.691 93.8976 323.769 92.2132 323.819 90.5369C323.909 87.5118 324.453 84.6838 326.878 82.5695L327.194 82.2184C329.373 79.2244 330.606 75.9891 329.841 72.2055C329.257 69.2993 329.76 66.4678 330.531 63.6679C330.681 63.1196 330.906 62.5904 331.1 62.0517C331.365 62.6973 331.365 63.2736 331.365 63.8494C331.368 65.6286 331.911 67.1414 333.438 68.2033C333.819 68.4691 334.141 68.8328 334.449 69.1894C335.205 70.0697 335.607 71.0624 335.277 72.2401C334.971 73.3517 334.662 74.4607 334.324 75.5662C333.669 77.7181 332.71 79.8288 332.395 82.0273C331.949 85.1467 332.102 88.3193 333.313 91.3354C333.56 91.9589 333.81 92.6255 333.85 93.2867C333.931 94.806 333.975 96.3374 333.878 97.8532C333.544 102.964 334.933 107.499 338.227 111.427C339.083 112.442 339.157 113.51 338.839 114.798C338.405 116.564 338.115 118.384 337.977 120.197C337.825 122.146 338.627 123.674 340.562 124.419L340.831 124.702C340.831 125.691 340.84 126.74 340.825 127.786C340.809 129.176 341.268 130.376 342.317 131.288C343.141 132.008 343.987 132.738 344.92 133.302C345.873 133.881 346.16 134.623 346.022 135.676C345.891 136.662 345.842 137.658 345.776 138.654C345.723 139.49 345.932 140.226 346.738 140.649C347.484 141.04 348.03 140.586 348.589 140.182L348.891 140.163L349.091 140.383C350.006 141.307 350.596 141.463 351.405 141C352.21 140.536 352.378 139.86 352.085 138.682C351.909 137.98 351.718 137.235 351.771 136.53Z"/>
</mask>
<path d="M351.771 136.53C351.971 133.896 351.243 131.582 349.804 129.392C348.337 127.163 347.603 124.754 348.709 122.098L348.884 121.493C349.533 119.1 349.236 116.889 347.473 115.054C346.149 113.673 345.787 112.088 346.174 110.265C346.685 107.87 346.517 105.649 345.078 103.501C343.833 101.637 343.617 99.5792 344.607 97.3742C345.444 95.5233 345.99 93.5244 346.52 91.5546C346.933 90.0198 346.936 88.3946 346.358 86.9008C345.89 85.6824 346.012 84.5764 346.302 83.3771C346.611 82.1121 346.783 80.8059 346.952 79.5123C347.083 78.5166 346.752 77.6363 346.012 76.9531C345.038 76.0578 344.701 74.9427 344.863 73.6742C345.057 72.2176 345.337 70.777 344.579 69.374C344.445 69.1297 344.523 68.754 344.545 68.4405C344.732 65.91 344.095 63.5545 343.105 61.2617C342.537 59.94 342.297 58.5496 342.447 57.112C342.734 54.3216 342.559 51.5372 342.076 48.803C341.554 45.8622 340.733 42.9805 340.115 40.0552C339.899 39.0435 339.759 37.9791 339.822 36.9548C339.949 34.8657 340.199 32.78 340.477 30.7004C340.815 28.1944 341.426 25.7642 342.503 23.4528C343.537 21.2167 344.495 18.943 345.454 16.6722C345.797 15.8516 346.09 15.0029 346.297 14.1382C346.547 13.0983 346.534 12.049 345.907 11.1035C345.073 9.8475 343.974 9.61275 342.881 10.6651C341.992 11.5324 341.149 12.5225 340.552 13.606C339.379 15.7357 338.03 17.7085 336.403 19.5098C335.27 20.7658 334.786 22.263 334.717 23.973C334.589 27.296 333.833 30.4095 331.433 32.924C330.749 33.6413 330.15 34.4493 329.598 35.276C329.042 36.0966 328.458 36.9453 328.142 37.8692C327.39 40.0456 326.572 42.2381 326.188 44.4993C325.679 47.5089 324.892 50.4222 324.096 53.36C323.435 55.7998 322.304 57.8042 320.6 59.5648C319.52 60.6798 318.764 62.0015 318.293 63.4607C317.727 65.2083 317.234 66.9749 316.763 68.751C316.55 69.5591 316.403 70.3953 316.326 71.2249C315.963 75.1961 315.676 79.1742 315.274 83.1358C315.177 84.0753 315.262 85.1186 314.612 85.9704L314.334 85.7266C313.298 84.295 313.173 82.6383 313.013 80.9469C312.645 76.9817 312.242 73.0261 312.401 69.0329C312.448 67.8271 312.401 66.6182 312.438 65.4124C312.47 64.4258 312.058 63.6929 311.314 63.1041C311.031 62.8819 310.737 62.6752 310.409 62.4304C310.468 61.688 310.527 60.9582 310.584 60.2319C310.718 58.4593 310.478 56.812 309.335 55.3243C308.926 54.7981 308.748 53.965 308.755 53.2758C308.77 51.4971 308.935 49.7149 309.077 47.9388C309.186 46.4666 308.658 45.2703 307.634 44.2591C307.372 44.0053 307.031 43.7986 306.844 43.5011C306.551 43.0377 306.126 42.502 306.154 42.0199C306.244 40.3005 306.394 38.5684 306.728 36.8836C306.99 35.5553 307.593 34.2993 307.971 32.9902C308.651 30.6221 309.363 28.2641 309.9 25.862C310.175 24.6341 309.566 23.7758 308.535 23.3099C307.549 22.8554 306.724 22.9648 305.935 24.0457C304.576 25.9001 303.306 27.8323 302.151 29.8146C301.642 30.6944 301.433 31.7718 301.205 32.787C300.827 34.491 300.421 36.1854 299.154 37.4755C297.783 38.8724 297.034 40.5728 296.547 42.4302C296.469 42.7372 296.312 43.0251 296.131 43.47C295.276 41.259 294.926 41.0428 293.072 41.4872C293.006 41.1868 292.981 40.8703 292.866 40.5914C292.351 39.3419 291.371 39.1478 290.446 40.1465C290.059 40.5603 289.666 41.0358 289.475 41.559C288.76 43.5292 288.039 45.5025 287.48 47.5159C286.925 49.5359 286.644 51.6315 286.104 53.6545C284.911 58.1082 284.034 62.6556 282.12 66.8966C281.886 67.4133 281.798 68.0022 281.692 68.5659C281.137 71.6011 281.221 74.6202 281.861 77.6363C282.626 81.2253 282.551 84.8332 281.992 88.4417C281.636 90.7747 280.272 92.5754 278.802 94.3014C276.473 97.0291 275.455 100.167 275.745 103.759C275.885 105.507 276.254 107.168 276.956 108.774C278.175 111.549 278.624 114.389 277.522 117.331C277.337 117.82 277.203 118.34 277.141 118.856C276.975 120.159 276.925 121.437 277.515 122.712C277.85 123.442 277.999 124.318 278.005 125.133C278.027 128.337 277.952 131.538 277.946 134.742C277.943 135.308 278.049 135.891 278.202 136.44C278.418 137.235 278.879 137.887 279.726 138.083C280.643 138.296 281.206 137.695 281.68 137.047C282.529 135.885 283.128 134.601 283.272 133.157C283.535 130.56 284.384 128.162 285.395 125.784C285.851 124.701 286.039 123.457 286.116 122.273C286.266 119.95 285.757 117.682 285.276 115.421C285.158 114.866 285.071 114.261 285.167 113.714C285.645 111.017 286.672 108.521 288.717 106.68C290.4 105.154 291.099 103.431 290.809 101.233C290.743 100.71 290.784 100.172 290.674 99.6609C290.328 98.0794 290.534 96.5541 290.887 94.9941C291.368 92.8488 291.911 90.6909 292.089 88.5079C292.385 84.8834 293.003 81.3386 293.853 77.8179C294.446 75.3746 294.455 72.9504 293.587 70.5357C292.744 68.1867 292.819 65.8067 293.634 63.4296C294.04 62.2423 294.265 60.9958 294.655 59.8025C295.086 58.4808 295.386 57.0779 296.61 55.7341C296.709 56.4955 296.847 56.9871 296.825 57.4661C296.741 59.0386 296.631 60.6076 296.475 62.1676C296.279 64.194 296.71 65.9321 298.502 67.1193C299.298 67.642 299.707 68.3974 299.86 69.3244C300.019 70.2548 300.484 71.1316 301.28 71.4983C303.166 72.3721 303.481 73.9972 303.656 75.7608L303.703 76.2303C304.075 79.3683 304.624 82.4286 306.179 85.2721C306.807 86.4188 306.891 87.8749 307.168 89.1996C307.356 90.0674 307.278 91.0229 307.609 91.8215C308.261 93.409 308.152 94.9851 307.987 96.6193C307.646 100.099 308.583 102.11 311.655 102.721C312.414 102.871 312.838 103.335 312.91 104.121C312.988 104.901 313.091 105.68 313.191 106.46C313.453 108.496 313.769 110.526 315.036 112.235C315.776 113.235 316.722 113.812 318.018 113.511C319.086 113.26 319.969 112.167 320.088 110.836C320.2 109.633 320.297 108.418 320.228 107.219C320.041 103.949 320.997 101.014 322.548 98.1953C322.992 97.3902 323.341 96.4633 323.466 95.5544C323.691 93.8976 323.769 92.2132 323.819 90.5369C323.909 87.5118 324.453 84.6838 326.878 82.5695L327.194 82.2184C329.373 79.2244 330.606 75.9891 329.841 72.2055C329.257 69.2993 329.76 66.4678 330.531 63.6679C330.681 63.1196 330.906 62.5904 331.1 62.0517C331.365 62.6973 331.365 63.2736 331.365 63.8494C331.368 65.6286 331.911 67.1414 333.438 68.2033C333.819 68.4691 334.141 68.8328 334.449 69.1894C335.205 70.0697 335.607 71.0624 335.277 72.2401C334.971 73.3517 334.662 74.4607 334.324 75.5662C333.669 77.7181 332.71 79.8288 332.395 82.0273C331.949 85.1467 332.102 88.3193 333.313 91.3354C333.56 91.9589 333.81 92.6255 333.85 93.2867C333.931 94.806 333.975 96.3374 333.878 97.8532C333.544 102.964 334.933 107.499 338.227 111.427C339.083 112.442 339.157 113.51 338.839 114.798C338.405 116.564 338.115 118.384 337.977 120.197C337.825 122.146 338.627 123.674 340.562 124.419L340.831 124.702C340.831 125.691 340.84 126.74 340.825 127.786C340.809 129.176 341.268 130.376 342.317 131.288C343.141 132.008 343.987 132.738 344.92 133.302C345.873 133.881 346.16 134.623 346.022 135.676C345.891 136.662 345.842 137.658 345.776 138.654C345.723 139.49 345.932 140.226 346.738 140.649C347.484 141.04 348.03 140.586 348.589 140.182L348.891 140.163L349.091 140.383C350.006 141.307 350.596 141.463 351.405 141C352.21 140.536 352.378 139.86 352.085 138.682C351.909 137.98 351.718 137.235 351.771 136.53Z" fill="#1ABED6" stroke="black" stroke-width="2" mask="url(#path-9-inside-2_107_31)"/>
<path d="M180.157 55.1214L180.155 55.1217C179.875 55.1687 179.601 55.2091 179.333 55.2486C178.47 55.376 177.668 55.4943 176.925 55.794L176.924 55.7943C175.71 56.2818 174.513 56.9273 173.496 57.7196C170.547 60.0176 167.66 62.4023 164.768 64.7911C164.553 64.9687 164.338 65.1463 164.123 65.3239C164.026 65.4041 163.922 65.4949 163.813 65.5904C163.541 65.8282 163.237 66.0947 162.927 66.2966C162.458 66.6022 161.9 66.8222 161.199 66.7553C160.416 66.6816 159.765 66.9804 159.11 67.5083L159.108 67.5093C158.625 67.8959 158.129 68.3091 157.629 68.7265C156.989 69.2602 156.34 69.8007 155.7 70.3004L155.7 70.3006C155.154 70.7263 154.543 71.1422 153.874 71.4352M180.157 55.1214L150.262 61.337C151.141 62.812 150.891 64.3002 150.604 66.0082C150.586 66.1207 150.567 66.2343 150.548 66.3488L150.548 66.3494C150.459 66.8888 150.24 67.4409 149.966 67.9736L149.965 67.9753C149.181 69.5085 149.248 71.0176 150.05 72.4357L150.26 72.8072L150.66 72.6579C150.96 72.5461 151.265 72.4362 151.573 72.3255C152.341 72.0492 153.124 71.7673 153.874 71.4352M180.157 55.1214C180.379 55.0835 180.546 55.114 180.677 55.181C180.808 55.249 180.942 55.3752 181.057 55.5952L181.058 55.5966C181.164 55.797 181.165 55.9529 181.125 56.0885C181.081 56.2409 180.973 56.4061 180.801 56.5776L180.799 56.579C180.681 56.6977 180.563 56.8163 180.445 56.9347C179.195 58.1916 177.96 59.4327 176.631 60.5593L176.631 60.5595C176.613 60.5751 176.594 60.5906 176.576 60.6061C175.912 61.1698 175.205 61.7697 174.767 62.6932L174.766 62.6941C173.792 64.7587 172.305 66.2984 170.236 67.2578M180.157 55.1214L176.955 60.9407M153.874 71.4352C153.874 71.4351 153.875 71.4349 153.875 71.4348L153.673 70.9776L153.873 71.4356C153.873 71.4355 153.874 71.4354 153.874 71.4352ZM155.507 88.361C155.339 88.0825 155.175 87.8016 155.011 87.5209C154.678 86.9489 154.344 86.3773 153.98 85.8269C152.881 84.1576 153.49 82.1938 155.376 81.467C155.926 81.2569 156.478 81.0531 157.03 80.8494C157.654 80.6188 158.278 80.3883 158.9 80.1488C162.234 78.8678 164.548 76.6943 165.413 73.0708C165.918 70.9696 167.002 69.1869 169.187 68.3603C169.436 68.2663 169.67 68.1331 169.903 68C170.081 67.8982 170.26 67.7964 170.445 67.7122M155.507 88.361L155.076 88.6153C155.076 88.6159 155.077 88.6166 155.077 88.6172M155.507 88.361L155.078 88.6188C155.078 88.6183 155.077 88.6177 155.077 88.6172M155.507 88.361C155.563 88.4564 155.617 88.5529 155.672 88.6494C155.798 88.8731 155.924 89.0967 156.074 89.307C156.624 90.0747 157.178 90.8408 157.732 91.6073C158.712 92.9641 159.694 94.3222 160.658 95.6928M155.077 88.6172C154.902 88.3264 154.735 88.0397 154.57 87.7565C154.241 87.1921 153.92 86.6419 153.563 86.103L153.562 86.1019C152.937 85.1534 152.781 84.0897 153.082 83.1424C153.382 82.1943 154.124 81.4134 155.196 81.0005L155.197 80.9999C155.768 80.782 156.318 80.579 156.865 80.3772C157.479 80.1506 158.089 79.9254 158.72 79.6823L158.721 79.6821C161.932 78.4481 164.107 76.3879 164.926 72.9547L164.926 72.9538C165.455 70.7551 166.618 68.7976 169.01 67.8926L169.01 67.8925C169.191 67.8245 169.369 67.7285 169.574 67.612C169.6 67.5974 169.626 67.5823 169.653 67.567C169.829 67.4663 170.029 67.3522 170.236 67.2578M155.077 88.6172C155.123 88.6942 155.171 88.7791 155.221 88.8686C155.352 89.1013 155.501 89.3646 155.668 89.5981L155.668 89.5982C156.221 90.3696 156.775 91.1373 157.33 91.9044C158.309 93.2591 159.286 94.612 160.248 95.9804L160.658 95.6928M170.236 67.2578C170.236 67.2581 170.235 67.2583 170.235 67.2586L170.445 67.7122M170.236 67.2578C170.237 67.2575 170.238 67.2573 170.238 67.257L170.445 67.7122M170.445 67.7122C172.628 66.7005 174.198 65.0718 175.219 62.9074C175.61 62.0824 176.244 61.544 176.927 60.9641L176.955 60.9407M176.955 60.9407C178.3 59.7996 179.55 58.5435 180.798 57.2893M176.955 60.9407L180.798 57.2893M160.658 95.6928C161.323 96.6388 162.278 96.9649 163.333 97.1434L160.248 95.9804M160.658 95.6928L160.248 95.9804M160.248 95.9804C161.029 97.0909 162.15 97.4502 163.25 97.6364L163.251 97.6366C164.621 97.8657 165.491 98.2094 166.077 98.7663C166.658 99.3177 167.031 100.146 167.248 101.509C167.592 103.689 168.465 105.529 169.595 107.316C170.241 108.344 170.815 109.491 170.873 110.535C171.133 115.609 172.632 120.355 174.166 125.036L174.166 125.036C174.201 125.144 174.237 125.253 174.272 125.361C174.497 126.05 174.727 126.756 175 127.444C175.591 128.944 175.439 130.501 175.165 132.149L175.165 132.149C175.082 132.65 174.899 132.909 174.639 133.066C174.346 133.244 173.876 133.343 173.119 133.331L172.664 133.324L172.614 133.776C172.599 133.909 172.59 134.012 172.583 134.097C172.569 134.247 172.561 134.341 172.536 134.444L172.535 134.449C172.411 135.006 172.243 135.3 172.054 135.462C171.874 135.617 171.601 135.717 171.116 135.711C170.336 135.699 169.757 135.224 169.704 134.466L169.704 134.465C169.591 132.916 169.061 131.58 168.4 130.273L168.399 130.272M160.248 95.9804L168.399 130.272M150.161 51.5339L150.161 51.5328C150.687 49.5878 150.85 47.6385 150.456 45.6862L150.456 45.6851C150.255 44.6747 149.744 44.1038 149.174 43.8943C148.602 43.6838 147.831 43.7865 147.003 44.4162L147.001 44.4181L147.001 44.4181C146.732 44.6198 146.466 44.821 146.214 45.0114C146.153 45.0574 146.093 45.1027 146.034 45.1472L145.842 45.2918L145.61 45.2328C145.147 45.1155 144.8 45.0368 144.524 44.9985C144.248 44.9604 144.075 44.9679 143.951 44.9989C143.731 45.0539 143.531 45.213 143.123 45.8216L150.161 51.5339ZM150.161 51.5339C150.074 51.8584 149.967 52.1732 149.853 52.5062C149.814 52.6185 149.775 52.7328 149.736 52.8502C149.333 54.0359 149.064 55.2697 149.744 56.6808C149.87 56.9453 149.91 57.2879 149.914 57.7304C149.915 57.8569 149.913 57.9979 149.911 58.1462C149.906 58.4664 149.9 58.8206 149.927 59.1371M150.161 51.5339L149.927 59.1371M142.216 59.1142L142.216 59.1143C141.577 62.8314 140.733 66.5703 139.343 70.1567L139.343 70.1569C139.152 70.6477 139.024 71.1739 138.912 71.7314C138.872 71.928 138.833 72.1338 138.793 72.3433C138.724 72.7084 138.653 73.0847 138.571 73.4436C138.501 73.7571 138.434 74.0815 138.366 74.4113C138.213 75.1602 138.054 75.9368 137.828 76.6765C137.828 76.6767 137.828 76.677 137.828 76.6773L137.35 76.5313C137.106 77.3399 136.828 78.1386 136.55 78.938L142.216 59.1142ZM142.216 59.1142C142.572 57.0415 142.546 54.8754 142.52 52.7654C142.51 51.918 142.499 51.0796 142.514 50.26C142.522 49.8672 142.503 49.4696 142.486 49.0924C142.481 48.9963 142.477 48.9014 142.473 48.8083C142.453 48.3397 142.445 47.9011 142.492 47.477M142.216 59.1142L142.492 47.477M168.399 130.272C168.084 129.651 168 128.877 167.907 128.031C167.901 127.974 167.894 127.915 167.888 127.857C167.761 126.706 167.41 125.719 166.671 124.75L166.274 125.053M168.399 130.272L166.274 125.053M166.274 125.053L166.671 124.75C165.168 122.778 163.938 120.715 163.422 118.27M166.274 125.053L163.422 118.27M149.927 59.1371C149.94 59.2868 149.944 59.4469 149.947 59.6238M149.927 59.1371L149.947 59.6238M149.947 59.6238C149.947 59.6437 149.947 59.6638 149.948 59.6842M149.947 59.6238L149.948 59.6842M149.948 59.6842C149.95 59.8394 149.953 60.0074 149.962 60.1718M149.948 59.6842L149.962 60.1718M149.962 60.1718C149.983 60.5355 150.04 60.9653 150.261 61.3366L149.962 60.1718ZM142.492 47.477C142.56 46.9146 142.797 46.3069 143.123 45.8216L142.492 47.477ZM163.422 118.27C163.016 116.318 162.088 114.529 160.433 113.2L163.422 118.27ZM180.798 57.2893C180.916 57.1701 181.035 57.051 181.154 56.9319L180.798 57.2893ZM142.506 81.7308C142.512 81.7248 142.518 81.7189 142.524 81.7129L142.513 81.7014C142.511 81.7112 142.508 81.721 142.506 81.7308ZM142.077 81.449L142.061 81.445C142.059 81.4533 142.057 81.4616 142.055 81.4698C142.063 81.4629 142.07 81.4559 142.077 81.449ZM136.113 83.2486C136.043 82.675 136.057 82.0762 136.202 81.5809L142.404 118.049L141.927 117.897C141.927 117.898 141.927 117.898 141.927 117.898C141.665 118.719 141.006 119.51 140.296 120.244L140.295 120.245C139.989 120.562 139.757 120.632 139.588 120.621C139.404 120.61 139.151 120.496 138.829 120.151L138.828 120.15C138.234 119.517 137.747 118.924 137.454 118.268C137.168 117.628 137.057 116.906 137.26 115.993C137.345 115.611 137.424 115.234 137.503 114.861C137.822 113.34 138.126 111.895 138.778 110.521L138.778 110.52C139.042 109.96 139.226 109.355 139.339 108.755C139.951 105.508 140.539 102.258 141.116 99.0039C141.207 98.4933 141.301 97.9217 141.213 97.3555C141.12 96.7601 140.835 96.2024 140.244 95.6955L140.243 95.6947C139.919 95.4184 139.809 95.0765 139.831 94.6867C139.855 94.277 140.028 93.8241 140.275 93.4144C141.642 91.1541 141.991 88.7241 142.023 86.2416C142.03 85.7771 142.143 85.3197 142.271 84.8032C142.306 84.6602 142.343 84.5127 142.379 84.3592L142.379 84.356C142.518 83.7408 142.671 83.1324 142.824 82.5195C142.894 82.2421 142.964 81.9639 143.033 81.6836L143.123 81.3153L142.793 81.1289L142.421 80.9192L142.095 80.7351L141.827 80.9965C141.749 81.0723 141.662 81.1529 141.572 81.2374C141.344 81.4494 141.09 81.6865 140.878 81.9356L140.877 81.9365C140.47 82.4158 140.071 82.9105 139.677 83.3987C139.445 83.6871 139.214 83.9733 138.984 84.2528C138.738 84.549 138.5 84.7597 138.26 84.8721C138.039 84.976 137.792 85.0077 137.477 84.9019L137.477 84.9018C136.683 84.6363 136.214 84.0681 136.113 83.2486ZM144.521 110.719C144.411 111.229 144.299 111.703 144.108 112.116L160.433 113.2C159.2 112.208 158.415 111.054 158.305 109.453C158.122 106.747 156.858 104.428 155.659 102.231C155.531 101.996 155.403 101.762 155.278 101.529L155.264 101.503L155.247 101.479L154.888 100.966L154.864 100.932L154.835 100.902C154.631 100.695 154.401 100.489 154.186 100.296C154.084 100.204 153.985 100.115 153.893 100.03C153.594 99.753 153.34 99.4909 153.153 99.2043C152.965 98.9146 152.825 98.5763 152.686 98.1717C152.638 98.034 152.589 97.8821 152.536 97.7223C152.444 97.4386 152.343 97.1298 152.231 96.8299L152.028 96.291L151.523 96.5665C151.415 96.6257 151.324 96.6662 151.221 96.7118C151.158 96.74 151.09 96.7702 151.011 96.8081C150.838 96.8906 150.611 97.0112 150.44 97.2199C150.408 97.2593 150.375 97.2981 150.343 97.3364C149.93 97.8327 149.596 98.2345 149.201 98.4676C149.004 98.5841 148.802 98.6501 148.575 98.6564C148.345 98.6627 148.06 98.6084 147.698 98.4384L147.125 98.1694L146.996 98.7889C146.55 100.928 146.156 102.82 145.766 104.715C145.627 105.383 145.491 106.05 145.354 106.717C145.08 108.052 144.806 109.386 144.521 110.719Z" fill="#1ABED6" stroke="black"/>
<mask id="path-11-inside-3_107_31" fill="white">
<path d="M253.971 103.087C253.1 100.995 252.326 98.899 252.466 96.5596C252.563 94.9464 252.426 93.3213 252.485 91.7051C252.532 90.399 252.582 89.0707 252.872 87.8057C253.387 85.5631 254.065 83.352 254.711 81.1405C255.014 80.1102 254.949 79.1331 254.28 78.3065C253.331 77.1257 253.228 75.804 253.55 74.4386C253.95 72.7598 254.487 71.1095 254.93 69.4397C255.089 68.8418 255.27 68.2123 255.239 67.6044C255.192 66.5681 254.783 65.609 253.759 65.1867C252.666 64.7322 251.689 65.1551 250.94 65.9978C250.425 66.5776 249.888 67.2131 249.61 67.9244C249.116 69.1834 248.764 70.5081 248.439 71.8268C247.805 74.4106 247.23 77.0133 246.628 79.6036L246.419 80.1955C245.189 82.0995 244.762 84.2419 244.474 86.4439C244.328 87.5865 243.725 88.3389 242.654 88.9744C241.106 89.8989 239.663 91.0731 238.374 92.3411C237.15 93.5415 236.17 94.9911 235.09 96.3349C235.121 95.4174 235.071 94.4865 235.23 93.5976C235.786 90.5093 236.429 87.4335 237.025 84.3457C237.322 82.8048 237.644 81.2574 237.837 79.7009C237.934 78.8898 237.922 78.0005 237.691 77.227C237.403 76.2715 236.823 75.3852 235.652 75.3134C234.537 75.2382 233.776 75.8486 233.238 76.7731C233.057 77.0896 232.898 77.4247 232.76 77.7627C231.387 81.1801 230.022 84.6 228.561 88.2491C228.074 86.019 227.166 84.3994 224.671 84.9732C223.797 83.5165 223.582 82.0037 223.285 80.5225C223.048 79.3478 222.489 78.3707 221.674 77.5159C221.044 76.8548 220.245 76.8548 219.489 77.1337C218.718 77.4221 218.199 77.9764 218.199 78.9159C218.199 79.6959 218.078 80.4754 218.021 81.2584C217.927 82.558 217.771 83.8611 217.765 85.1608C217.762 86.5201 217.843 87.889 217.999 89.2418C218.233 91.2652 217 92.5935 215.945 94.2036C215.424 93.1382 214.902 92.2805 214.571 91.35C214.346 90.727 214.446 89.9977 214.303 89.3366C214.075 88.3153 213.731 87.3222 213.5 86.3014C213.238 85.1332 213.026 83.9524 212.826 82.7777C212.729 82.2079 212.757 81.6225 212.654 81.0582C212.155 78.3335 211.377 75.659 211.367 72.8496C211.364 71.9723 211.24 71.0674 211.015 70.2187C210.759 69.2637 210.05 68.7591 209.326 68.9251C208.399 69.1413 207.468 69.4543 206.969 70.3466C206.463 71.255 205.992 72.1975 205.636 73.1746C205.261 74.2054 205.039 75.2919 204.759 76.3568C204.565 77.1021 204.15 77.5626 203.326 77.522C201.818 77.4532 201.059 78.4018 200.522 79.6201C200.145 80.4849 199.876 81.3993 199.439 82.2325C198.287 84.4465 197.996 86.6987 198.949 89.0572C199.273 89.8617 199.348 90.6824 199.046 91.5095C198.006 94.3561 197.506 97.4068 195.82 100.016C195.486 100.533 195.193 101.159 195.143 101.761C195.056 102.778 194.818 104.041 195.283 104.805C196.123 106.161 196.283 107.508 196.242 108.986C196.23 109.296 196.274 109.622 196.346 109.923C196.589 110.887 197.344 111.576 198.171 111.62C199.083 111.664 199.645 111.194 199.986 110.01C200.238 109.146 200.541 108.347 201.212 107.69C201.993 106.919 202.159 105.904 201.775 104.911C201.466 104.097 201.699 103.493 202.146 102.872C202.484 102.406 202.886 101.971 203.152 101.47C203.408 100.978 203.679 100.417 203.676 99.8877C203.66 98.1216 204.606 96.8625 205.624 95.4937C205.98 95.766 206.193 96.0264 206.464 96.1232C207.71 96.5521 208.153 97.5889 208.5 98.7069C208.99 100.311 209.368 101.955 209.98 103.508C210.816 105.648 211.821 107.718 212.77 109.816L213.158 110.307C213.676 110.859 214.285 111.009 215.012 110.761C215.971 110.445 216.545 109.79 216.552 108.801C216.558 106.709 216.486 104.613 216.43 102.519C216.398 101.347 216.321 100.172 216.258 98.8193C217.36 99.4086 217.794 100.079 217.701 101.087C217.657 101.554 217.738 102.039 217.666 102.499C217.382 104.309 218.556 105.302 219.736 106.283C220.188 106.656 220.751 106.662 221.182 106.261C222.3 105.215 223.395 104.144 223.18 102.381C223.121 101.924 223.108 101.426 223.221 100.984C223.655 99.2893 223.496 97.6606 222.837 96.063C222.618 95.5368 222.522 95.0327 222.849 94.3907C223.611 95.0864 224.404 95.5774 224.869 96.2887C225.965 97.9425 226.933 99.684 227.888 101.425C228.644 102.8 229.284 104.235 230.017 105.622C230.401 106.345 230.97 106.918 231.875 106.834C232.793 106.746 233.408 106.251 233.664 105.318C233.823 104.733 234.057 104.169 234.288 103.508L234.491 103.733L234.554 104.197C234.681 106.339 235.84 107.658 237.797 108.382C238.481 108.632 239.149 108.933 239.78 109.287C242.34 110.724 245.24 110.188 247.067 107.912C247.354 107.555 247.626 107.185 248.031 106.656C248.203 107.452 248.34 108.056 248.456 108.661C248.756 110.155 249.483 111.41 250.57 112.447C251.594 113.424 252.989 113.497 254.164 112.698C255.197 111.993 255.743 111.085 255.634 109.779C255.435 107.45 254.861 105.232 253.971 103.087ZM204.081 89.0617C204.989 86.6345 205.845 84.3607 206.697 82.0835L207.103 82.1868C207.103 83.3831 206.931 84.611 207.15 85.7667C207.356 86.8311 207.984 87.8182 208.518 89.0612H204.081V89.0617ZM244.923 100.932C244.396 101.37 243.999 101.969 243.5 102.451C242.644 103.284 241.573 103.137 241.405 102.038C241.246 101.02 241.52 99.9203 241.689 98.8709C241.854 97.8432 242.279 97.1073 243.409 96.6534C244.418 96.2401 245.214 95.3036 246.378 94.3887C246.641 96.9202 247.052 99.1558 244.923 100.932Z"/>
</mask>
<path d="M253.971 103.087C253.1 100.995 252.326 98.899 252.466 96.5596C252.563 94.9464 252.426 93.3213 252.485 91.7051C252.532 90.399 252.582 89.0707 252.872 87.8057C253.387 85.5631 254.065 83.352 254.711 81.1405C255.014 80.1102 254.949 79.1331 254.28 78.3065C253.331 77.1257 253.228 75.804 253.55 74.4386C253.95 72.7598 254.487 71.1095 254.93 69.4397C255.089 68.8418 255.27 68.2123 255.239 67.6044C255.192 66.5681 254.783 65.609 253.759 65.1867C252.666 64.7322 251.689 65.1551 250.94 65.9978C250.425 66.5776 249.888 67.2131 249.61 67.9244C249.116 69.1834 248.764 70.5081 248.439 71.8268C247.805 74.4106 247.23 77.0133 246.628 79.6036L246.419 80.1955C245.189 82.0995 244.762 84.2419 244.474 86.4439C244.328 87.5865 243.725 88.3389 242.654 88.9744C241.106 89.8989 239.663 91.0731 238.374 92.3411C237.15 93.5415 236.17 94.9911 235.09 96.3349C235.121 95.4174 235.071 94.4865 235.23 93.5976C235.786 90.5093 236.429 87.4335 237.025 84.3457C237.322 82.8048 237.644 81.2574 237.837 79.7009C237.934 78.8898 237.922 78.0005 237.691 77.227C237.403 76.2715 236.823 75.3852 235.652 75.3134C234.537 75.2382 233.776 75.8486 233.238 76.7731C233.057 77.0896 232.898 77.4247 232.76 77.7627C231.387 81.1801 230.022 84.6 228.561 88.2491C228.074 86.019 227.166 84.3994 224.671 84.9732C223.797 83.5165 223.582 82.0037 223.285 80.5225C223.048 79.3478 222.489 78.3707 221.674 77.5159C221.044 76.8548 220.245 76.8548 219.489 77.1337C218.718 77.4221 218.199 77.9764 218.199 78.9159C218.199 79.6959 218.078 80.4754 218.021 81.2584C217.927 82.558 217.771 83.8611 217.765 85.1608C217.762 86.5201 217.843 87.889 217.999 89.2418C218.233 91.2652 217 92.5935 215.945 94.2036C215.424 93.1382 214.902 92.2805 214.571 91.35C214.346 90.727 214.446 89.9977 214.303 89.3366C214.075 88.3153 213.731 87.3222 213.5 86.3014C213.238 85.1332 213.026 83.9524 212.826 82.7777C212.729 82.2079 212.757 81.6225 212.654 81.0582C212.155 78.3335 211.377 75.659 211.367 72.8496C211.364 71.9723 211.24 71.0674 211.015 70.2187C210.759 69.2637 210.05 68.7591 209.326 68.9251C208.399 69.1413 207.468 69.4543 206.969 70.3466C206.463 71.255 205.992 72.1975 205.636 73.1746C205.261 74.2054 205.039 75.2919 204.759 76.3568C204.565 77.1021 204.15 77.5626 203.326 77.522C201.818 77.4532 201.059 78.4018 200.522 79.6201C200.145 80.4849 199.876 81.3993 199.439 82.2325C198.287 84.4465 197.996 86.6987 198.949 89.0572C199.273 89.8617 199.348 90.6824 199.046 91.5095C198.006 94.3561 197.506 97.4068 195.82 100.016C195.486 100.533 195.193 101.159 195.143 101.761C195.056 102.778 194.818 104.041 195.283 104.805C196.123 106.161 196.283 107.508 196.242 108.986C196.23 109.296 196.274 109.622 196.346 109.923C196.589 110.887 197.344 111.576 198.171 111.62C199.083 111.664 199.645 111.194 199.986 110.01C200.238 109.146 200.541 108.347 201.212 107.69C201.993 106.919 202.159 105.904 201.775 104.911C201.466 104.097 201.699 103.493 202.146 102.872C202.484 102.406 202.886 101.971 203.152 101.47C203.408 100.978 203.679 100.417 203.676 99.8877C203.66 98.1216 204.606 96.8625 205.624 95.4937C205.98 95.766 206.193 96.0264 206.464 96.1232C207.71 96.5521 208.153 97.5889 208.5 98.7069C208.99 100.311 209.368 101.955 209.98 103.508C210.816 105.648 211.821 107.718 212.77 109.816L213.158 110.307C213.676 110.859 214.285 111.009 215.012 110.761C215.971 110.445 216.545 109.79 216.552 108.801C216.558 106.709 216.486 104.613 216.43 102.519C216.398 101.347 216.321 100.172 216.258 98.8193C217.36 99.4086 217.794 100.079 217.701 101.087C217.657 101.554 217.738 102.039 217.666 102.499C217.382 104.309 218.556 105.302 219.736 106.283C220.188 106.656 220.751 106.662 221.182 106.261C222.3 105.215 223.395 104.144 223.18 102.381C223.121 101.924 223.108 101.426 223.221 100.984C223.655 99.2893 223.496 97.6606 222.837 96.063C222.618 95.5368 222.522 95.0327 222.849 94.3907C223.611 95.0864 224.404 95.5774 224.869 96.2887C225.965 97.9425 226.933 99.684 227.888 101.425C228.644 102.8 229.284 104.235 230.017 105.622C230.401 106.345 230.97 106.918 231.875 106.834C232.793 106.746 233.408 106.251 233.664 105.318C233.823 104.733 234.057 104.169 234.288 103.508L234.491 103.733L234.554 104.197C234.681 106.339 235.84 107.658 237.797 108.382C238.481 108.632 239.149 108.933 239.78 109.287C242.34 110.724 245.24 110.188 247.067 107.912C247.354 107.555 247.626 107.185 248.031 106.656C248.203 107.452 248.34 108.056 248.456 108.661C248.756 110.155 249.483 111.41 250.57 112.447C251.594 113.424 252.989 113.497 254.164 112.698C255.197 111.993 255.743 111.085 255.634 109.779C255.435 107.45 254.861 105.232 253.971 103.087ZM204.081 89.0617C204.989 86.6345 205.845 84.3607 206.697 82.0835L207.103 82.1868C207.103 83.3831 206.931 84.611 207.15 85.7667C207.356 86.8311 207.984 87.8182 208.518 89.0612H204.081V89.0617ZM244.923 100.932C244.396 101.37 243.999 101.969 243.5 102.451C242.644 103.284 241.573 103.137 241.405 102.038C241.246 101.02 241.52 99.9203 241.689 98.8709C241.854 97.8432 242.279 97.1073 243.409 96.6534C244.418 96.2401 245.214 95.3036 246.378 94.3887C246.641 96.9202 247.052 99.1558 244.923 100.932Z" fill="#1ABED6" stroke="black" stroke-width="2" mask="url(#path-11-inside-3_107_31)"/>
<mask id="path-12-inside-4_107_31" fill="white">
<path d="M443.708 141.735V142.036H442.844V144.298H442.494V142.036H441.629V141.735"/>
</mask>
<path d="M443.708 141.735V142.036H442.844V144.298H442.494V142.036H441.629V141.735" fill="#1ABED6"/>
<path d="M443.708 142.036V143.036H444.708V142.036H443.708ZM442.844 142.036V141.036H441.844V142.036H442.844ZM442.844 144.298V145.298H443.844V144.298H442.844ZM442.494 144.298H441.494V145.298H442.494V144.298ZM442.494 142.036H443.494V141.036H442.494V142.036ZM441.629 142.036H440.629V143.036H441.629V142.036ZM442.708 141.735V142.036H444.708V141.735H442.708ZM443.708 141.036H442.844V143.036H443.708V141.036ZM441.844 142.036V144.298H443.844V142.036H441.844ZM442.844 143.298H442.494V145.298H442.844V143.298ZM443.494 144.298V142.036H441.494V144.298H443.494ZM442.494 141.036H441.629V143.036H442.494V141.036ZM442.629 142.036V141.735H440.629V142.036H442.629Z" fill="black" mask="url(#path-12-inside-4_107_31)"/>
<mask id="path-14-inside-5_107_31" fill="white">
<path d="M443.946 141.735H444.439L445.179 143.9L445.913 141.735H446.403V144.298H446.079V142.798L446.082 142.522V142.136L445.348 144.298H445.007L444.255 142.136V142.212L444.273 142.5V144.298H443.946"/>
</mask>
<path d="M443.946 141.735H444.439L445.179 143.9L445.913 141.735H446.403V144.298H446.079V142.798L446.082 142.522V142.136L445.348 144.298H445.007L444.255 142.136V142.212L444.273 142.5V144.298H443.946" fill="#1ABED6"/>
<path d="M444.439 141.735L445.385 141.411L445.154 140.735H444.439V141.735ZM445.179 143.9L444.233 144.223L445.183 147.003L446.126 144.221L445.179 143.9ZM445.913 141.735V140.735H445.196L444.966 141.414L445.913 141.735ZM446.403 141.735H447.403V140.735H446.403V141.735ZM446.403 144.298V145.298H447.403V144.298H446.403ZM446.079 144.298H445.079V145.298H446.079V144.298ZM446.079 142.798L445.079 142.787V142.798H446.079ZM446.082 142.522L447.082 142.533V142.522H446.082ZM446.082 142.136H447.082L445.135 141.815L446.082 142.136ZM445.348 144.298V145.298H446.065L446.295 144.619L445.348 144.298ZM445.007 144.298L444.063 144.626L444.296 145.298H445.007V144.298ZM444.255 142.136L445.199 141.808L443.255 142.136H444.255ZM444.255 142.212H443.255V142.244L443.257 142.276L444.255 142.212ZM444.273 142.5H445.273V142.468L445.271 142.436L444.273 142.5ZM444.273 144.298V145.298H445.273V144.298H444.273ZM443.946 142.735H444.439V140.735H443.946V142.735ZM443.493 142.058L444.233 144.223L446.125 143.576L445.385 141.411L443.493 142.058ZM446.126 144.221L446.86 142.056L444.966 141.414L444.232 143.579L446.126 144.221ZM445.913 142.735H446.403V140.735H445.913V142.735ZM445.403 141.735V144.298H447.403V141.735H445.403ZM446.403 143.298H446.079V145.298H446.403V143.298ZM447.079 144.298V142.798H445.079V144.298H447.079ZM447.078 142.809L447.081 142.533L445.082 142.511L445.079 142.787L447.078 142.809ZM447.082 142.522V142.136H445.082V142.522H447.082ZM445.135 141.815L444.401 143.976L446.295 144.619L447.028 142.458L445.135 141.815ZM445.348 143.298H445.007V145.298H445.348V143.298ZM445.951 143.969L445.199 141.808L443.311 142.465L444.063 144.626L445.951 143.969ZM443.255 142.136V142.212H445.255V142.136H443.255ZM443.257 142.276L443.276 142.564L445.271 142.436L445.253 142.148L443.257 142.276ZM443.273 142.5V144.298H445.273V142.5H443.273ZM444.273 143.298H443.946V145.298H444.273V143.298Z" fill="black" mask="url(#path-14-inside-5_107_31)"/>
</g>
<defs>
<filter id="filter0_d_107_31" x="0" y="0" width="520" height="167" filterUnits="userSpaceOnUse" color-interpolation-filters="sRGB">
<feFlood flood-opacity="0" result="BackgroundImageFix"/>
<feColorMatrix in="SourceAlpha" type="matrix" values="0 0 0 0 0 0 0 0 0 0 0 0 0 0 0 0 0 0 127 0" result="hardAlpha"/>
<feOffset/>
<feGaussianBlur stdDeviation="5"/>
<feColorMatrix type="matrix" values="0 0 0 0 0.490196 0 0 0 0 1 0 0 0 0 0.478431 0 0 0 1 0"/>
<feBlend mode="normal" in2="BackgroundImageFix" result="effect1_dropShadow_107_31"/>
<feBlend mode="normal" in="SourceGraphic" in2="effect1_dropShadow_107_31" result="shape"/>
</filter>
<clipPath id="clip0_107_31">
<rect width="500" height="147" fill="white" transform="translate(10 10)"/>
</clipPath>
</defs>
</svg>
