<svg width="1104" height="2073" viewBox="0 0 1104 2073" fill="none" xmlns="http://www.w3.org/2000/svg">
<path d="M474.285 1118.08C303.738 1068.19 265.95 1025.35 222.534 942.783C63.5517 895.089 69.6087 850.333 155.4 756.3C118.216 609.166 134.096 529.204 196.426 388.93C306.574 258.07 400.255 205.655 673.821 181.935C930.16 231.235 955.887 300.49 1011.35 420.632C1064.01 574.164 1065.54 629.699 1054.24 713.409C1109.72 762.603 1132.56 790.707 1035.6 849.541C957.94 1008.13 899.285 1052.43 785.71 1105.02C663.772 1147.28 595.578 1148.25 474.285 1118.08Z" fill="#FCC7A8"/>
<path d="M384.774 1686.85H244.912L250.506 2071L360.531 2057.95L384.774 1686.85Z" fill="#FCC7A8"/>
<path d="M869.627 2033.7L850.979 1686.85C904.87 1686.85 988.976 1655.14 988.976 1686.85C988.976 1718.55 1011.35 2033.7 1011.35 2033.7H869.627Z" fill="#FCC7A8"/>
<path d="M474.285 1118.08C303.738 1068.19 265.95 1025.35 222.534 942.783C63.5517 895.089 69.6087 850.333 155.4 756.3C118.216 609.166 134.096 529.204 196.426 388.93C306.574 258.07 400.255 205.655 673.821 181.935C930.16 231.235 955.887 300.49 1011.35 420.632C1064.01 574.164 1065.54 629.699 1054.24 713.409C1109.72 762.603 1132.56 790.707 1035.6 849.541C957.94 1008.13 899.285 1052.43 785.71 1105.02C663.772 1147.28 595.578 1148.25 474.285 1118.08Z" stroke="black" stroke-width="2"/>
<path d="M384.774 1686.85H244.912L250.506 2071L360.531 2057.95L384.774 1686.85Z" stroke="black" stroke-width="2"/>
<path d="M869.627 2033.7L850.979 1686.85C904.87 1686.85 988.976 1655.14 988.976 1686.85C988.976 1718.55 1011.35 2033.7 1011.35 2033.7H869.627Z" stroke="black" stroke-width="2"/>
<path d="M2.48012 476.577C-5.62676 625.195 19.0139 695.422 90.1268 808.516L147.936 760.03C130.98 642.489 114.144 580.495 187.098 415.038C231.558 335.547 265.478 292.701 399.687 230.421C499.135 188.019 578.123 179.434 774.517 200.584C893.164 260.527 958.409 297.65 1033.73 476.577C1022.69 390.229 1059.59 401.532 934.891 157.693C841.812 73.8897 779.571 36.3435 634.655 1.04775C491.039 1.42353 414.347 -8.21129 222.529 116.667C113.522 212.72 56.8139 275.06 2.48012 476.577Z" fill="#904B24" stroke="black" stroke-width="2"/>
<path d="M412.741 418.705C330.406 455.231 284.48 475.982 278.474 605.188C324.8 756.636 390.188 765.719 539.549 718.942C600.149 660.465 617.876 619.847 595.494 521.271C567.697 448.793 536.635 419.662 412.741 418.705Z" fill="#FBFCFF"/>
<path d="M946.081 418.705C857.721 383.129 808.127 365.951 716.707 489.569C692.039 583.506 705.824 630.066 813.678 694.699C919.599 723.171 958.849 699.668 1002.03 605.188C1013.71 527.746 1017.68 484.681 946.081 418.705Z" fill="#FBFCFF"/>
<path d="M412.741 418.705C330.406 455.231 284.48 475.982 278.474 605.188C324.8 756.636 390.188 765.719 539.549 718.942C600.149 660.465 617.876 619.847 595.494 521.271C567.697 448.793 536.635 419.662 412.741 418.705Z" stroke="black" stroke-width="2"/>
<path d="M946.081 418.705C857.721 383.129 808.127 365.951 716.707 489.569C692.039 583.506 705.824 630.066 813.678 694.699C919.599 723.171 958.849 699.668 1002.03 605.188C1013.71 527.746 1017.68 484.681 946.081 418.705Z" stroke="black" stroke-width="2"/>
<path d="M556.333 566.088L573.116 549.305L589.9 560.494L586.17 582.872H556.333V566.088Z" fill="black"/>
<path d="M960.999 532.522L981.512 512.009L1000.16 517.603L996.431 532.522H960.999Z" fill="black"/>
<path d="M556.333 566.088L573.116 549.305L589.9 560.494L586.17 582.872H556.333V566.088Z" stroke="black" stroke-width="2"/>
<path d="M960.999 532.522L981.512 512.009L1000.16 517.603L996.431 532.522H960.999Z" stroke="black" stroke-width="2"/>
<path d="M858.434 1075.19C650.403 1176.64 545.831 1163.69 366.121 1101.29C300.829 1175.49 273.017 1224.32 256.097 1338.13C220.828 1492.73 219.718 1561.45 222.53 1679.39L384.769 1686.85L366.121 2065.41L873.353 2035.57L845.38 1686.85C943.329 1670.14 980.923 1662.31 1013.21 1651.42C994.874 1298.06 952.224 1198.6 858.434 1075.19Z" fill="#F4F482"/>
<path d="M317.639 379.606L492.933 336.715M789.439 318.067L923.707 327.391M550.742 968.89L821.141 950.242M638.389 748.841L709.252 780.543L726.035 737.652L688.739 696.626M845.38 1686.85C943.329 1670.14 980.923 1662.31 1013.21 1651.42C994.874 1298.06 952.224 1198.6 858.434 1075.19C650.403 1176.64 545.831 1163.69 366.121 1101.29C300.829 1175.49 273.017 1224.32 256.097 1338.13C220.828 1492.73 219.718 1561.45 222.53 1679.39L384.769 1686.85L366.121 2065.41L873.353 2035.57L845.38 1686.85ZM845.38 1686.85H821.141L796.895 1358.64M384.769 1679.39V1384.75" stroke="black" stroke-width="2"/>
</svg>
