<svg width="1187" height="2074" viewBox="0 0 1187 2074" fill="none" xmlns="http://www.w3.org/2000/svg">
<path d="M283.906 331.759C216.719 329.014 187.022 340.942 147.811 385.786C107.345 478.867 97.6428 528.061 147.811 600.256C114.527 991.468 301.152 1130.04 765.217 1055.39C779.199 1005.68 791.832 982.324 826.626 952.248C966.493 950.224 1002.99 911.309 1012.51 791.805C1085.11 392.65 936.784 224.758 576.012 200.786C494.821 205.996 453.188 213.454 391.786 241.715C330.519 276.701 304.608 296.397 283.906 331.759Z" fill="#FCC7A8" stroke="black" stroke-width="2"/>
<path d="M347.012 136.714C286.192 204.268 289.561 237.559 302.655 296.071C394.615 218.3 463.016 195.7 621.369 200.786C764.514 227.744 830.911 258.722 922.012 345.357C992.686 455.421 1014.44 512.458 1030.44 608.214C1027.76 732.89 1018.96 789.643 995.941 877.643C1057.76 866.484 1074.59 852.302 1092.87 821.786C1109.71 756.083 1128.42 721.854 1173.37 664.071C1191.62 545.249 1189.71 477.403 1158.58 353.571C1112.4 238.596 1106.01 205.714 984.441 121.929C862.869 38.1429 696.941 2 696.941 2C474.076 20.8099 439.244 38.5713 427.512 74.2857C384.385 97.2602 369.192 107.858 347.012 136.714Z" fill="#76573B" stroke="black" stroke-width="2"/>
<path d="M302.655 823.429C284.723 827.428 277.735 832.683 273.084 849.714C275.103 864.645 279.657 871.802 302.655 879.286C328.041 891.456 380.081 902.866 489.941 925.286C542.672 928.756 553.688 919.543 514.584 867.786C476.079 851.126 457.212 841.914 379.869 823.429C356.305 820.499 339.541 820.448 302.655 823.429Z" fill="#680816" stroke="black" stroke-width="2"/>
<path d="M328.941 849.715C314.16 846.655 306.419 841.356 301.012 830L347.012 828.358C346.913 838.168 343.913 843.044 328.941 849.715Z" fill="white"/>
<path d="M355.227 841.5V828.358C372.241 824.882 383.128 826.419 406.155 834.929C428.54 838.76 441.128 842.754 463.655 854.643C477.068 856.448 485.81 859.903 501.441 866.143C504.554 871.473 504.881 874.665 501.441 880.929C495.779 883.422 493.001 884.942 476.798 884.215C465.982 873.934 462.795 867.528 463.655 854.643C459.676 864.878 453.96 868.543 437.37 871.072C419.638 863.108 411.383 856.551 407.637 842.404C407.531 844.457 407.033 846.749 406.155 849.715C401.129 856.188 395.615 858.651 381.512 861.215C367.992 856.021 362.134 851.79 355.227 841.5Z" fill="white"/>
<path d="M301.012 874.358C301.102 860.143 303.187 853.699 319.084 851.358C332.13 854.178 335.822 857.539 340.441 864.5C342.598 874.464 342.666 878.829 342.084 885.858C346.555 873.125 350.16 867.416 363.441 866.143C378.132 870.673 381.353 875.433 386.441 884.215C389.898 890.194 390.718 892.927 391.37 897.358C392.157 881.547 396.319 875.695 411.084 871.072C428.696 875.724 431.225 880.379 434.084 889.143C435.816 899.928 435.431 903.504 434.164 908.541C438.113 893.027 442.238 886.869 455.441 884.215C477.264 891.255 475.586 902.502 476.798 920.358C478.195 905.185 476.944 892.608 485.012 890.786C497.726 886.515 503.237 886.513 511.298 889.143C532.695 900.925 529.379 902.249 531.012 907.215V918.715C515.009 924.522 503.023 924.828 476.798 920.358L434.084 908.858L391.37 897.358L342.084 885.858L301.012 874.358Z" fill="white"/>
<path d="M406.155 834.929C408.183 839.761 408.136 843.022 406.155 849.715C401.129 856.188 395.615 858.651 381.512 861.215C367.992 856.021 362.134 851.79 355.227 841.5V828.358C372.241 824.882 383.128 826.419 406.155 834.929ZM406.155 834.929C408.968 854.473 416.778 861.823 437.37 871.072C453.96 868.543 459.676 864.878 463.655 854.643M406.155 834.929C428.54 838.76 441.128 842.754 463.655 854.643M463.655 854.643C462.795 867.528 465.982 873.934 476.798 884.215C493.001 884.942 495.779 883.422 501.441 880.929C504.881 874.665 504.554 871.473 501.441 866.143C485.81 859.903 477.068 856.448 463.655 854.643ZM342.084 885.858C342.666 878.829 342.598 874.464 340.441 864.5C335.822 857.539 332.13 854.178 319.084 851.358C303.187 853.699 301.102 860.143 301.012 874.358L342.084 885.858ZM342.084 885.858C346.555 873.125 350.16 867.416 363.441 866.143C378.132 870.673 381.353 875.433 386.441 884.215C389.898 890.194 390.718 892.927 391.37 897.358M342.084 885.858L391.37 897.358M391.37 897.358C392.157 881.547 396.319 875.695 411.084 871.072C428.696 875.724 431.225 880.379 434.084 889.143C435.852 900.152 435.414 903.65 434.084 908.858M391.37 897.358L434.084 908.858M434.084 908.858L476.798 920.358M434.084 908.858C438.058 893.111 442.148 886.887 455.441 884.215C477.264 891.255 475.586 902.502 476.798 920.358M476.798 920.358C478.195 905.185 476.944 892.608 485.012 890.786C497.726 886.515 503.237 886.513 511.298 889.143C532.695 900.925 529.379 902.249 531.012 907.215V918.715C515.009 924.522 503.023 924.828 476.798 920.358ZM301.012 830C306.419 841.356 314.16 846.655 328.941 849.715C343.913 843.044 346.913 838.168 347.012 828.358L301.012 830Z" stroke="black" stroke-width="2"/>
<path d="M368.37 639.429C322.45 663.657 308.654 680.255 324.012 719.929C357.221 729.685 375.426 729.936 406.155 708.429" stroke="black" stroke-width="2"/>
<path d="M355.225 394.643H140.643C84.3581 560.473 114.98 630.661 247.428 646C371.369 640.876 420.187 555.485 355.225 394.643Z" fill="#FCFAFC"/>
<path d="M734.726 424.215L534.298 409.429C477.829 451.528 461.588 481.187 462.012 545.786C473.786 654.347 514.759 685.541 629.583 705.143H636.155C798.991 659.563 832.205 604.057 734.726 424.215Z" fill="#FCFAFC"/>
<path d="M333.869 370C348.494 369.044 356.654 368.669 368.369 379.857C367.938 388.376 364.63 391.08 356.869 394.643M550.726 374.929C533.695 372.69 525.802 375.295 514.583 386.429C515.868 399.025 521.003 403.159 534.298 407.786M140.643 394.643H355.225C420.187 555.485 371.369 640.876 247.428 646C114.98 630.661 84.3581 560.473 140.643 394.643ZM534.298 409.429L734.726 424.215C832.205 604.057 798.991 659.563 636.155 705.143H629.583C514.759 685.541 473.786 654.347 462.012 545.786C461.588 481.187 477.829 451.528 534.298 409.429Z" stroke="black" stroke-width="2"/>
<path d="M159.727 440.643V447.214H163.012L166.298 450.5L169.584 452.143V453.786V455.429L172.869 460.357H182.727L189.298 453.786L190.941 447.214L186.012 442.286L182.727 437.357H174.512L166.298 440.643H159.727Z" fill="black" stroke="black" stroke-width="2"/>
<path d="M501.441 478.429V483.357H508.012V489.929L516.227 491.572L519.512 493.214V498.143L522.798 499.786L527.727 494.857L534.298 489.929V485L529.369 480.072L526.084 475.143L522.798 471.857H514.584V470.214L508.012 468.572L506.369 476.786L501.441 478.429Z" fill="black" stroke="black" stroke-width="2"/>
<path d="M337.786 1040.29C494.136 1085.86 588.079 1088.16 758.358 1048.5C769.073 990.985 781.824 975.382 849.727 940.071C904.831 943.337 927.652 957.376 954.869 1002.5L1084.66 1359C990.061 1362.89 950.85 1374.83 912.155 1418.14L908.969 1409.4C916.849 1438.03 924.318 1468.72 931.869 1503.57C958.294 1583.6 967.647 1627.8 976.227 1705.64C986.141 1849.91 991.418 1930.76 976.227 2072L419.298 2065.43C440.435 1818.09 439.279 1676.56 409.994 1418.14C354.889 1401.79 324.101 1398.23 269.798 1424.71C266.148 1266.42 277.218 1174.71 337.786 1040.29Z" fill="#F4F482"/>
<path d="M407.798 1265.36L409.994 1418.14M409.994 1418.14C439.279 1676.56 440.435 1818.09 419.298 2065.43L976.227 2072C991.418 1930.76 986.141 1849.91 976.227 1705.64C967.647 1627.8 958.294 1583.6 931.869 1503.57C903.095 1370.78 875.531 1298.38 821.798 1170.07L912.155 1418.14C950.85 1374.83 990.061 1362.89 1084.66 1359L954.869 1002.5C927.652 957.376 904.831 943.337 849.727 940.071C781.824 975.382 769.073 990.985 758.358 1048.5C588.079 1088.16 494.136 1085.86 337.786 1040.29C277.218 1174.71 266.148 1266.42 269.798 1424.71C324.101 1398.23 354.889 1401.79 409.994 1418.14Z" stroke="black" stroke-width="2"/>
<path d="M6.94138 1140.5C16.1686 1081.08 21.8725 1021.59 29.9414 1018.93C41.4477 1005.69 47.333 1023.68 56.2271 1129C58.2462 1109.94 56.6205 1120.41 69.37 1018.93C73.0495 1012.63 75.4107 1009.73 82.5128 1010.71C91.3561 1017.37 92.8633 1036.24 91.8471 1063.21C94.1147 1032.89 96.837 1013.54 102.227 1010.71C108.002 1002.69 111.239 998.487 117.013 1010.71C124.422 1049.66 122.252 1079.33 117.013 1133.93C126.707 1075.07 128.967 1027.93 149.87 1018.93C164.487 1007.36 160.21 1075.7 136.727 1194.71C146.161 1193.02 156.85 1191.56 184.37 1188.14C200.59 1191.08 206.596 1193.75 199.156 1204.57C167.858 1228.97 152.285 1243.75 136.727 1276.86C162.646 1378.55 180.738 1434.74 278.013 1520L289.513 1419.79C330.817 1405.47 356.15 1407.45 404.513 1426.36C408.331 1514.02 407.523 1563.75 394.656 1654.71C378.206 1681.65 364.174 1692.67 315.799 1692.5C142.974 1588.73 49.7672 1526.74 21.7271 1299.86C1.08798 1252.8 -4.7225 1220.53 6.94138 1140.5Z" fill="#FCC7A8"/>
<path d="M935.155 1510.14L915.441 1426.36C951.542 1378.13 981.248 1366.28 1046.87 1365.57C1070.05 1428.59 1077.18 1475.51 1081.37 1575.86C1085.83 1642.78 1050.98 1652.6 968.012 1654.71L935.155 1510.14Z" fill="#FCC7A8"/>
<path d="M935.155 1510.14L915.441 1426.36C951.542 1378.13 981.248 1366.28 1046.87 1365.57C1070.05 1428.59 1077.18 1475.51 1081.37 1575.86C1085.83 1642.78 1050.98 1652.6 968.012 1654.71L935.155 1510.14ZM935.155 1510.14C965.149 1527.57 983.745 1526.83 1017.3 1523.29M6.94138 1140.5C16.1686 1081.08 21.8725 1021.59 29.9414 1018.93C41.4477 1005.69 47.333 1023.68 56.2271 1129C58.2462 1109.94 56.6205 1120.41 69.37 1018.93C73.0495 1012.63 75.4107 1009.73 82.5128 1010.71C97.837 1022.24 91.1323 1070.48 87.4414 1133.93C91.7149 1064.68 93.3662 1015.35 102.227 1010.71C108.002 1002.69 111.239 998.487 117.013 1010.71C124.422 1049.66 122.252 1079.33 117.013 1133.93C126.707 1075.07 128.967 1027.93 149.87 1018.93C164.487 1007.36 160.21 1075.7 136.727 1194.71C146.161 1193.02 156.85 1191.56 184.37 1188.14C200.59 1191.08 206.596 1193.75 199.156 1204.57C167.858 1228.97 152.285 1243.75 136.727 1276.86C162.646 1378.55 180.738 1434.74 278.013 1520L289.513 1419.79C330.817 1405.47 356.15 1407.45 404.513 1426.36C408.331 1514.02 407.523 1563.75 394.656 1654.71C378.206 1681.65 364.174 1692.67 315.799 1692.5C142.974 1588.73 49.7672 1526.74 21.7271 1299.86C1.08798 1252.8 -4.7225 1220.53 6.94138 1140.5Z" stroke="black" stroke-width="2"/>
<path d="M878.286 895.714C878.286 895.714 919.006 937.823 975.214 910.5C1001.15 892.756 1004.79 854.643 1003.14 849.714C1001.5 844.786 1005.29 772.104 952.214 761" stroke="black" stroke-width="2"/>
</svg>
