<svg width="970" height="2072" viewBox="0 0 970 2072" fill="none" xmlns="http://www.w3.org/2000/svg">
<path d="M174.993 2027.5V2065.88H579.393L594.622 2027.5H174.993Z" fill="#0D1C53" stroke="black" stroke-width="2"/>
<path d="M211.148 232.513C179.032 261.947 162.984 282.953 147.307 311.875C98.0363 404.805 78.4203 456.999 67.7545 550.372C66.1599 640.576 72.1786 688.247 110.07 761.805C144.704 816.104 148.386 847.562 282.716 895.431C381.266 934.574 448.522 941.251 599.235 914.037C664.204 887.205 699.13 863.859 753.262 777.029C732.583 612.514 722.396 507.445 690.636 443.809C671.962 388.402 680.975 353.67 580.616 234.067C484.337 158.671 423.218 129.837 250.556 198.547C235.102 211.304 222.178 222.406 211.148 232.513Z" fill="#FCC7A8"/>
<path d="M599.235 2030.4C567.003 1808.67 568.88 1666.76 580.616 1406.25C616.563 1425.8 639.419 1432.6 697.406 1418.09C673.909 1657.03 667.086 1791.06 685.558 2030.4L697.406 2071H580.616L599.235 2030.4Z" fill="#FCC7A8"/>
<path d="M130.381 2030.4C118.812 1763.89 113.047 1615.62 123.611 1384.27H162.541C179.613 1639.51 167.624 1779.96 145.615 2030.4H169.311V2071H116.84L130.381 2030.4Z" fill="#FCC7A8"/>
<path d="M622.931 612.956C729.563 658.626 697.403 756.731 589.079 756.731M318.261 777.029C195.493 819.497 164.334 792.146 123.611 733.05M147.307 535.149C117.942 549.736 99.9173 560.521 110.07 587.584C120.222 614.648 154.428 603.754 182.852 587.584M343.65 249.291C398.88 239.142 421.909 212.094 482.444 291.577M238.708 239.142C226.224 225.955 216.63 226.876 201.471 239.142M147.307 311.875C168.368 273.021 190.098 248.453 250.556 198.547C423.218 129.837 484.337 158.671 580.616 234.067C680.975 353.67 671.962 388.402 690.636 443.809C722.396 507.445 732.583 612.514 753.262 777.029C699.13 863.859 664.204 887.205 599.235 914.037C448.522 941.251 381.266 934.574 282.716 895.431C148.386 847.562 144.704 816.104 110.07 761.805C72.1786 688.247 66.1599 640.576 67.7545 550.372C78.4203 456.999 98.0363 404.805 147.307 311.875ZM580.616 1406.25C568.88 1666.76 567.003 1808.67 599.235 2030.4L580.616 2071H697.406L685.558 2030.4C667.086 1791.06 673.909 1657.03 697.406 1418.09C639.419 1432.6 616.563 1425.8 580.616 1406.25ZM123.611 1384.27C113.047 1615.62 118.812 1763.89 130.381 2030.4L116.84 2071H169.311V2030.4H145.615C167.624 1779.96 179.613 1639.51 162.541 1384.27H123.611Z" stroke="black" stroke-width="2"/>
<path d="M318.177 44.9779C242.938 93.5703 219.024 124.656 248.901 195.362C433.518 129.396 531.974 126.605 671.314 367.713C719.117 489.441 741.189 566.298 750.728 758.037C762.905 779.421 772.246 785.997 798.038 778.314C857.903 736.244 888.603 702.803 931.521 602.584C970.19 499.424 989.685 440.516 931.521 289.986C841.243 166.824 837.85 89.0554 547.97 2.73501L545.337 2.62878C457.15 -0.930744 406.9 -2.95905 318.177 44.9779Z" fill="#76573B" stroke="black" stroke-width="2"/>
<path d="M228.287 878.639C371.881 939.073 455.264 943.929 607.846 914.189C683.915 1035.4 685.084 1078.75 698.941 1163.04C717.396 1299.62 720.058 1334.59 722.558 1384.8C669.283 1431.84 632.284 1423.27 565.673 1405.11L554.676 1210.16C576.997 1624.34 568.677 1799.2 592.664 2019.61C465.451 2046.58 386.51 2036.37 250.217 2033.15H150.688C171.75 1786.11 175.377 1643.76 170.931 1384.8C140.095 1391.48 126.017 1392.68 113.575 1384.8C106.475 1335.6 107.058 1293.82 113.575 1201.97C135.042 1072.98 154.457 1001.52 228.287 878.639Z" fill="#F4F482"/>
<path d="M170.931 1384.8C175.377 1643.76 171.75 1786.11 150.688 2033.15H250.217C386.51 2036.37 465.451 2046.58 592.664 2019.61C567.292 1786.48 578.066 1604.3 550.491 1135.95L565.673 1405.11C632.283 1423.27 669.283 1431.84 722.558 1384.8C720.058 1334.59 717.396 1299.62 698.941 1163.04C685.084 1078.75 683.915 1035.4 607.846 914.189C455.264 943.929 371.881 939.073 228.287 878.639C154.457 1001.52 135.042 1072.98 113.575 1201.97C107.058 1293.82 106.475 1335.6 113.575 1384.8C126.017 1392.68 140.095 1391.48 170.931 1384.8ZM170.931 1384.8L191.174 1110.56" stroke="black" stroke-width="2"/>
<path d="M153.824 493.006C175.077 440.746 190.718 413.865 153.824 323.965C147.402 316.411 145.249 312.564 114.962 298.609L114.687 298.589C94.8637 297.163 83.6539 296.356 64.2729 308.751C26.6833 338.489 14.0094 360.176 6.82524 408.485C-2.32969 462.696 -5.69508 492.287 35.5491 523.433C75.6974 549.817 101.431 544.621 153.824 493.006Z" fill="#FCFAFC"/>
<path d="M422.476 323.965C362.511 306.714 330.963 308.193 277.167 323.965C235.844 371.167 218.114 399.984 228.168 469.34C238.18 532.172 257.154 557.444 324.477 577.526C372.063 588.993 399.726 589.785 456.268 550.479C471.199 523.129 477.476 499.646 483.303 437.222L483.392 436.157C486.558 398.395 488.36 376.896 422.476 323.965Z" fill="#FCFAFC"/>
<path d="M153.824 493.006C175.077 440.746 190.718 413.865 153.824 323.965C147.402 316.411 145.249 312.564 114.962 298.609L114.687 298.589C94.8637 297.163 83.6539 296.356 64.2729 308.751C26.6833 338.489 14.0094 360.176 6.82524 408.485C-2.32969 462.696 -5.69508 492.287 35.5491 523.433C75.6974 549.817 101.431 544.621 153.824 493.006Z" stroke="black" stroke-width="2"/>
<path d="M422.476 323.965C362.511 306.714 330.963 308.193 277.167 323.965C235.844 371.167 218.114 399.984 228.168 469.34C238.18 532.172 257.154 557.444 324.477 577.526C372.063 588.993 399.726 589.785 456.268 550.479C471.199 523.129 477.476 499.646 483.303 437.222L483.392 436.157C486.558 398.395 488.36 376.896 422.476 323.965Z" stroke="black" stroke-width="2"/>
<path d="M256.214 398.64V388.565L274.782 398.64V403.678L266.342 410.394L251.15 403.678L256.214 398.64Z" fill="black"/>
<path d="M31.7046 366.736L36.7687 356.661H45.2089L51.9611 366.736L45.2089 375.132L41.8328 371.774L31.7046 366.736Z" fill="black"/>
<path d="M256.214 398.64V388.565L274.782 398.64V403.678L266.342 410.394L251.15 403.678L256.214 398.64Z" stroke="black" stroke-width="2"/>
<path d="M31.7046 366.736L36.7687 356.661H45.2089L51.9611 366.736L45.2089 375.132L41.8328 371.774L31.7046 366.736Z" stroke="black" stroke-width="2"/>
</svg>
