<svg width="980" height="2074" viewBox="0 0 980 2074" fill="none" xmlns="http://www.w3.org/2000/svg">
<path d="M856.097 671.371C840.434 686.448 837.271 696.807 844.631 719.709L863.741 733.343C879.725 717.673 891.684 709.515 918.524 696.16C942.475 695.437 954.109 692.107 969.485 677.568C976.097 650.547 979.379 635.386 978.403 608.161C967.178 603.654 960.868 601.581 949.101 608.161C936.846 604.996 930.078 605.252 918.524 614.358L918.401 614.338C905.005 612.136 897.461 610.897 884.125 621.794C870.702 621.086 864.058 622.32 856.097 631.71V671.371Z" fill="#E0D6CD"/>
<path d="M918.524 614.358C905.051 612.144 897.502 610.864 884.125 621.794C870.702 621.086 864.058 622.32 856.097 631.71V671.371C840.434 686.448 837.271 696.807 844.631 719.709L863.741 733.343C879.725 717.673 891.684 709.515 918.524 696.16C942.475 695.437 954.109 692.107 969.485 677.568C976.097 650.547 979.379 635.386 978.403 608.161C967.178 603.654 960.868 601.581 949.101 608.161M918.524 614.358C930.078 605.252 936.846 604.996 949.101 608.161M918.524 614.358C928.525 632.246 929.653 642.651 928.716 661.456M949.101 608.161C954.287 626.554 953.29 636.866 949.101 655.259M857.371 667.653C862.349 672.352 865.131 671.854 870.111 667.653C872.575 656.942 870.88 652.171 863.741 645.343M903.236 663.935C900.551 646.989 896.783 637.952 884.125 623.034" stroke="black" stroke-width="2"/>
<path d="M164.762 501.884C178.621 552.3 194.146 576.864 221.219 620.973C234.496 627.455 241.19 624.593 253.297 620.973C263.938 610.407 266.299 603.557 269.977 591.2C269.845 584.574 270.471 580.791 273.759 573.833L275.11 567.631L284.092 556.466C290.592 546.293 291.389 540.589 284.092 530.416L272.583 522.324L269.977 520.491C267.601 511.632 265.718 509.77 262.081 508.086L259.712 504.365C252.627 494.185 247.977 491.653 239.183 489.479C237.191 482.095 234.469 478.951 227.635 474.593C200.782 479.073 187.004 484.88 164.762 501.884Z" fill="#E0D6CD"/>
<path d="M239.183 489.479C237.191 482.095 234.469 478.951 227.635 474.593C200.782 479.073 187.004 484.88 164.762 501.884C178.621 552.3 194.146 576.864 221.219 620.973C234.496 627.455 241.19 624.593 253.297 620.973C263.938 610.407 266.299 603.557 269.977 591.2C269.845 584.574 270.471 580.791 273.759 573.833M239.183 489.479C247.977 491.653 252.627 494.185 259.712 504.365L262.081 508.086M239.183 489.479C219.999 493.62 209.682 498.072 191.708 508.086M230.201 474.593L259.712 480.795C271.399 490.247 292.045 495.49 300.772 496.922C309.499 498.354 282.384 517.058 275.11 520.491L269.977 524.213C250.518 528.34 241.676 531.829 230.201 540.34M213.52 526.694C228.682 516.543 239.583 512.656 262.081 508.086M262.081 508.086C265.718 509.77 267.601 511.632 269.977 520.491L284.092 530.416C291.389 540.589 290.592 546.293 284.092 556.466L275.11 567.631L273.759 573.833M246.881 556.466C252.085 557.887 254.909 557.397 259.712 553.365M272.544 550.264C267.694 549.736 264.946 549.67 259.712 553.365M259.712 553.365C260.193 567.224 265.59 568.987 273.759 573.833" stroke="black" stroke-width="2"/>
<path d="M829.214 719.582C814.752 727.758 810.304 733.721 807.714 746.878L845.655 766.73C859.744 760.636 865.181 755.782 865.891 741.915C854.967 723.839 846.353 720.553 829.214 719.582Z" fill="#A2DFE0"/>
<path d="M256.291 629.008H217.085C213.975 641.122 214.219 647.913 217.085 660.027C250.937 660.881 252.497 660.027 256.291 651.341C260.085 642.656 264.602 637.013 256.291 629.008Z" fill="#A2DFE0"/>
<path d="M829.214 719.582C814.752 727.758 810.304 733.721 807.714 746.878L845.655 766.73C859.744 760.636 865.181 755.782 865.891 741.915C854.967 723.839 846.353 720.553 829.214 719.582Z" stroke="black" stroke-width="2"/>
<path d="M256.291 629.008H217.085C213.975 641.122 214.219 647.913 217.085 660.027C250.937 660.881 252.497 660.027 256.291 651.341C260.085 642.656 264.602 637.013 256.291 629.008Z" stroke="black" stroke-width="2"/>
<path d="M448.553 1188.24H402.645L404.999 1221.63H447.375L448.553 1188.24Z" fill="#F1DD40" stroke="black" stroke-width="2"/>
<path d="M119.726 1960.32L114.681 1914.92C131.369 1909.26 140.751 1909.16 157.564 1912.33C166.952 1931.07 165.577 1941.58 161.347 1960.32H119.726Z" fill="#E0D6CD"/>
<path d="M577.558 1914.92L569.991 1948.65L616.657 1953.83C613.265 1943.33 610.287 1937.46 628.008 1926.6C610.582 1917.1 600.142 1913.21 577.558 1914.92Z" fill="#E0D6CD"/>
<path d="M119.726 1960.32L114.681 1914.92C131.369 1909.26 140.751 1909.16 157.564 1912.33C166.952 1931.07 165.577 1941.58 161.347 1960.32H119.726Z" stroke="black" stroke-width="2"/>
<path d="M577.558 1914.92L569.991 1948.65L616.657 1953.83C613.265 1943.33 610.287 1937.46 628.008 1926.6C610.582 1917.1 600.142 1913.21 577.558 1914.92Z" stroke="black" stroke-width="2"/>
<path d="M164.6 1956.77H107.436C42.3401 2003.46 20.7096 2025.81 2 2060.53C71.881 2081.85 108.456 2072.94 173.492 2055.4C176.137 2017.06 175.311 1995.49 164.6 1956.77Z" fill="#4E4E4E"/>
<path d="M624.453 1947.8C601.139 1955.72 588.065 1953.83 564.749 1947.8C549.447 1982.44 545.127 2002.6 553.316 2041.31C630.648 2051.25 745.133 2051.56 752.755 2046.44C760.377 2041.31 670.255 1988.37 624.453 1947.8Z" fill="#4E4E4E"/>
<path d="M164.6 1956.77H107.436C42.3401 2003.46 20.7096 2025.81 2 2060.53C71.881 2081.85 108.456 2072.94 173.492 2055.4C176.137 2017.06 175.311 1995.49 164.6 1956.77Z" stroke="black" stroke-width="2"/>
<path d="M624.453 1947.8C601.139 1955.72 588.065 1953.83 564.749 1947.8C549.447 1982.44 545.127 2002.6 553.316 2041.31C630.648 2051.25 745.133 2051.56 752.755 2046.44C760.377 2041.31 670.255 1988.37 624.453 1947.8Z" stroke="black" stroke-width="2"/>
<path d="M477.432 1274.02C429.973 1266.06 404.205 1266.72 359.224 1274.02C283.783 1399.71 234.784 1465.14 141.874 1577.7C133.143 1705.12 142.475 1777 166.024 1905.42L88.4893 1914.28C55.9268 1786.9 61.3521 1719.14 77.0498 1599.21C172.927 1445.93 240.336 1362.44 359.224 1213.28C409.794 1230.09 449.604 1226.19 525.732 1213.28C614.206 1359.18 639.994 1455.52 694.782 1621.99C688.379 1739.32 677.101 1806.28 649.024 1926.93L574.032 1914.28C606.988 1800.66 618.279 1736.69 622.332 1621.99C578.417 1470.99 546.198 1395.42 477.432 1274.02Z" fill="#907650" stroke="black" stroke-width="2"/>
<path d="M267.419 653.241C244.4 666.669 230.623 668.268 204.915 663.389C197.304 773.422 204.855 833.952 212.569 942.478C223.243 999.292 237.236 1000.41 263.592 997.027C319.55 947.971 326.666 908.576 337.576 840.991L328.647 942.478C320.31 1061.09 311.605 1127.31 263.592 1243.13C219.225 1341.24 186.254 1393.24 115.624 1481.63C82.9255 1527.92 72.7439 1556.26 64.6008 1609.75C167.852 1496.65 230.508 1443.93 313.34 1285C364.565 1199.93 387.214 1148.08 405.183 1040.16L426.867 743.31L448.552 587.274C402.301 588.973 376.185 588.42 332.474 611.377C304.777 683.301 294.343 725.985 280.211 804.202C281.02 741.235 280.43 706.658 267.419 653.241Z" fill="#FAFAFA"/>
<path d="M286.553 879.049L280.211 804.202M280.211 804.202C281.02 741.235 280.43 706.658 267.419 653.241C244.4 666.669 230.623 668.268 204.915 663.389C197.304 773.422 204.855 833.952 212.569 942.478C223.243 999.292 237.236 1000.41 263.592 997.027C319.55 947.971 326.666 908.576 337.576 840.991M280.211 804.202C294.343 725.985 304.777 683.301 332.474 611.377C376.185 588.42 402.301 588.973 448.552 587.274L426.867 743.31L405.183 1040.16C387.214 1148.08 364.565 1199.93 313.34 1285C230.508 1443.93 167.852 1496.65 64.6008 1609.75C72.7439 1556.26 82.9255 1527.92 115.624 1481.63C186.254 1393.24 219.225 1341.24 263.592 1243.13C311.605 1127.31 320.31 1061.09 328.647 942.478L337.576 840.991M337.576 840.991C352.062 783.747 356.66 751.456 364.364 693.835L357.986 748.385M357.986 748.385C382.708 687.197 401.253 654.879 440.899 599.96M357.986 748.385C368.839 769.938 378.858 780.586 401.356 797.859C376.704 812.955 360.874 818.682 345.23 846.066C354.364 922.595 362.786 965.002 380.946 1040.16" stroke="black" stroke-width="2"/>
<path d="M671.565 649.05C631.87 617.069 605.355 604.857 548.6 595.621C535.923 722.999 526.586 833.303 516.907 908.565L490.286 1189.71C490.576 1257.64 513.938 1304.84 566.347 1393.25C613.904 1501.45 649.181 1556.53 717.202 1651.49C644.139 1469.59 597.094 1369.32 561.276 1176.98C558.433 1124.72 564.421 1096.65 579.024 1047.23C602.897 963.307 602.295 916.75 606.913 833.509C613.678 894.968 615.185 928.87 630.999 992.525C657.99 1015.72 673.351 1014.57 700.722 986.165C761.367 914.169 796.122 870.761 861.718 778.808C835.548 775.39 820.962 775.144 793.263 741.916C759.707 805.653 739.278 840.606 685.509 894.571C686.244 803.484 682.915 749.512 671.565 649.05Z" fill="#FAFAFA"/>
<path d="M519.443 1051.04L589.165 875.489L551.135 808.066L600.575 773.719L561.276 609.614M625.928 684.67L606.913 828.421M548.6 595.621C605.355 604.857 631.87 617.069 671.565 649.05C682.915 749.512 686.244 803.484 685.509 894.571C739.278 840.606 759.707 805.653 793.263 741.916C820.962 775.144 835.548 775.39 861.718 778.808C796.122 870.761 761.367 914.169 700.722 986.165C673.351 1014.57 657.99 1015.72 630.999 992.525C615.185 928.87 613.678 894.968 606.913 833.509C602.295 916.75 602.897 963.307 579.024 1047.23C564.421 1096.65 558.433 1124.72 561.276 1176.98C597.094 1369.32 644.139 1469.59 717.202 1651.49C649.181 1556.53 613.904 1501.45 566.347 1393.25C513.938 1304.84 490.576 1257.64 490.286 1189.71L516.907 908.565C526.586 833.303 535.923 722.999 548.6 595.621Z" stroke="black" stroke-width="2"/>
<path d="M540.367 621.169C503.391 646.496 482.593 646.241 445.445 612.315C420.759 845.537 407.546 977.525 369.258 1184.07H480.417L540.367 621.169Z" fill="#9EE1E0"/>
<path d="M430.458 847.594C461.153 865.374 478.363 865.855 509.143 855.184M445.445 612.315C482.593 646.241 503.391 646.496 540.367 621.169L480.417 1184.07H369.258C407.546 977.525 420.759 845.537 445.445 612.315Z" stroke="black" stroke-width="2"/>
<path d="M543.108 588.5C509.011 590.848 490.606 587.139 459.75 566.407C453.736 573.939 451.159 582.589 448.552 608.137C482.443 637.708 501.572 640.703 535.643 619.184C542.959 611.466 546.82 606.909 543.108 588.5Z" fill="#E0D6CD" stroke="black" stroke-width="2"/>
<path d="M419.914 522.496H391.812C390.708 508.488 392.449 499.42 398.199 481.851C367.976 485.285 355.644 482.484 335.608 475.5C339.542 454.225 346.321 441.766 368.819 418.343L299.842 377.698C321.453 355.174 338.468 345.665 373.929 331.972C344.776 304.183 325.494 292.206 285.791 277.355C327.328 258.166 351.868 251.383 398.199 246.871C369.363 195.312 358.698 164.982 349.659 108.423C399.269 136.683 429.136 148.641 487.615 163.04C507.592 114.337 513.368 78.2025 516.994 3C560.69 51.1828 576.35 80.233 591.082 135.097C640.521 89.2388 667.869 70.8336 716.264 44.9153C714.771 74.5122 724.051 86.4294 706.045 123.665C681.294 156.621 678.583 170.587 681.775 192.254C740.08 205.773 773.202 203.039 832.504 192.254C795.147 205.827 779.187 217.511 760.972 246.871C746.224 276.555 730.458 287.182 706.045 309.109C744.697 330.395 766.181 332.504 804.402 331.972C761.86 352.94 736.126 360.017 706.045 411.992C713.643 437.338 729.501 445.279 760.972 457.718C748.924 468.238 734.105 470.508 695.826 469.149C699.733 482.609 701.949 495.965 706.045 535.198C680.65 533.807 669.124 529.228 651.118 517.415C650.338 533.103 648.947 541.977 643.454 558.061L630.68 549.169L651.118 517.415C656.676 506.986 659.055 497.782 662.614 478.04C670.188 447.831 673.337 429.321 676.665 392.94C684.234 331.833 683.345 297.191 665.169 234.169C644.113 195.268 627.12 176.292 559.147 163.04C510.868 170.349 484.702 176.966 449.294 220.198C432.077 254.742 423.842 275.121 414.805 315.46C408.283 342.694 407.086 358.405 405.863 386.589C404.662 408.213 404.211 420.189 405.863 439.936C399.689 456.191 398.204 465.376 398.199 481.851C403.382 499.229 409.147 507.666 419.914 522.496Z" fill="#B3DCF2"/>
<path d="M398.199 481.851C392.449 499.42 390.708 508.488 391.812 522.496H419.914C409.147 507.666 403.382 499.229 398.199 481.851ZM398.199 481.851C367.976 485.285 355.644 482.484 335.608 475.5C339.542 454.225 346.321 441.766 368.819 418.343L299.842 377.698C321.453 355.174 338.468 345.665 373.929 331.972C344.776 304.183 325.494 292.206 285.791 277.355C327.328 258.166 351.868 251.383 398.199 246.871C369.363 195.312 358.698 164.982 349.659 108.423C399.269 136.683 429.136 148.641 487.615 163.04C507.592 114.337 513.368 78.2025 516.994 3C560.69 51.1828 576.35 80.233 591.082 135.097C640.521 89.2388 667.869 70.8336 716.264 44.9153C714.771 74.5122 724.051 86.4294 706.045 123.665C681.294 156.621 678.583 170.587 681.775 192.254C740.08 205.773 773.202 203.039 832.504 192.254C795.147 205.827 779.187 217.511 760.972 246.871C746.224 276.555 730.458 287.182 706.045 309.109C744.697 330.395 766.181 332.504 804.402 331.972C761.86 352.94 736.126 360.017 706.045 411.992C713.643 437.338 729.501 445.279 760.972 457.718C748.924 468.238 734.105 470.508 695.826 469.149C699.733 482.609 701.949 495.965 706.045 535.198C680.65 533.807 669.124 529.228 651.118 517.415M398.199 481.851C398.204 465.376 399.689 456.191 405.863 439.936C404.211 420.189 404.662 408.213 405.863 386.589C407.086 358.405 408.283 342.694 414.805 315.46C423.842 275.121 432.077 254.742 449.294 220.198C484.702 176.966 510.868 170.349 559.147 163.04C627.12 176.292 644.113 195.268 665.169 234.169C683.345 297.191 684.234 331.833 676.665 392.94C673.337 429.321 670.188 447.831 662.614 478.04C659.055 497.782 656.676 506.986 651.118 517.415M651.118 517.415C650.338 533.103 648.947 541.977 643.454 558.061L630.68 549.169L651.118 517.415Z" stroke="black" stroke-width="2"/>
<path d="M399.009 1188.24H365.705L356.738 1213.28L399.009 1218.85V1188.24Z" fill="#423E25"/>
<path d="M452.809 1225.8V1188.24L455.37 1189.63L486.113 1188.24V1218.85L452.809 1225.8Z" fill="#423E25"/>
<path d="M399.009 1188.24H365.705L356.738 1213.28L399.009 1218.85V1188.24Z" stroke="black" stroke-width="2"/>
<path d="M452.809 1225.8V1188.24L455.37 1189.63L486.113 1188.24V1218.85L452.809 1225.8Z" stroke="black" stroke-width="2"/>
<path d="M409.664 441.75C401.482 449.881 399.281 460.144 400.711 491.524C420.27 519.94 433.635 536.091 464.663 565.547C492.141 589.413 510.057 592.776 543.963 591.072C595.105 584.486 620.88 572.217 655.238 515.773C659.221 508.907 660.878 501.975 661.634 477.486C704.247 463.185 703.201 449.527 673.145 418.778C680.216 371.445 684.391 345.058 678.261 288.6C673.864 250.481 671.874 229.133 629.658 189.052C586.491 166.023 560.185 155.605 504.314 178.842C480.307 187.024 468.013 201.276 448.035 224.787L447.943 225.02C423.167 287.899 409.096 323.608 404.39 389.141C366.817 413.291 372.877 430.944 409.664 441.75Z" fill="#E0D6CD" stroke="black" stroke-width="2"/>
<path d="M474.4 433.82C454.676 430.859 444.998 434.443 429.873 448.711L423.512 478.493C424.921 505.619 440.34 518.417 487.123 538.058C513.746 544.562 534.836 545.786 578.721 545.503C616.267 531.516 637.851 524.095 630.882 474.771C631.726 459.456 627.57 452.913 586.355 456.157L565.999 464.843C543.721 466.907 532.577 466.022 515.111 461.121C502.044 447.446 492.593 442.04 474.4 433.82Z" fill="#7F3438" stroke="black" stroke-width="2"/>
<path d="M482.96 462.351C473.032 454.661 471.821 448.983 475.5 437.032L499.122 449.089L519.013 464.762L541.391 468.379H545.121L566.255 467.174L589.876 458.734H611.011C612.104 467.411 610.564 471.376 601.065 475.613C592.711 471.408 591.347 468.048 590.67 463.849C591.595 471.689 590.298 477.197 581.174 485.258C573.064 479.191 570.374 474.982 566.255 467.174C567.944 473.765 567.688 477.461 566.255 484.053C563.557 488.825 561.065 490.429 555.066 491.286C550.312 490.303 547.561 489.97 545.121 482.847C543.639 477.013 543.809 473.867 545.121 468.379H541.391C542.641 474.956 542.681 478.637 540.148 485.258C532.334 487.415 527.965 488.405 520.256 484.053C518.021 478.659 518.124 473.98 519.013 464.762C518.462 467.855 515.791 471.589 507.824 481.641C498.731 470.603 496.392 463.61 499.122 449.089C493.288 457.159 489.562 460.503 482.96 462.351Z" fill="#E4D7B7"/>
<path d="M499.122 449.089C493.288 457.159 489.562 460.503 482.96 462.351C473.032 454.661 471.821 448.983 475.5 437.032L499.122 449.089ZM499.122 449.089C496.392 463.61 498.731 470.603 507.824 481.641C515.791 471.589 518.462 467.855 519.013 464.762M499.122 449.089L519.013 464.762M519.013 464.762C518.124 473.98 518.021 478.659 520.256 484.053C527.965 488.405 532.334 487.415 540.148 485.258C542.681 478.637 542.641 474.956 541.391 468.379M519.013 464.762L541.391 468.379M541.391 468.379H545.121M545.121 468.379C543.809 473.867 543.639 477.013 545.121 482.847C547.561 489.97 550.312 490.303 555.066 491.286C561.065 490.429 563.557 488.825 566.255 484.053C567.688 477.461 567.944 473.765 566.255 467.174M545.121 468.379L566.255 467.174M566.255 467.174C570.374 474.982 573.064 479.191 581.174 485.258C592.153 475.557 591.799 469.554 589.876 458.734M566.255 467.174L589.876 458.734M589.876 458.734C591.298 465.669 589.607 469.846 601.065 475.613C610.564 471.376 612.104 467.411 611.011 458.734H589.876Z" stroke="black" stroke-width="2"/>
<path d="M444.379 511.736C446.228 509.106 448.026 507.976 455.681 507.98C464.293 513.231 464.397 517.504 463.215 525.508C465.938 520.947 467.768 518.683 473.26 516.744C484.737 518.546 484.496 523.954 483.306 534.272C483.295 534.368 483.285 534.46 483.275 534.55L484.782 534.891C486.964 530.594 490.76 520.686 492.096 521.752C500.627 519.98 503.502 520.614 505.909 524.256L509.676 540.532C512.552 534.412 514.242 531.143 519.722 530.516C523.626 529.684 525.867 529.708 529.767 530.516C534.053 533.922 536.267 536.04 537.302 543.036C539.042 535.741 540.589 532.535 547.347 533.02C556.311 535.012 557.748 538.687 559.904 545.54C560.608 537.357 561.933 533.285 572.462 530.516C581.537 532.104 585.229 533.398 583.763 538.028C583.115 542.8 584.483 541.958 586.274 541.784L559.904 545.54L537.302 543.036L509.676 540.532L484.782 534.891C483.628 537.163 482.925 537.867 483.275 534.55L482.05 534.272C474.015 533.085 469.475 532.533 463.215 525.508C454.541 521.5 450.47 518.42 444.379 511.736Z" fill="#E4D7B7"/>
<path d="M463.215 525.508C464.397 517.504 464.293 513.231 455.681 507.98C448.026 507.976 446.228 509.106 444.379 511.736C450.47 518.42 454.541 521.5 463.215 525.508ZM463.215 525.508C465.938 520.947 467.768 518.683 473.26 516.744C484.737 518.546 484.496 523.954 483.306 534.272C482.117 544.591 490.035 520.107 492.096 521.752C500.627 519.98 503.502 520.614 505.909 524.256L509.676 540.532M463.215 525.508C469.475 532.533 474.015 533.085 482.05 534.272L509.676 540.532M509.676 540.532C512.552 534.412 514.242 531.143 519.722 530.516C523.626 529.684 525.867 529.708 529.767 530.516C534.053 533.922 536.267 536.04 537.302 543.036M509.676 540.532L537.302 543.036M537.302 543.036C539.042 535.741 540.589 532.535 547.347 533.02C556.311 535.012 557.748 538.687 559.904 545.54M537.302 543.036L559.904 545.54M559.904 545.54C560.608 537.357 561.933 533.285 572.462 530.516C581.537 532.104 585.229 533.398 583.763 538.028C583.115 542.8 584.483 541.958 586.274 541.784L559.904 545.54Z" stroke="black" stroke-width="2"/>
<path d="M538.345 232.81C470.439 234.104 449.565 237.433 459.069 250.465C476.346 256.84 503.29 257.488 571.79 255.173L620.098 265.766C653.003 271.508 666.388 272.662 659.736 262.235C654.752 259.716 651.654 258.19 632.485 250.465C600.846 234.71 579.892 231.468 538.345 232.81Z" fill="#B3DCF2" stroke="black" stroke-width="2"/>
<path d="M523.404 496.077C512.333 498.198 507.972 502.765 502.807 515.868C510.385 517.669 513.071 520.686 512.5 533.02C516.02 527.233 519.207 525.731 528.251 526.423C537.262 519.476 539.997 515.172 540.367 506.632C540.023 496.443 536.143 494.161 523.404 496.077Z" fill="#E25960" stroke="black" stroke-width="2"/>
<path d="M410.992 438.423C424.349 421.85 434.269 418.754 452.876 415.514M614.068 440.969C645.774 449.266 651.54 458.058 657.222 475.333C656.739 525.431 639.259 539.493 600.106 558.061M575.991 398.969C600.777 418.763 615.819 420.527 645.799 406.605M437.645 383.696C464.87 404.017 480.53 403.832 508.722 396.423M526.491 378.605V428.242C536.894 448.762 542.739 446.469 553.145 428.242L556.953 383.696" stroke="black" stroke-width="2"/>
<path d="M482.663 274.27C446.261 279.31 435.814 291.786 431.859 328.107C435.715 358.243 447.801 367.37 482.663 373.18C520.66 370.892 532.957 360.611 537.278 324.351C537.625 292.547 528.449 280.002 482.663 274.27Z" fill="white"/>
<path d="M608.404 288.042C578.781 291.338 567.88 299.177 562.68 328.107C556.992 363.412 565.492 377.074 608.404 386.952C651.311 381.163 665.983 370.066 665.559 328.107C658.969 307.12 648.72 297.575 608.404 288.042Z" fill="white"/>
<path d="M482.663 274.27C446.261 279.31 435.814 291.786 431.859 328.107C435.715 358.243 447.801 367.37 482.663 373.18C520.66 370.892 532.957 360.611 537.278 324.351C537.625 292.547 528.449 280.002 482.663 274.27Z" stroke="black" stroke-width="2"/>
<path d="M608.404 288.042C578.781 291.338 567.88 299.177 562.68 328.107C556.992 363.412 565.492 377.074 608.404 386.952C651.311 381.163 665.983 370.066 665.559 328.107C658.969 307.12 648.72 297.575 608.404 288.042Z" stroke="black" stroke-width="2"/>
<path d="M444.379 323.755V326.139V327.332V329.717H453.396L455.972 328.524V322.562L452.108 320.177L449.531 321.37L446.955 323.755H444.379Z" fill="black"/>
<path d="M649.184 344.025L644.032 345.218L640.168 346.41L641.456 352.372L645.32 353.564H653.049V348.795V344.025H649.184Z" fill="black"/>
<path d="M444.379 323.755V326.139V327.332V329.717H453.396L455.972 328.524V322.562L452.108 320.177L449.531 321.37L446.955 323.755H444.379Z" stroke="black" stroke-width="2"/>
<path d="M649.184 344.025L644.032 345.218L640.168 346.41L641.456 352.372L645.32 353.564H653.049V348.795V344.025H649.184Z" stroke="black" stroke-width="2"/>
</svg>
