<svg width="1105" height="2075" viewBox="0 0 1105 2075" fill="none" xmlns="http://www.w3.org/2000/svg">
<path d="M256.517 702.193C237.896 726.462 230.589 739.349 229.227 759.648L292.578 735.303C277.412 708.389 273.053 692.957 268.212 665.188C254.912 621.326 252.829 589.65 251.644 529.829C248.892 454.365 251.731 435.539 268.212 353.57C339.04 228.321 386.914 199.344 521.615 251.321C574.632 280.258 570.162 299.274 586.915 331.173C598.556 367.74 599.953 381.945 601.534 406.156C607.61 477.651 610.277 517.736 601.534 589.232H609.331C630.928 569.528 636.274 561.155 645.392 546.384C626.38 537.459 619.103 526.838 609.331 502.563V438.292L638.57 415.894L684.377 370.125C661.927 372.214 640.27 362.414 601.534 344.806C633.946 290.568 643.868 258.222 658.062 199.709C618.123 203.99 595.709 211.196 555.727 226.976C558.442 146.139 560.743 100.731 522.59 24.4237C493.323 69.4405 476.904 100.14 447.543 179.259C387.938 99.1331 348.842 58.7149 258.466 3C274.33 88.0541 279.792 135.333 269.187 217.237C229.715 227.647 183.445 216.462 105.45 199.709C127.772 252.768 151.328 287.834 199.988 353.57C147.819 373.483 141.602 371.127 25.5305 428.553C65.8401 455.407 106.647 473.28 194.141 507.432C166.367 530.303 130.098 541.579 89.8558 571.703C126.469 602.293 154.727 616.376 211.684 638.896C191.811 655.396 180.098 663.576 166.851 692.455C188.141 701.491 216.273 700.383 256.517 702.193Z" fill="#B2DCEF" stroke="black" stroke-width="2"/>
<path d="M400.802 817.557C338.608 803.434 312.202 786.679 286.871 734.056C267.208 681.742 251.964 654.501 251.226 592.846C193.539 556.153 184.409 537.839 251.226 513.3C245.696 450.184 249.889 415.244 265.263 353.446C303.886 276.661 355.918 219.711 412.588 232.078C508.123 234.914 555.015 246.66 587.414 345.679C607.571 462.874 616.287 528.674 587.414 647.642C587.579 672.213 585.467 685.076 576.61 705.898C565.848 767.042 553.928 799.13 451.875 826.295C439.228 825.07 428.37 823.259 400.802 817.557Z" fill="#DDD8D2" stroke="black" stroke-width="2"/>
<path d="M942.358 990.327C931.019 1030.1 932.536 1050.47 934.507 1086.97L962.967 1131.87C971.517 1129.26 976.268 1127.41 983.577 1113.33C990.081 1115.05 996.871 1114.84 1012.04 1113.33C1023.21 1112.48 1029.18 1106.36 1039.52 1089.9C1041.6 1066.6 1042.21 1051.15 1035.59 1024.49L1050.31 1013.76C1057.33 1002.71 1052.36 1002.21 1045.4 1000.09C1060.58 981.691 1074.22 977.026 1101.34 971.779C1105.25 965.54 1106.65 962.139 1092.51 958.112C1076.87 953.133 1062.9 957.488 1021.85 987.398C1042.9 959.709 1056.81 944.55 1090.55 919.065C1098.46 904.308 1093.2 903.192 1076.81 906.375C1042.94 927.423 1026.62 945.818 998.298 980.565C1018.92 947.312 1032.49 928.605 1074.85 894.66C1079.58 887.838 1082.05 884.054 1074.85 880.017C1024.91 896.551 1004.32 913.495 978.67 955.184C981.059 933.177 980.707 921.251 1017.93 890.756C1025.26 886.631 1028.15 881.919 1033.63 874.16C1031.46 865.523 1028.7 862.347 1012.04 869.279C968.838 905.738 951.376 930.744 942.358 990.327Z" fill="#DCD7D4"/>
<path d="M791.222 1497.94C781.636 1512.43 775.05 1518.36 755.892 1515.52C742.643 1532.61 739.893 1542.76 747.06 1562.37C778.759 1568.22 796.351 1568.76 827.534 1564.33C844.564 1553.8 850.954 1547.64 854.032 1536.02C858.845 1513.36 862.483 1502.22 873.66 1490.13C890.09 1470.2 904.136 1470.01 929.599 1470.61C939.375 1462.57 940.59 1458.63 924.692 1454.02L911.934 1449.14C919.364 1443.5 924.272 1442.83 933.525 1443.28C947.868 1438.87 952.284 1436 948.246 1429.61C948.246 1429.61 940.169 1422.14 932.543 1421.8C938.491 1416.03 942.801 1413.35 953.153 1410.09C957.236 1405.74 958.37 1403.58 950.208 1402.28C925.549 1401.95 916.161 1404.43 903.102 1411.06C867.428 1429.05 854.35 1442.03 831.672 1464.55L830.478 1465.73C848.869 1447.24 852.959 1440.48 883.474 1414.97C903.72 1404.09 914.637 1398.17 926.655 1390.56C931.384 1379.85 928.359 1378.37 917.822 1379.83C861.334 1400.89 848.068 1418.1 825.571 1449.14C809.538 1471.71 803.391 1480.52 793.594 1494.55L791.222 1497.94Z" fill="#DCD7D4"/>
<path d="M1035.59 1024.49L1050.31 1013.76C1057.33 1002.71 1052.36 1002.21 1045.4 1000.09C1060.58 981.691 1074.22 977.026 1101.34 971.779C1105.25 965.54 1106.65 962.139 1092.51 958.112C1076.87 953.133 1062.9 957.488 1021.85 987.398C1042.9 959.709 1056.81 944.55 1090.55 919.065C1098.46 904.308 1093.2 903.192 1076.81 906.375C1042.94 927.423 1026.62 945.818 998.297 980.565C1018.92 947.312 1032.49 928.605 1074.85 894.66C1079.58 887.838 1082.05 884.054 1074.85 880.017C1024.91 896.551 1004.32 913.495 978.67 955.184C981.059 933.177 980.707 921.251 1017.93 890.756C1025.26 886.631 1028.15 881.919 1033.63 874.16C1031.46 865.523 1028.7 862.347 1012.04 869.279C968.838 905.738 951.376 930.744 942.358 990.327C931.019 1030.1 932.536 1050.47 934.507 1086.97L962.967 1131.87C971.517 1129.26 976.268 1127.41 983.577 1113.33C990.081 1115.05 996.871 1114.84 1012.04 1113.33C1023.21 1112.48 1029.18 1106.36 1039.52 1089.9C1041.6 1066.6 1042.21 1051.15 1035.59 1024.49ZM1035.59 1024.49L998.297 1055.73M932.543 1421.8C938.491 1416.03 942.801 1413.35 953.153 1410.09C957.236 1405.74 958.37 1403.58 950.208 1402.28C925.549 1401.95 916.161 1404.43 903.101 1411.06C866.807 1429.37 853.901 1442.49 830.478 1465.73C848.869 1447.24 852.959 1440.48 883.474 1414.97C903.72 1404.09 914.637 1398.17 926.655 1390.56C931.384 1379.85 928.359 1378.37 917.822 1379.83C861.334 1400.89 848.068 1418.1 825.571 1449.14C808.284 1473.48 802.49 1481.81 791.222 1497.94C781.636 1512.43 775.05 1518.36 755.892 1515.52C742.643 1532.61 739.893 1542.76 747.06 1562.37C778.759 1568.22 796.351 1568.76 827.534 1564.33C844.564 1553.8 850.954 1547.64 854.032 1536.02C858.845 1513.36 862.483 1502.22 873.66 1490.13C890.09 1470.2 904.136 1470.01 929.599 1470.61C939.375 1462.57 940.59 1458.63 924.692 1454.02L911.934 1449.14C919.364 1443.5 924.272 1442.83 933.525 1443.28C947.868 1438.87 952.284 1436 948.246 1429.61C948.246 1429.61 940.169 1422.14 932.543 1421.8ZM932.543 1421.8C882.458 1426.7 860.954 1439.81 833.422 1480.37M843.236 1497.94C857.276 1466.55 866.183 1450 909.971 1449.14M970.818 1027.42L1004.19 1009.85L1044.42 1001.06" stroke="black" stroke-width="2"/>
<path d="M990.269 1096.75C1004.44 1097.35 1008.85 1093.26 1009.88 1077.34C1007.09 1068.12 1007.97 1061.6 1009.88 1049.76" stroke="black" stroke-width="2"/>
<path d="M191.35 990.954L170.718 1028.77L191.35 1052.04L194.163 1124.76L151.025 1161.6L183.848 1441.81" stroke="black" stroke-width="2"/>
<path d="M229.144 1669.19H186.295H182.399L186.295 1626.07H229.144V1669.19H297.313V1629.9H322.633L327.503 1669.19H297.313H229.144Z" fill="#453723"/>
<path d="M186.295 1669.19H229.144V1626.07H186.295L182.399 1669.19H297.313M297.313 1669.19V1629.9H322.633L327.503 1669.19H297.313Z" stroke="black" stroke-width="2"/>
<path d="M229.459 1666.38V1626.07L300.05 1630.76V1669.19L229.459 1666.38Z" fill="#EBD955" stroke="black" stroke-width="2"/>
<path d="M908.907 1171.41C895.09 1145.14 893.391 1128.7 899.541 1096.81C946.6 1122.48 948.23 1146.49 951.053 1189.35C942.662 1193.55 933.494 1189.71 908.907 1171.41Z" fill="#CCE4CA" stroke="black" stroke-width="2"/>
<path d="M694.756 1523.68C679.619 1550.87 682.229 1565.48 689.358 1591.4C732.78 1575.73 747.213 1559.97 728.449 1500.57C713.002 1506.36 705.552 1511.37 694.756 1523.68Z" fill="#D2E2CD" stroke="black" stroke-width="2"/>
<path d="M401.191 875.487C364.297 872.369 344.019 867.31 309.396 845.898C272.426 1041.58 253.644 1151.12 226.389 1345.96C201.825 1466.88 195.058 1527.94 194.163 1626.07L319.161 1620.15C321.941 1526.84 326.757 1469.57 349.434 1345.96C387.805 1172.32 406.253 1073.27 401.191 875.487Z" fill="#AEE5E2" stroke="black" stroke-width="2"/>
<path d="M405.935 822.446C363.704 810.839 341.404 799.615 306.337 763.568C288.43 787.003 284.204 800.684 280.441 825.44C314.249 858.368 339.724 866.028 389.004 873.34L405.935 822.446Z" fill="#DDD8D2" stroke="black" stroke-width="2"/>
<path d="M347.111 538.065C371.715 564.077 391.537 568.938 438.84 558.487M557.605 561.405C588.435 559.235 601.798 554.891 602.022 528.341" stroke="black" stroke-width="2"/>
<path d="M491.19 559.061C498.873 592.1 507.635 608.74 538.623 615.421C557.334 602.962 556.587 595.744 551.469 582.792C546.831 568.849 540.855 549.655 531.705 520.5M364.702 663.87C349.053 673.32 345.208 681.88 347.903 703.421C370.582 715.911 380.242 714.039 396.324 707.376M371.619 689.578C442.795 664.83 492.537 665.054 587.044 673.758M587.044 647.061C607.342 656.587 615.571 664.136 621.63 683.646C609.074 704.203 600.463 706.185 584.079 703.421" stroke="black" stroke-width="2"/>
<path d="M361.795 351.312C340.873 349.523 335.69 344.709 341.475 327.353C353.47 313.282 358.653 312.026 367.601 311.061C396.459 298.812 415.806 309.371 444.043 322.561C472.54 344.33 481.656 351.41 492.425 359.937C517.371 375.983 515.964 377.59 539.839 359.937C557.399 341.143 568.844 333.048 594.994 327.353C616.056 332.2 618.128 339.666 607.573 359.937C603.71 362.895 598.475 364.569 580.479 367.604C569.338 378.161 560.568 385.265 539.839 400.188C517.102 410.636 504.139 408.237 480.813 396.354C456.607 373.209 441.981 362.524 414.047 347.478C389.269 333.999 378.636 337.613 361.795 351.312Z" fill="#B6E0F4"/>
<path d="M414.047 281.352C419.431 281.655 422.913 282.186 430.497 284.227C451.172 288.968 470.609 304.009 503.069 327.353C524.636 333.45 533.717 331.825 543.709 318.728M341.475 327.353C335.69 344.709 340.873 349.523 361.795 351.312C378.636 337.613 389.269 333.999 414.047 347.478C441.981 362.524 456.607 373.209 480.813 396.354C504.139 408.237 517.102 410.636 539.839 400.188C560.568 385.265 569.338 378.161 580.479 367.604C598.475 364.569 603.71 362.895 607.573 359.937C618.128 339.666 616.056 332.2 594.994 327.353C568.844 333.048 557.399 341.143 539.839 359.937C515.964 377.59 517.371 375.983 492.425 359.937C481.656 351.41 472.54 344.33 444.043 322.561C415.806 309.371 396.459 298.812 367.601 311.061C358.653 312.026 353.47 313.282 341.475 327.353Z" stroke="black" stroke-width="2"/>
<path d="M415.373 532.163L415.809 532.262C443.832 531.622 458.092 526.16 480.636 506.678C500.65 472.013 507.828 452.128 480.636 412.217C457.441 391.937 442.325 383.368 395.49 394.506C368.412 402.974 356.696 414.888 347.111 459.448C355.658 518.674 377.197 523.539 415.373 532.163Z" fill="white"/>
<path d="M557.075 388.602C532.013 401.979 520.373 412.658 518.372 456.496C520.065 494.181 529.323 510.836 566.75 529.31C593.216 531.256 606.475 527.357 624.805 503.727C644.553 475.054 648.056 456.161 626.74 412.217C609.066 387.641 592.383 384.773 557.075 388.602Z" fill="white"/>
<path d="M415.373 532.163L415.809 532.262C443.832 531.622 458.092 526.16 480.636 506.678C500.65 472.013 507.828 452.128 480.636 412.217C457.441 391.937 442.325 383.368 395.49 394.506C368.412 402.974 356.696 414.888 347.111 459.448C355.658 518.674 377.197 523.539 415.373 532.163Z" stroke="black" stroke-width="2"/>
<path d="M557.075 388.602C532.013 401.979 520.373 412.658 518.372 456.496C520.065 494.181 529.323 510.836 566.75 529.31C593.216 531.256 606.475 527.357 624.805 503.727C644.553 475.054 648.056 456.161 626.74 412.217C609.066 387.641 592.383 384.773 557.075 388.602Z" stroke="black" stroke-width="2"/>
<path d="M461.789 495.017L464.712 494.037V493.057H465.687H467.635L468.61 494.037L467.635 499.918V504.818V506.779L463.738 507.759L459.84 506.779H457.892L456.917 503.838V500.898V497.958L458.866 495.997L461.789 495.017Z" fill="black"/>
<path d="M601.119 501.878L600.145 504.818H599.171L600.145 508.739H603.068H607.94H612.811L613.786 504.818L612.811 500.898L611.837 496.977L607.94 497.958H604.042L601.119 501.878Z" fill="black"/>
<path d="M465.687 493.057L464.712 494.037M464.712 494.037L461.789 495.017L458.866 495.997L456.917 497.958V500.898V503.838L457.892 506.779H459.84L463.738 507.759L467.635 506.779V504.818V499.918L468.61 494.037L467.635 493.057H464.712V494.037ZM600.145 504.818L601.119 501.878L604.042 497.958H607.94L611.837 496.977L612.811 500.898L613.786 504.818L612.811 508.739H607.94H603.068H600.145L599.171 504.818H600.145Z" stroke="black" stroke-width="2"/>
<path d="M184.068 1669.19H326.635C328.592 1829.15 339.021 1914.95 354.954 2069.08H256.328C254.619 1953.71 254.089 1889.06 244.61 1773.09C211.878 1767.18 194.777 1767.24 166.491 1773.09C164.152 1895.14 160.852 1956.34 155.195 2061.26L154.773 2069.08H111.808C143.012 1957.65 159.609 1894.8 166.491 1773.09L179.185 1669.19H184.068Z" fill="#756951"/>
<path d="M166.491 1773.09C194.777 1767.24 211.878 1767.18 244.61 1773.09C254.089 1889.06 254.619 1953.71 256.328 2069.08H354.954C339.021 1914.95 328.592 1829.15 326.635 1669.19H184.068H179.185L166.491 1773.09ZM166.491 1773.09C164.095 1898.14 160.69 1959.31 154.773 2069.08H111.808C143.012 1957.65 159.609 1894.8 166.491 1773.09Z" stroke="black" stroke-width="2"/>
<path d="M935.815 1088.97C921.11 1095.44 913.627 1101.8 900.057 1112.35C892.596 1137.9 897.002 1151.96 918.419 1176.65C947.632 1162.54 956.868 1154.65 966.74 1140.6C949.552 1124.95 941.631 1114.66 935.815 1088.97Z" fill="#AEE5E2"/>
<path d="M758.96 1515.67L727.068 1506.91C702.351 1520.77 696.589 1534.04 696.143 1564.39C715.441 1570.26 727.037 1572.85 750.262 1575.1C743.528 1541.29 746.106 1528.99 758.96 1515.67Z" fill="#AEE5E2"/>
<path d="M935.815 1088.97C921.11 1095.44 913.627 1101.8 900.057 1112.35C892.596 1137.9 897.002 1151.96 918.419 1176.65C947.632 1162.54 956.868 1154.65 966.74 1140.6C949.552 1124.95 941.631 1114.66 935.815 1088.97Z" stroke="black" stroke-width="2"/>
<path d="M758.96 1515.67L727.068 1506.91C702.351 1520.77 696.589 1534.04 696.143 1564.39C715.441 1570.26 727.037 1572.85 750.262 1575.1C743.528 1541.29 746.106 1528.99 758.96 1515.67Z" stroke="black" stroke-width="2"/>
<path d="M389.391 1375.81C502.908 1434.78 588.773 1464.61 728.423 1500.62C691.031 1527.57 671.845 1537.72 688.924 1591.65C568.377 1558.1 484.365 1530.77 393.527 1482.93C387.906 1631.11 377.553 1930.26 398.408 2067.15L356.424 2073L338.85 1811.68C323.612 1679.12 311.715 1584.46 332.606 1448.38C306.142 1432.35 278.437 1414.32 248.579 1393.71C218.337 1368.09 229.753 1365.14 228.519 1337.78C190.888 1530.13 179.861 1636.67 170.913 1825.33C154.934 1943.47 142.498 1997.07 113.307 2067.15H2C26.47 1895.3 28.665 1797.46 21.5275 1621.53C23.444 1444.35 58.9004 1332.37 84.0155 1146.66C102.395 1042.93 117.878 995.642 148.456 917.517C168.717 853.687 186.59 826.147 228.519 789.78C294.291 771.549 307.11 790.822 309.558 850.236C304.363 951.329 303.801 1006.72 309.558 1101.81C318.077 1220.08 322.651 1284.78 319.322 1337.78C328.99 1343.22 338.408 1348.45 347.61 1353.49C366.786 1258.48 405.261 997.472 404.267 885.339C404.222 865.973 404.237 852.167 404.261 830.244L404.267 824.884C423.114 822.197 433.563 824.863 452.109 832.684C473.306 848.637 478.746 860.749 482.377 885.339C499.243 1112.57 515.469 1170.14 564.392 1284.15L567.321 1291.95C704.037 1226.38 776.851 1184.87 899.289 1101.81C892.045 1150.22 898.521 1172.54 947.131 1195.42C808.609 1298.91 723.602 1351.57 541.936 1423.59C519.478 1416.98 506.487 1407.27 482.377 1375.81C453.92 1332.95 440.336 1308.33 430.629 1260.75L434.534 1142.76C427.413 1157.35 424.14 1166.24 420.865 1184.69C407.169 1266.42 396.278 1313.51 389.391 1375.81Z" fill="#FCFAFB"/>
<path d="M434.534 1142.76L430.629 1260.75C440.336 1308.33 453.92 1332.95 482.377 1375.81C506.487 1407.27 519.478 1416.98 541.936 1423.59C723.602 1351.57 808.609 1298.91 947.131 1195.42C898.521 1172.54 892.045 1150.22 899.289 1101.81C776.851 1184.87 704.037 1226.38 567.321 1291.95L564.392 1284.15C515.469 1170.14 499.243 1112.57 482.377 885.339C478.746 860.749 473.306 848.637 452.109 832.684C433.563 824.863 423.114 822.197 404.267 824.884C404.24 850.018 404.219 864.441 404.267 885.339C405.261 997.472 366.786 1258.48 347.61 1353.49M434.534 1142.76L457.967 960.421M434.534 1142.76C427.413 1157.35 424.14 1166.24 420.865 1184.69C407.169 1266.42 396.278 1313.51 389.391 1375.81M393.527 1482.93C387.906 1631.11 377.553 1930.26 398.408 2067.15L356.424 2073C349.561 1970.95 345.713 1913.73 338.85 1811.68C323.612 1679.12 311.715 1584.46 332.606 1448.38M728.423 1500.62C561.577 1457.6 471.504 1423.39 319.322 1337.78C322.651 1284.78 318.077 1220.08 309.558 1101.81C303.801 1006.72 304.363 951.329 309.558 850.236C307.11 790.822 294.291 771.549 228.519 789.78C186.59 826.147 168.717 853.687 148.456 917.517C117.878 995.642 102.395 1042.93 84.0155 1146.66C58.9004 1332.37 23.444 1444.35 21.5275 1621.53C28.665 1797.46 26.47 1895.3 2 2067.15H113.307C142.498 1997.07 154.934 1943.47 170.913 1825.33C179.861 1636.67 190.888 1530.13 228.519 1337.78C229.753 1365.14 218.337 1368.09 248.579 1393.71C410.236 1505.29 508.789 1541.51 688.924 1591.65C671.845 1537.72 691.031 1527.57 728.423 1500.62Z" stroke="black" stroke-width="2"/>
</svg>
