<svg width="1105" height="2075" viewBox="0 0 1105 2075" fill="none" xmlns="http://www.w3.org/2000/svg">
<path d="M256.435 702.193C237.82 726.462 230.515 739.349 229.154 759.648L292.484 735.303C277.323 708.389 272.966 692.957 268.127 665.188C254.83 621.326 252.748 589.65 251.563 529.829C248.812 454.365 251.651 435.539 268.127 353.57C338.932 228.321 386.79 199.344 521.448 251.321C574.448 280.258 569.98 299.274 586.727 331.173C598.365 367.74 599.761 381.945 601.342 406.156C607.416 477.651 610.082 517.736 601.342 589.232H609.137C630.727 569.528 636.071 561.155 645.186 546.384C626.18 537.459 618.905 526.838 609.137 502.563V438.292L638.366 415.894L684.159 370.125C661.716 372.214 640.065 362.414 601.342 344.806C633.743 290.568 643.663 258.222 657.852 199.709C617.925 203.99 595.519 211.196 555.549 226.976C558.264 146.139 560.564 100.731 522.423 24.4237C493.166 69.4405 476.752 100.14 447.4 179.259C387.814 99.1331 348.731 58.7149 258.383 3C274.242 88.0541 279.703 135.333 269.101 217.237C229.642 227.647 183.386 216.462 105.416 199.709C127.731 252.768 151.28 287.834 199.925 353.57C147.772 373.483 141.556 371.127 25.5223 428.553C65.819 455.407 106.613 473.28 194.079 507.432C166.314 530.303 130.056 541.579 89.827 571.703C126.428 602.293 154.678 616.376 211.616 638.896C191.75 655.396 180.04 663.576 166.798 692.455C188.08 701.491 216.204 700.383 256.435 702.193Z" fill="#B2DCEF" stroke="black" stroke-width="2"/>
<path d="M451.731 826.296C439.088 825.07 428.234 823.26 400.674 817.557C339.196 803.593 312.698 787.054 287.63 735.808C272.697 690.464 266.003 664.496 258.651 616.861C206.292 582.241 198.863 565.136 254.148 541.817C246.555 469.257 249.441 428.006 265.179 353.446C303.789 276.661 355.805 219.711 412.457 232.079C507.961 234.914 554.838 246.66 587.227 345.679C607.378 462.874 616.09 528.675 587.227 647.642C587.392 672.214 585.28 685.077 576.426 705.899C565.668 767.042 553.751 799.131 451.731 826.296Z" fill="#DDD8D2"/>
<path d="M286.78 734.056C287.063 734.645 287.346 735.229 287.63 735.808M287.63 735.808C312.698 787.054 339.196 803.593 400.674 817.557C428.234 823.26 439.088 825.07 451.731 826.296C553.751 799.131 565.668 767.042 576.426 705.899C585.28 685.077 587.392 672.214 587.227 647.642C616.09 528.675 607.378 462.874 587.227 345.679C554.838 246.66 507.961 234.914 412.457 232.079C355.805 219.711 303.789 276.661 265.179 353.446C249.441 428.006 246.555 469.257 254.148 541.817C198.863 565.136 206.292 582.241 258.651 616.861C266.003 664.496 272.697 690.464 287.63 735.808Z" stroke="black" stroke-width="2"/>
<path d="M454.32 371.824C387.536 369.961 367.006 365.173 376.353 346.426C393.344 337.256 419.843 336.324 487.212 339.653L534.723 324.415C567.084 316.156 580.248 314.496 573.706 329.494C568.804 333.118 565.757 335.314 546.905 346.426C515.788 369.091 495.18 373.754 454.32 371.824Z" fill="#B3DCF2" stroke="black" stroke-width="2"/>
<path d="M942.058 990.327C930.723 1030.1 932.24 1050.47 934.21 1086.97L962.661 1131.87C971.208 1129.26 975.958 1127.41 983.264 1113.33C989.766 1115.05 996.554 1114.84 1011.72 1113.33C1022.88 1112.48 1028.85 1106.36 1039.19 1089.9C1041.27 1066.6 1041.88 1051.15 1035.26 1024.49L1049.98 1013.76C1057 1002.71 1052.03 1002.21 1045.07 1000.09C1060.24 981.691 1073.88 977.027 1100.99 971.779C1104.9 965.541 1106.3 962.139 1092.16 958.113C1076.53 953.133 1062.56 957.488 1021.53 987.398C1042.57 959.709 1056.47 944.551 1090.2 919.065C1098.11 904.308 1092.85 903.192 1076.47 906.375C1042.6 927.424 1026.29 945.818 997.98 980.565C1018.59 947.313 1032.16 928.605 1074.5 894.661C1079.23 887.838 1081.71 884.054 1074.5 880.018C1024.58 896.551 1004 913.495 978.358 955.184C980.748 933.177 980.395 921.251 1017.6 890.756C1024.93 886.631 1027.82 881.919 1033.3 874.161C1031.13 865.524 1028.37 862.348 1011.72 869.28C968.53 905.738 951.073 930.745 942.058 990.327Z" fill="#DCD7D4"/>
<path d="M790.971 1497.94C781.388 1512.43 774.804 1518.36 755.652 1515.52C742.408 1532.61 739.658 1542.76 746.823 1562.37C778.512 1568.22 796.099 1568.76 827.271 1564.33C844.295 1553.8 850.684 1547.64 853.761 1536.02C858.572 1513.36 862.21 1502.22 873.382 1490.14C889.807 1470.2 903.849 1470.01 929.304 1470.61C939.076 1462.57 940.291 1458.63 924.398 1454.02L911.644 1449.14C919.072 1443.5 923.979 1442.83 933.228 1443.28C947.567 1438.87 951.982 1436 947.944 1429.61C947.944 1429.61 939.87 1422.14 932.247 1421.8C938.192 1416.03 942.501 1413.35 952.85 1410.09C956.932 1405.74 958.065 1403.58 949.907 1402.28C925.255 1401.95 915.87 1404.43 902.815 1411.06C867.153 1429.05 854.078 1442.03 831.408 1464.55L830.215 1465.73C848.6 1447.24 852.689 1440.48 883.193 1414.97C903.433 1404.09 914.346 1398.17 926.361 1390.56C931.088 1379.85 928.064 1378.37 917.531 1379.83C861.061 1400.89 847.799 1418.1 825.309 1449.14C809.28 1471.71 803.135 1480.52 793.341 1494.55L790.971 1497.94Z" fill="#DCD7D4"/>
<path d="M1035.26 1024.49L1049.98 1013.76C1057 1002.71 1052.03 1002.21 1045.07 1000.09C1060.24 981.691 1073.88 977.027 1100.99 971.779C1104.9 965.541 1106.3 962.139 1092.16 958.113C1076.53 953.133 1062.56 957.488 1021.53 987.398C1042.57 959.709 1056.47 944.551 1090.2 919.065C1098.11 904.308 1092.85 903.192 1076.47 906.375C1042.6 927.424 1026.29 945.818 997.98 980.565C1018.59 947.313 1032.16 928.605 1074.5 894.661C1079.23 887.838 1081.71 884.054 1074.5 880.018C1024.58 896.551 1004 913.495 978.358 955.184C980.748 933.177 980.395 921.251 1017.6 890.756C1024.93 886.631 1027.82 881.919 1033.3 874.161C1031.13 865.524 1028.37 862.348 1011.72 869.28C968.53 905.738 951.073 930.745 942.058 990.327C930.723 1030.1 932.24 1050.47 934.21 1086.97L962.661 1131.87C971.208 1129.26 975.958 1127.41 983.264 1113.33C989.766 1115.05 996.554 1114.84 1011.72 1113.33C1022.88 1112.48 1028.85 1106.36 1039.19 1089.9C1041.27 1066.6 1041.88 1051.15 1035.26 1024.49ZM1035.26 1024.49L997.98 1055.73M932.247 1421.8C938.192 1416.03 942.501 1413.35 952.85 1410.09C956.932 1405.74 958.065 1403.58 949.907 1402.28C925.255 1401.95 915.87 1404.43 902.815 1411.06C866.532 1429.37 853.63 1442.49 830.215 1465.73C848.6 1447.24 852.689 1440.48 883.193 1414.97C903.433 1404.09 914.346 1398.17 926.361 1390.56C931.088 1379.85 928.064 1378.37 917.531 1379.83C861.061 1400.89 847.799 1418.1 825.309 1449.14C808.027 1473.48 802.235 1481.81 790.971 1497.94C781.388 1512.43 774.804 1518.36 755.652 1515.52C742.408 1532.61 739.658 1542.76 746.823 1562.37C778.512 1568.22 796.099 1568.76 827.271 1564.33C844.295 1553.8 850.684 1547.64 853.761 1536.02C858.572 1513.36 862.21 1502.22 873.382 1490.14C889.807 1470.2 903.849 1470.01 929.304 1470.61C939.076 1462.57 940.291 1458.63 924.398 1454.02L911.644 1449.14C919.072 1443.5 923.979 1442.83 933.228 1443.28C947.567 1438.87 951.982 1436 947.944 1429.61C947.944 1429.61 939.87 1422.14 932.247 1421.8ZM932.247 1421.8C882.178 1426.7 860.681 1439.81 833.158 1480.37M842.969 1497.94C857.004 1466.55 865.908 1450 909.682 1449.14M970.509 1027.42L1003.87 1009.85L1044.09 1001.07" stroke="black" stroke-width="2"/>
<path d="M989.955 1096.75C1004.12 1097.35 1008.53 1093.26 1009.56 1077.34C1006.77 1068.12 1007.65 1061.6 1009.56 1049.76" stroke="black" stroke-width="2"/>
<path d="M191.29 990.954L170.665 1028.77L191.29 1052.04L194.102 1124.76L150.977 1161.6L183.79 1441.81" stroke="black" stroke-width="2"/>
<path d="M229.071 1669.19H186.235H182.341L186.235 1626.07H229.071V1669.19H297.218V1629.9H322.53L327.398 1669.19H297.218H229.071Z" fill="#453723"/>
<path d="M186.235 1669.19H229.071V1626.07H186.235L182.341 1669.19H297.218M297.218 1669.19V1629.9H322.53L327.398 1669.19H297.218Z" stroke="black" stroke-width="2"/>
<path d="M229.387 1666.38V1626.07L299.955 1630.76V1669.19L229.387 1666.38Z" fill="#EBD955" stroke="black" stroke-width="2"/>
<path d="M908.617 1171.41C894.804 1145.14 893.106 1128.7 899.254 1096.81C946.298 1122.48 947.928 1146.49 950.75 1189.35C942.362 1193.55 933.196 1189.71 908.617 1171.41Z" fill="#CCE4CA" stroke="black" stroke-width="2"/>
<path d="M698.554 1530.02C687.275 1561.03 691.855 1576.13 702.453 1602.55C743.315 1579.6 755.457 1560.8 728.767 1500.61C714.26 1509.01 707.565 1515.4 698.554 1530.02Z" fill="#D2E2CD" stroke="black" stroke-width="2"/>
<path d="M401.065 875.487C364.182 872.369 343.91 867.31 309.298 845.898C272.341 1041.58 253.565 1151.12 226.318 1345.96C201.762 1466.88 194.997 1527.94 194.102 1626.07L319.061 1620.15C321.84 1526.84 326.654 1469.57 349.324 1345.96C387.683 1172.32 406.124 1073.27 401.065 875.487Z" fill="#AEE5E2" stroke="black" stroke-width="2"/>
<path d="M405.807 822.446C363.589 810.839 341.296 799.615 306.24 763.568C288.339 787.003 284.114 800.685 280.352 825.44C314.15 858.368 339.617 866.028 388.88 873.341L405.807 822.446Z" fill="#DDD8D2" stroke="black" stroke-width="2"/>
<path d="M347 538.066C371.596 564.077 391.412 568.938 438.7 558.487M557.428 561.405C588.248 559.235 601.606 554.891 601.83 528.341" stroke="black" stroke-width="2"/>
<path d="M491.033 559.062C498.713 592.1 507.473 608.741 538.451 615.422C557.156 602.962 556.409 595.744 551.293 582.792C546.656 568.85 540.682 549.656 531.536 520.5M364.585 663.871C348.942 673.321 345.097 681.881 347.792 703.422C370.464 715.911 380.121 714.039 396.197 707.377M371.501 689.579C461.885 718.046 510.711 715.791 586.856 673.759M586.856 647.062C607.148 656.587 615.375 664.137 621.432 683.646C608.879 704.204 600.271 706.186 583.893 703.422" stroke="black" stroke-width="2"/>
<path d="M415.241 532.163L415.676 532.262C443.69 531.621 457.946 526.159 480.483 506.678C500.49 472.013 507.666 452.128 480.483 412.217C457.295 391.937 442.184 383.368 395.363 394.505C368.295 402.974 356.583 414.888 347 459.448C355.545 518.673 377.077 523.539 415.241 532.163Z" fill="white"/>
<path d="M556.897 388.602C531.844 401.978 520.207 412.657 518.206 456.496C519.899 494.181 529.154 510.836 566.569 529.31C593.027 531.255 606.281 527.356 624.605 503.726C644.348 475.054 647.849 456.16 626.54 412.217C608.872 387.64 592.194 384.772 556.897 388.602Z" fill="white"/>
<path d="M415.241 532.163L415.676 532.262C443.69 531.621 457.946 526.159 480.483 506.678C500.49 472.013 507.666 452.128 480.483 412.217C457.295 391.937 442.184 383.368 395.363 394.505C368.295 402.974 356.583 414.888 347 459.448C355.545 518.673 377.077 523.539 415.241 532.163Z" stroke="black" stroke-width="2"/>
<path d="M556.897 388.602C531.844 401.978 520.207 412.657 518.206 456.496C519.899 494.181 529.154 510.836 566.569 529.31C593.027 531.255 606.281 527.356 624.605 503.726C644.348 475.054 647.849 456.16 626.54 412.217C608.872 387.64 592.194 384.772 556.897 388.602Z" stroke="black" stroke-width="2"/>
<path d="M463.139 461.229L466.061 460.248V459.268H467.035H468.983L469.957 460.248L468.983 466.129V471.03V472.99L465.087 473.97L461.19 472.99H459.242L458.268 470.05V467.109V464.169L460.216 462.209L463.139 461.229Z" fill="black"/>
<path d="M602.424 468.089L601.45 471.03H600.476L601.45 474.95H604.372H609.242H614.113L615.087 471.03L614.113 467.109L613.139 463.189L609.242 464.169H605.346L602.424 468.089Z" fill="black"/>
<path d="M467.035 459.268L466.061 460.248M466.061 460.248L463.139 461.229L460.216 462.209L458.268 464.169V467.109V470.05L459.242 472.99H461.19L465.087 473.97L468.983 472.99V471.03V466.129L469.957 460.248L468.983 459.268H466.061V460.248ZM601.45 471.03L602.424 468.089L605.346 464.169H609.242L613.139 463.189L614.113 467.109L615.087 471.03L614.113 474.95H609.242H604.372H601.45L600.476 471.03H601.45Z" stroke="black" stroke-width="2"/>
<path d="M184.01 1669.19H326.532C328.488 1829.15 338.913 1914.95 354.841 2069.08H256.247C254.539 1953.71 254.008 1889.06 244.533 1773.09C211.811 1767.18 194.715 1767.24 166.438 1773.09C164.1 1895.14 160.802 1956.34 155.146 2061.26L154.724 2069.08H111.773C142.967 1957.65 159.559 1894.8 166.438 1773.09L179.129 1669.19H184.01Z" fill="#756951"/>
<path d="M166.438 1773.09C194.715 1767.24 211.811 1767.18 244.533 1773.09C254.008 1889.06 254.539 1953.71 256.247 2069.08H354.841C338.913 1914.95 328.488 1829.15 326.532 1669.19H184.01H179.129L166.438 1773.09ZM166.438 1773.09C164.043 1898.14 160.639 1959.31 154.724 2069.08H111.773C142.967 1957.65 159.559 1894.8 166.438 1773.09Z" stroke="black" stroke-width="2"/>
<path d="M935.517 1088.97C920.817 1095.44 913.336 1101.8 899.77 1112.35C892.312 1137.9 896.716 1151.96 918.126 1176.65C947.33 1162.54 956.563 1154.65 966.432 1140.6C949.249 1124.95 941.331 1114.66 935.517 1088.97Z" fill="#AEE5E2"/>
<path d="M758.718 1515.68L726.836 1506.91C702.127 1520.77 696.367 1534.04 695.921 1564.39C715.213 1570.26 726.805 1572.85 750.023 1575.1C743.291 1541.29 745.868 1528.99 758.718 1515.68Z" fill="#AEE5E2"/>
<path d="M935.517 1088.97C920.817 1095.44 913.336 1101.8 899.77 1112.35C892.312 1137.9 896.716 1151.96 918.126 1176.65C947.33 1162.54 956.563 1154.65 966.432 1140.6C949.249 1124.95 941.331 1114.66 935.517 1088.97Z" stroke="black" stroke-width="2"/>
<path d="M758.718 1515.68L726.836 1506.91C702.127 1520.77 696.367 1534.04 695.921 1564.39C715.213 1570.26 726.805 1572.85 750.023 1575.1C743.291 1541.29 745.868 1528.99 758.718 1515.68Z" stroke="black" stroke-width="2"/>
<path d="M389.267 1375.81C502.748 1434.78 588.586 1464.61 728.191 1500.62C690.811 1527.57 684.764 1550.05 701.838 1603.98C565.586 1566.04 476.024 1536.07 370.5 1475.4C364.882 1623.58 377.433 1930.26 398.282 2067.15L356.311 2073L338.742 1811.68C323.509 1679.12 311.116 1588.42 332 1452.34C309.679 1438.46 286.396 1423.14 261.633 1406.04C231.401 1380.42 229.68 1365.14 228.447 1337.78C190.827 1530.13 179.805 1636.67 170.859 1825.33C154.885 1943.47 142.453 1997.07 113.271 2067.15H2C26.4622 1895.3 28.6564 1797.46 21.5213 1621.53C23.4371 1444.35 58.8822 1332.37 83.9893 1146.66C102.363 1042.93 117.841 995.642 148.41 917.517C168.664 853.686 186.531 826.146 228.447 789.78C294.198 771.548 307.012 790.822 309.46 850.235C304.267 951.328 303.705 1006.72 309.46 1101.81C317.976 1220.08 322.549 1284.78 319.221 1337.78C329.061 1343.32 338.642 1348.64 348 1353.77C367.17 1258.75 405.132 997.472 404.138 885.339C404.094 865.972 404.109 852.166 404.132 830.243L404.138 824.883C422.98 822.196 433.425 824.862 451.965 832.684C473.156 848.637 478.594 860.748 482.223 885.339C499.084 1112.57 515.305 1170.14 564.213 1284.15L567.141 1291.95C703.813 1226.38 776.604 1184.87 899.002 1101.81C891.761 1150.22 898.235 1172.54 946.83 1195.42C808.352 1298.91 723.372 1351.57 541.763 1423.59C519.313 1416.98 506.326 1407.27 482.223 1375.81C453.776 1332.95 440.196 1308.33 430.492 1260.75L434.396 1142.76C427.277 1157.35 424.005 1166.24 420.731 1184.69C407.04 1266.42 396.152 1313.51 389.267 1375.81Z" fill="#FCFAFB"/>
<path d="M434.396 1142.76L430.492 1260.75C440.196 1308.33 453.776 1332.95 482.223 1375.81C506.326 1407.27 519.313 1416.98 541.763 1423.59C723.372 1351.57 808.352 1298.91 946.83 1195.42C898.235 1172.54 891.761 1150.22 899.002 1101.81C776.604 1184.87 703.813 1226.38 567.141 1291.95L564.213 1284.15C515.305 1170.14 499.084 1112.57 482.223 885.339C478.594 860.748 473.156 848.637 451.965 832.684C433.425 824.862 422.98 822.196 404.138 824.883C404.111 850.018 404.09 864.441 404.138 885.339C405.132 997.472 367.17 1258.75 348 1353.77M434.396 1142.76L457.822 960.421M434.396 1142.76C427.277 1157.35 424.005 1166.24 420.731 1184.69C407.04 1266.42 396.152 1313.51 389.267 1375.81M370.5 1475.4C364.882 1623.58 377.433 1930.26 398.282 2067.15L356.311 2073C349.45 1970.95 345.603 1913.73 338.742 1811.68C323.509 1679.12 311.116 1588.42 332 1452.34M728.191 1500.62C561.398 1457.6 471.354 1423.39 319.221 1337.78C322.549 1284.78 317.976 1220.08 309.46 1101.81C303.705 1006.72 304.267 951.328 309.46 850.235C307.012 790.822 294.198 771.548 228.447 789.78C186.531 826.146 168.664 853.686 148.41 917.517C117.841 995.642 102.363 1042.93 83.9893 1146.66C58.8822 1332.37 23.4371 1444.35 21.5213 1621.53C28.6564 1797.46 26.4622 1895.3 2 2067.15H113.271C142.453 1997.07 154.885 1943.47 170.859 1825.33C179.805 1636.67 190.827 1530.13 228.447 1337.78C229.68 1365.14 231.401 1380.42 261.633 1406.04C423.239 1517.62 521.76 1553.84 701.838 1603.98C684.764 1550.05 690.811 1527.57 728.191 1500.62Z" stroke="black" stroke-width="2"/>
</svg>
