<svg width="1586" height="2074" viewBox="0 0 1586 2074" fill="none" xmlns="http://www.w3.org/2000/svg">
<path d="M859.857 621.361H812.499L812.976 620.436C834.9 577.935 847.329 553.841 853.092 440.047C854.383 379.42 856.518 345.487 847.679 284.442C834.604 253.233 826.745 235.737 769.2 204.61C717.22 187.363 688.377 187.734 637.951 214.082C577.912 249.263 561.085 287.446 552.707 379.158V533.41L574.356 615.948C564.96 621.239 553.254 620.671 525.645 615.948C545.346 597.496 547.779 586.381 544.588 565.884C508.663 572.106 484.997 580.973 467.462 559.119C494.258 541.524 505.197 531.341 489.111 510.408L413.339 476.581L508.055 411.632C406.408 358.138 372.673 337.346 402.514 335.859C472.215 324.569 493.964 314.754 516.173 293.914L467.462 157.252C537.718 187.543 567.707 188.702 614.949 180.254L625.773 3C697.654 61.9186 721.269 97.1692 743.492 162.664C805.874 142.943 834.222 121.344 869.329 58.4766C881.17 89.9734 879.861 120.379 847.679 222.2C871.278 227.643 885.489 230.286 961.339 214.082L878.8 318.269C912.551 362.319 930.24 374.244 961.339 373.746C919.109 388.326 894.237 395.139 878.8 440.047C890.121 469.695 900.187 484.184 931.571 502.289C887.466 502.608 867.607 508.968 847.679 540.176L885.566 582.121C892.023 593.118 882.26 592.363 847.679 582.121L859.857 621.361Z" fill="#ADD3EA" stroke="black" stroke-width="2"/>
<path d="M943.748 1855.38C960.716 1848.74 973.09 1851.84 1016.81 1855.38C1096.42 1898.58 1152.11 1923.03 1171.07 1964.98C1118.78 1975.57 1071.31 1977.13 924.805 1964.98C924.939 1935.44 926.759 1915.72 943.748 1855.38Z" fill="#4E4E4E"/>
<path d="M107.541 1964.98C96.0381 1938.2 97.9313 1923.39 115.659 1897.32C67.2949 1881.74 42.5901 1882.45 1.99976 1897.32C5.73914 1996.73 4.81201 2026.37 1.99976 2069.16C112.711 2070.14 142.721 2077.28 153.545 2069.16C164.37 2061.05 121.43 2026.96 69.6542 2020.45C81.3187 1998.55 88.8621 1986.34 107.541 1964.98Z" fill="#4E4E4E"/>
<path d="M943.748 1855.38C960.716 1848.74 973.09 1851.84 1016.81 1855.38C1096.42 1898.58 1152.11 1923.03 1171.07 1964.98C1118.78 1975.57 1071.31 1977.13 924.805 1964.98C924.939 1935.44 926.759 1915.72 943.748 1855.38Z" stroke="black" stroke-width="2"/>
<path d="M107.541 1964.98C96.0381 1938.2 97.9313 1923.39 115.659 1897.32C67.2949 1881.74 42.5901 1882.45 1.99976 1897.32C5.73914 1996.73 4.81201 2026.37 1.99976 2069.16C112.711 2070.14 142.721 2077.28 153.545 2069.16C164.37 2061.05 121.43 2026.96 69.6542 2020.45C81.3187 1998.55 88.8621 1986.34 107.541 1964.98Z" stroke="black" stroke-width="2"/>
<path d="M479.64 1460.28C496.526 1445.13 522.877 1437.8 594.653 1426.45C625.766 1630.46 666.98 1722.72 752.964 1875.67C679.337 1857.43 637.869 1852.56 563.532 1859.44C544.66 1679.06 525.798 1592.54 479.64 1460.28Z" fill="#C0D7BF" stroke="black" stroke-width="2"/>
<path d="M1045.46 1780.66L1045.23 1782.31H968.105L968.761 1779.15C1005.69 1601.68 1026.59 1501.21 1033.05 1411.56C823.486 1404.56 731.427 1416.96 558.119 1433.21C489.117 1441.21 493.914 1448.53 482.347 1460.27C565.769 1778.86 551.783 1833.37 591.947 2027.22C581.715 2066.74 569.956 2066.45 547.295 2059.69C357.274 2014.89 267.892 1995.86 158.959 1979.86L188.727 1897.32C251.248 1911.31 366.88 1943.41 503.996 1979.86L482.347 1924.38H503.996C487.819 1854.82 478.953 1814.69 467.463 1718.71V1357.44L573.003 1345.26L1088.53 1329.03C1123.5 1334.03 1128.77 1346.16 1129.12 1373.68C1072.18 1586.02 1062.54 1656.27 1045.46 1780.66Z" fill="#7B633D" stroke="black" stroke-width="2"/>
<path d="M586.533 1335.79V1311.44H541.881V1343.91L586.533 1335.79Z" fill="#362819"/>
<path d="M474.227 1316.85H491.817V1357.44H474.227V1316.85Z" fill="#362819"/>
<path d="M586.533 1335.79V1311.44H541.881V1343.91L586.533 1335.79Z" stroke="black" stroke-width="2"/>
<path d="M474.227 1316.85H491.817V1357.44H474.227V1316.85Z" stroke="black" stroke-width="2"/>
<path d="M490.465 1314.14H539.176V1341.2L490.465 1350.67V1314.14Z" fill="#F0D246" stroke="black" stroke-width="2"/>
<path d="M976.602 725.889C991.211 739.053 999.527 746.545 1022.23 755.316V770.2C1000.72 767.225 990.722 762.889 976.223 749.904V725.549L976.602 725.889Z" fill="#99D6D8"/>
<path d="M1437.63 770.2C1437.68 743.627 1435.21 731.108 1413.27 725.549L1378.09 736.373C1398.93 750.321 1400.36 761.237 1392.97 783.731L1437.63 770.2Z" fill="#99D6D8"/>
<path d="M642.011 725.549C657.316 720.763 662.806 715.062 667.719 699.84V736.373L642.011 725.549Z" fill="#99D6D8"/>
<path d="M575.71 806.734L667.719 828.383C656.946 932.373 649.036 989.424 612.243 1076C585.236 1183.13 588.725 1223.03 586.534 1303.32L471.522 1310.08C507.13 1036.05 531.255 945.872 575.71 806.734Z" fill="#99D6D8"/>
<path d="M976.602 725.889C991.211 739.053 999.527 746.545 1022.23 755.316V770.2C1000.72 767.225 990.722 762.889 976.223 749.904V725.549L976.602 725.889Z" stroke="black" stroke-width="2"/>
<path d="M1437.63 770.2C1437.68 743.627 1435.21 731.108 1413.27 725.549L1378.09 736.373C1398.93 750.321 1400.36 761.237 1392.97 783.731L1437.63 770.2Z" stroke="black" stroke-width="2"/>
<path d="M642.011 725.549C657.316 720.763 662.806 715.062 667.719 699.84V736.373L642.011 725.549Z" stroke="black" stroke-width="2"/>
<path d="M575.71 806.734L667.719 828.383C656.946 932.373 649.036 989.424 612.243 1076C585.236 1183.13 588.725 1223.03 586.534 1303.32L471.522 1310.08C507.13 1036.05 531.255 945.872 575.71 806.734Z" stroke="black" stroke-width="2"/>
<path d="M573.003 664.66C514.183 672.926 505.228 686.373 486.405 709.312C366.439 928 386.19 931.178 356.509 1025.93C310.556 1167.99 309.781 1245.31 309.151 1383.15C323.392 1596.7 323.519 1688.34 321.329 1843.2C398.898 1894.87 441.208 1919.18 508.055 1928.44L467.462 1718.71C461.147 1517.79 462.67 1468.38 467.462 1406.15C482.653 1182.25 491.754 1145.52 508.055 1092.24C531.766 937.707 546.455 887.56 573.003 806.734L789.497 851.386C879.719 868.433 941.44 875.504 1076.35 882.507C1211.49 856.141 1283.01 840.266 1390.27 806.734C1408.51 775.528 1401.18 757.703 1368.62 725.549C1264.55 773.382 1199.93 786.898 1076.35 793.203C1062.31 793.552 1048.81 793.766 1035.76 793.838V770.201C1002.4 773.414 984.736 766.8 955.926 733.667L943.748 787.791L992.49 793.525C903.302 791.64 833.381 781.869 748.489 762.487L729.961 720.136C713.228 700.885 700.924 697.08 677.19 694.428V745.017C671.418 743.526 665.557 741.998 659.6 740.433L590.593 709.312L573.003 664.66Z" fill="white"/>
<path d="M912.627 882.507L1008.7 889.272C994.725 972.92 966.391 1024.42 896.39 1120.65C872.582 1137.08 858.938 1137.76 834.148 1128.77C747.694 961.63 724.864 904.266 712.371 841.914L789.497 858.151C828.532 961.039 844.215 983.776 869.329 1008.34C903.84 955.798 914.848 927.945 912.627 882.507Z" fill="white"/>
<path d="M628.479 1169.36C643.312 1427.21 638.901 1564.22 762.435 1886.5C736.171 1849.72 716.898 1815.75 628.479 1596.94C597.767 1459.95 578.706 1383.85 590.593 1230.25L590.623 1229.58C594.247 1148.58 596.288 1102.95 637.951 992.107C654.402 929.039 661.522 893.544 666.366 829.736L709.664 840.561L712.371 851.386L716.43 910.922L663.659 944.749L701.546 1025.93C686.703 1069.61 687.026 1086.31 628.479 1169.36Z" fill="white"/>
<path d="M573.003 806.734C546.455 887.56 531.766 937.707 508.055 1092.24C491.754 1145.52 482.653 1182.25 467.462 1406.15C462.67 1468.38 461.147 1517.79 467.462 1718.71L508.055 1928.44C441.208 1919.18 398.898 1894.87 321.329 1843.2C323.519 1688.34 323.392 1596.7 309.151 1383.15C309.781 1245.31 310.556 1167.99 356.509 1025.93C386.19 931.178 366.439 928 486.405 709.312C505.228 686.373 514.183 672.926 573.003 664.66L590.593 709.312M573.003 806.734L789.497 851.386C879.719 868.433 941.44 875.504 1076.35 882.507C1211.49 856.141 1283.01 840.266 1390.27 806.734C1408.51 775.528 1401.18 757.703 1368.62 725.549C1264.55 773.382 1199.93 786.898 1076.35 793.203C909.181 797.362 818.56 782.205 659.6 740.433L590.593 709.312M573.003 806.734L524.292 779.672L476.934 871.682L516.173 925.806L441.753 988.048L451.225 1207.25M590.593 709.312L547.294 689.015M1035.76 770.201C1002.4 773.414 984.736 766.8 955.926 733.667L943.748 787.791L1035.76 798.615V770.201ZM1008.7 889.272L912.627 882.507C914.848 927.945 903.84 955.798 869.329 1008.34C844.215 983.776 828.532 961.039 789.497 858.151L712.371 841.914C724.864 904.266 747.694 961.63 834.148 1128.77C858.938 1137.76 872.582 1137.08 896.39 1120.65C966.391 1024.42 994.725 972.92 1008.7 889.272ZM748.904 763.435L729.961 720.136C713.228 700.885 700.924 697.08 677.19 694.428V745.845L748.904 763.435ZM762.435 1886.5C638.901 1564.22 643.312 1427.21 628.479 1169.36C687.026 1086.31 686.703 1069.61 701.546 1025.93L663.659 944.749C684.268 931.539 695.822 924.132 716.43 910.922L712.371 851.386L709.664 840.561L666.366 829.736C661.522 893.544 654.402 929.039 637.951 992.107C596.173 1103.26 594.236 1148.83 590.593 1230.25C578.706 1383.85 597.767 1459.95 628.479 1596.94C716.898 1815.75 736.171 1849.72 762.435 1886.5Z" stroke="black" stroke-width="2"/>
<path d="M972.163 1785.02H1019.52L1008.7 1854.02H953.22L972.163 1785.02Z" fill="white"/>
<path d="M115.659 1895.97L173.842 1906.79L161.664 1950.09H102.128L115.659 1895.97Z" fill="white"/>
<path d="M972.163 1785.02H1019.52L1008.7 1854.02H953.22L972.163 1785.02Z" stroke="black" stroke-width="2"/>
<path d="M115.659 1895.97L173.842 1906.79L161.664 1950.09H102.128L115.659 1895.97Z" stroke="black" stroke-width="2"/>
<path d="M850.385 329.094C850.725 274.62 837.474 248.715 784.083 212.729C729.653 183.852 699.146 190.183 644.715 212.729C603.029 232.106 585.355 249.232 571.649 299.326C546.734 365.866 547.738 399.143 552.706 457.637C497.055 487.585 513.944 510.063 554.827 530.704C558.084 555.442 564.784 578.165 577.061 606.477C600.293 634.662 604.522 650.264 675.836 679.544C643.768 667.728 626.762 658.47 600.064 637.598C590.208 644.209 584.699 648.277 575.708 671.425C577.827 684.6 579.767 692.302 587.886 707.959L639.303 726.902C658.311 718.91 667.866 711.969 675.836 679.544C700.471 680.977 703.874 687.984 774.612 661.954C794.167 646.603 804.79 634.172 823.323 606.477C834.626 589.809 840.858 574.82 850.385 469.815L853.091 419.751C856.052 384.267 856.893 364.389 850.385 329.094Z" fill="#DDD8D2"/>
<path d="M977.575 726.902C995.049 744.123 1005.25 750.504 1024.93 751.257C1063.63 767.284 1078.93 767.588 1104.76 766.141C1148.76 763.777 1164.78 759.194 1183.24 747.198C1183.24 747.198 1195.42 733.667 1183.24 735.02C1171.07 736.373 1149.42 733.667 1149.42 733.667C1177.97 723.358 1185.87 721.833 1195.42 721.489C1201.26 713.441 1198.59 711.101 1187.3 709.312C1134.8 718.051 1117.41 718.423 1087.17 718.783L1085.82 714.724C1128.36 712.206 1152.31 709.947 1195.42 702.546C1204.24 694.975 1200.88 693.048 1187.3 691.722C1147.59 699.082 1125.81 700.241 1087.17 701.193L1085.82 697.134C1122.04 694.607 1142.36 693.048 1179.18 686.309C1189.55 680.347 1188.92 677.084 1175.13 671.425C1098.97 683.362 1038.22 679.454 1039.82 671.425C1060.44 643.39 1067.16 636.274 1075 630.833C1078.38 617.849 1065.94 618.468 1045.23 626.773C993.922 673.612 987.724 684.232 977.575 702.546V726.902Z" fill="#DDD8D2"/>
<path d="M1413.27 726.902C1433.34 728.143 1437.06 739.412 1438.98 766.141C1484.04 752.786 1494.21 736.258 1505.28 702.546C1527.5 679.716 1540.92 668.063 1579.7 664.66C1585.37 659.776 1588.15 656.911 1572.93 645.404L1575.64 644.363C1584.12 635.785 1582.46 632.81 1566.17 630.784L1570.23 629.48C1583.25 624.749 1581.58 622.077 1575.64 617.302C1545.13 613.855 1524.34 616.709 1478.22 633.539C1483.75 621.175 1490.04 615.626 1509.34 609.183C1515.68 605.629 1524.92 604.214 1548.58 602.418C1554.2 596.541 1555.99 593.164 1543.16 586.181C1507.42 587.255 1487.41 585.328 1451.16 626.773C1447.38 657.829 1443.56 676.474 1413.27 726.902Z" fill="#DDD8D2"/>
<path d="M675.836 679.544C604.522 650.264 600.293 634.662 577.061 606.477C564.784 578.165 558.084 555.442 554.827 530.704C513.944 510.063 497.055 487.585 552.706 457.637C547.738 399.143 546.734 365.866 571.649 299.326C585.355 249.232 603.029 232.106 644.715 212.729C699.146 190.183 729.653 183.852 784.083 212.729C837.474 248.715 850.725 274.62 850.385 329.094C856.893 364.389 856.052 384.267 853.091 419.751L850.385 469.815C840.858 574.82 834.626 589.809 823.323 606.477C804.79 634.172 794.167 646.603 774.612 661.954C703.874 687.984 700.471 680.977 675.836 679.544ZM675.836 679.544C667.866 711.969 658.311 718.91 639.303 726.902C619.223 719.504 607.966 715.356 587.886 707.959C579.767 692.302 577.827 684.6 575.708 671.425C584.699 648.277 590.208 644.209 600.064 637.598C626.762 658.47 643.768 667.728 675.836 679.544ZM1149.42 733.667C1177.97 723.358 1185.87 721.833 1195.42 721.489C1201.26 713.441 1198.59 711.101 1187.3 709.312C1134.8 718.051 1117.41 718.423 1087.17 718.783L1085.82 714.724C1128.36 712.206 1152.31 709.947 1195.42 702.546C1204.24 694.975 1200.88 693.048 1187.3 691.722C1147.59 699.082 1125.81 700.241 1087.17 701.193L1085.82 697.134C1122.04 694.607 1142.36 693.048 1179.18 686.309C1189.55 680.347 1188.92 677.084 1175.13 671.425C1098.97 683.362 1038.22 679.454 1039.82 671.425C1060.44 643.39 1067.16 636.274 1075 630.833C1078.38 617.849 1065.94 618.468 1045.23 626.773C993.922 673.612 987.724 684.232 977.575 702.546V726.902C995.049 744.123 1005.25 750.504 1024.93 751.257C1063.63 767.284 1078.93 767.588 1104.76 766.141C1148.76 763.777 1164.78 759.194 1183.24 747.198C1183.24 747.198 1195.42 733.667 1183.24 735.02C1171.07 736.373 1149.42 733.667 1149.42 733.667ZM1149.42 733.667L1087.17 737.727M1058.76 733.667C1054.75 713.647 1042.52 709.668 1011.4 709.312M1494.45 653.835C1522.1 639.491 1537.59 631.315 1566.17 630.784M1566.17 630.784L1570.23 629.48C1583.25 624.749 1581.58 622.077 1575.64 617.302C1545.13 613.855 1524.34 616.709 1478.22 633.539C1483.75 621.175 1490.04 615.626 1509.34 609.183C1515.68 605.629 1524.92 604.214 1548.58 602.418C1554.2 596.541 1555.99 593.164 1543.16 586.181C1507.42 587.255 1487.41 585.328 1451.16 626.773C1447.38 657.829 1443.56 676.474 1413.27 726.902C1433.34 728.143 1437.06 739.412 1438.98 766.141C1484.04 752.786 1494.21 736.258 1505.28 702.546C1527.5 679.716 1540.92 668.063 1579.7 664.66C1585.37 659.776 1588.15 656.91 1572.93 645.404M1566.17 630.784C1582.46 632.81 1584.12 635.785 1575.64 644.363L1572.93 645.404M1505.28 671.425C1523.32 659.326 1520.48 649.545 1572.93 645.404" stroke="black" stroke-width="2"/>
<path d="M614.062 305.924C699.756 269.977 748.189 265.97 835.968 311.336C838.161 293.087 830.85 282.975 791.316 265.331C758.358 252.925 739.75 248.584 706.072 253.153C656.376 259.598 636.935 266.069 609.947 280.215C598.385 291.7 600.283 297.217 614.062 305.924Z" fill="#ADD3EA" stroke="black" stroke-width="2"/>
<path d="M771.908 549.648C795.35 544.715 796.436 553.133 793.557 572.65C784.312 589.172 776.75 593.275 757.024 587.534C748.851 573.312 746.641 565.239 771.908 549.648Z" fill="#65331F" stroke="black" stroke-width="2"/>
<path d="M789.496 228.966C755.041 218.025 733.588 217.31 693.426 220.847M846.325 457.637C819.921 470.678 803.832 472.154 770.552 453.578M752.962 425.163C765.743 454.754 767.846 496.877 752.962 500.936C738.078 504.995 723.404 478.766 721.841 449.519M693.426 453.578C654.216 463.678 639.244 459.302 617.654 444.106M789.496 597.005C758.547 638.014 748.708 622.661 732.666 587.534" stroke="black" stroke-width="2"/>
<path d="M819.265 320.975C843.6 324.645 857.089 327.323 872.035 368.334L866.623 400.808C855.595 421.332 842.152 429.775 790.85 433.282C761.291 425.353 746.153 418.563 748.904 357.509C762.189 317.655 780.771 315.383 819.265 320.975Z" fill="white"/>
<path d="M659.601 311.504C697.026 317.475 712.198 325.516 725.902 350.743C731.871 371.684 737.032 382.535 706.959 421.104C688.321 427.497 676.86 430.356 636.598 421.104C611.079 399.835 607.175 383.876 612.243 350.743C614.213 333.264 617.176 323.707 659.601 311.504Z" fill="white"/>
<path d="M819.265 320.975C843.6 324.645 857.089 327.323 872.035 368.334L866.623 400.808C855.595 421.332 842.152 429.775 790.85 433.282C761.291 425.353 746.153 418.563 748.904 357.509C762.189 317.655 780.771 315.383 819.265 320.975Z" stroke="black" stroke-width="2"/>
<path d="M659.601 311.504C697.026 317.475 712.198 325.516 725.902 350.743C731.871 371.684 737.032 382.535 706.959 421.104C688.321 427.497 676.86 430.356 636.598 421.104C611.079 399.835 607.175 383.876 612.243 350.743C614.213 333.264 617.176 323.707 659.601 311.504Z" stroke="black" stroke-width="2"/>
<path d="M861.21 383.218V388.63L860 390.5L850.386 391.336V387.277V383.218H861.21Z" fill="black"/>
<path d="M712.371 372.393L719.136 373.746L720.489 383.218L712.371 385.924L709.665 377.805L712.371 372.393Z" fill="black"/>
<path d="M861.21 383.218V388.63L860 390.5L850.386 391.336V387.277V383.218H861.21Z" stroke="black" stroke-width="2"/>
<path d="M712.371 372.393L719.136 373.746L720.489 383.218L712.371 385.924L709.665 377.805L712.371 372.393Z" stroke="black" stroke-width="2"/>
</svg>
