<svg width="1209" height="2074" viewBox="0 0 1209 2074" fill="none" xmlns="http://www.w3.org/2000/svg">
<path d="M963.365 1816.46V1860.28L909.108 1866.55V1816.46H963.365Z" fill="#362819"/>
<path d="M835.025 1816.46V1866.55H748.421L760.942 1816.46H835.025Z" fill="#362819"/>
<path d="M963.365 1816.46V1860.28L909.108 1866.55V1816.46H963.365Z" stroke="black" stroke-width="2"/>
<path d="M835.025 1816.46V1866.55H748.421L760.942 1816.46H835.025Z" stroke="black" stroke-width="2"/>
<path d="M781.81 923.295C833.165 950.296 861.95 949.286 913.281 930.599C942.97 1318.15 950.55 1492.26 966.496 1814.37C863.163 1807.61 826.577 1810.01 763.035 1814.17L759.899 1814.37C791.367 1713.89 791.682 1658.62 792.241 1560.36L792.245 1559.78C767.137 1317.11 781.646 1199.26 781.81 923.295Z" fill="#99D6D8"/>
<path d="M323.749 1368.83C307.301 1366.54 301.053 1366.27 298.707 1368.83C317.105 1401.84 313.288 1420.35 298.707 1453.35C308.161 1463.96 327.66 1464.49 361.312 1465.87C355.033 1430.19 348.099 1409.28 323.749 1368.83Z" fill="#99D6D8"/>
<path d="M781.81 923.295C833.165 950.296 861.95 949.286 913.281 930.599C942.97 1318.15 950.55 1492.26 966.496 1814.37C863.163 1807.61 826.577 1810.01 763.035 1814.17L759.899 1814.37C791.367 1713.89 791.682 1658.62 792.241 1560.36L792.245 1559.78C767.137 1317.11 781.646 1199.26 781.81 923.295Z" stroke="black" stroke-width="2"/>
<path d="M323.749 1368.83C307.301 1366.54 301.053 1366.27 298.707 1368.83C317.105 1401.84 313.288 1420.35 298.707 1453.35C308.161 1463.96 327.66 1464.49 361.312 1465.87C355.033 1430.19 348.099 1409.28 323.749 1368.83Z" stroke="black" stroke-width="2"/>
<path d="M1055.18 976.509C1089.16 1180.41 1123.92 1651.41 1207.52 2061.66C1184.62 2078.76 1153.12 2072.36 1106.31 2068.97L996.753 2061.66C964.409 1993.85 961.253 1917.73 965.451 1756.99C962.089 1427.2 947.494 1245.53 918.497 922.251C1011.33 945.727 1039.17 957.485 1055.18 976.509Z" fill="#FDFDFD"/>
<path d="M609.644 938.946C635.524 921.085 689.467 922.447 776.592 922.251C778.108 1174.36 780.062 1314.41 789.113 1557.69C785.624 1682.85 779.041 1730.43 763.027 1794.55C733.213 1909.73 721.564 1970.34 712.943 2068.97L576.255 2061.66C588.497 1887.96 596.11 1790.44 629.469 1612.99C617.192 1493.45 624.608 1419.62 638.86 1287.45L672.25 1086.07L638.86 1258.23C621.349 1366.44 609.846 1420.33 584.602 1497.17C568.311 1567.35 550.94 1565.85 520.954 1568.13C379.589 1558.26 338.373 1550.16 294.532 1533.69C364.663 1518.95 389.561 1498.73 325.834 1373.01C361.457 1379.5 404.527 1398.88 487.564 1437.7C519.66 1270.14 551.906 1151.45 609.139 940.806L609.644 938.946Z" fill="#FDFDFD"/>
<path d="M1106.31 2068.97L996.753 2061.66C964.409 1993.85 961.253 1917.73 965.451 1756.99C962.089 1427.2 947.494 1245.53 918.497 922.251C1011.33 945.727 1039.17 957.485 1055.18 976.509C1089.16 1180.41 1123.92 1651.41 1207.52 2061.66C1184.62 2078.76 1153.12 2072.36 1106.31 2068.97ZM1106.31 2068.97C1071.92 1899.73 1050.74 1808.86 1055.18 1557.69C1072.07 1401.88 1057.49 1297.73 1043.71 1120.5M935.191 938.946C973.559 1065.82 995.293 1127.56 1035.36 1182.06C1017.22 1216.77 1002.96 1234.02 965.451 1258.23C1003.24 1291.36 1026.33 1310.76 1035.36 1331.27C1030.02 1426.06 1016.12 1485.59 980.058 1598.39M750.506 950.424C708.888 1049.79 696.763 1103.49 683.727 1197.71C709.517 1238.93 724.177 1250.61 750.506 1258.23C736.549 1304.84 720.344 1322.42 683.727 1345.88C701.126 1472.11 720.889 1533.33 763.027 1635.95M776.592 922.251C689.467 922.447 635.524 921.085 609.644 938.946C552.096 1150.76 519.755 1269.64 487.564 1437.7C404.527 1398.88 361.457 1379.5 325.834 1373.01C389.561 1498.73 364.663 1518.95 294.532 1533.69C338.373 1550.16 379.589 1558.26 520.954 1568.13C550.94 1565.85 568.311 1567.35 584.602 1497.17C609.846 1420.33 621.349 1366.44 638.86 1258.23L672.25 1086.07L638.86 1287.45C624.608 1419.62 617.192 1493.45 629.469 1612.99C596.11 1790.44 588.497 1887.96 576.255 2061.66L712.943 2068.97C721.564 1970.34 733.213 1909.73 763.027 1794.55C779.041 1730.43 785.624 1682.85 789.113 1557.69C780.062 1314.41 778.108 1174.36 776.592 922.251Z" stroke="black" stroke-width="2"/>
<path d="M1081.27 802.258C1064.82 808.995 1055.17 808.44 1037.45 802.258L1049.97 748.001L1065.62 597.748C1070.44 542.675 1068.52 509.913 1055.19 447.496L1049.97 403.673C1035.33 350.516 1014.48 328.473 967.539 295.157C940.579 278.213 915.718 273.533 829.807 285.766C772.754 304.028 743.842 327.939 705.64 429.758L689.989 529.926L682.685 719.828L707.727 810.606L645.122 815.823C646.518 796.21 651.444 782.702 669.121 753.218C631.104 757.642 609.632 759.897 563.735 753.218L597.125 678.092C520.445 654.382 497.19 642.708 491.739 624.877L609.646 544.534C577.471 513.249 544.016 493.823 465.654 456.887C547.45 465.889 571.441 433.202 624.254 392.195C608.008 323.126 585.381 286.357 550.171 220.031C622.925 245.721 663.771 254.776 736.943 240.899C766.964 174.981 761.85 115.892 745.29 3C817.783 62.3317 857.665 98.8395 918.498 207.51C1017.27 142.833 1043.66 112.504 1070.84 62.4748C1084.15 145.358 1086.15 192.019 1057.27 276.376C1115.5 284.741 1147.45 284.003 1201.26 257.594C1183.46 318.156 1157.59 349.491 1101.1 403.673C1141.82 458.578 1165.5 471.18 1208.57 475.669C1148.53 498.797 1127.16 518.48 1101.1 560.185C1117.95 602.801 1133.73 621.289 1173.09 644.702C1120.63 653.797 1098.92 666.576 1065.62 694.786C1078.28 720.15 1087.89 734.016 1114.66 757.391C1097.17 768.471 1086.44 767.599 1065.62 753.218C1059.68 773.641 1062.15 784.478 1081.27 802.258Z" fill="#ADD3EA" stroke="black" stroke-width="2"/>
<path d="M836.069 1816.46H908.065V1867.59H836.069V1816.46Z" fill="#F0D246" stroke="black" stroke-width="2"/>
<path d="M750.508 1864.46C828.986 1878.04 875.719 1876.88 962.322 1864.46C961.07 1950.84 968.62 1994.93 998.841 2064.8H904.934L909.107 1980.28H779.723V2068.97H715.031C732.677 1992.26 739.638 1946.81 750.508 1864.46Z" fill="#7B633D" stroke="black" stroke-width="2"/>
<path d="M879.898 900.34C958.095 890.908 995.344 874.472 1036.41 802.259C1048.73 768.181 1051.71 748.749 1051.02 713.568C1102.61 682.365 1108.17 663.431 1057.28 625.921C1065.85 558.279 1066.1 520.356 1057.28 452.713C1054.82 403.802 1046.34 378.948 1019.72 338.981C965.748 277.475 924.584 267.593 837.118 281.593C748.926 316.227 732.514 356.24 706.691 429.758C693.054 523.143 689.72 554 682.692 614.443C618.594 642.931 609.665 664.412 682.692 720.872C703.232 839.296 744.698 880.004 879.898 900.34Z" fill="#DDD8D2"/>
<path d="M908.071 929.556V900.34C856.667 904.679 828.18 897.636 777.643 877.385V925.382C828.609 947.062 857.17 949.604 908.071 929.556Z" fill="#DDD8D2"/>
<path d="M298.713 1373.01C282.672 1358.56 268.019 1348.1 228.804 1332.32C196.165 1316.44 178.513 1301.26 147.418 1263.45C137.301 1260.57 133.923 1262.81 129.679 1269.71L125.506 1280.14C130.131 1293.92 138.248 1302.54 157.852 1318.75C164.561 1333.71 165.087 1341.51 165.156 1355.27C155.385 1382.56 144.989 1397.7 109.854 1424.14C86.7248 1442.11 70.692 1451.46 19.0769 1462.74L18.6606 1462.88C4.67004 1467.49 -3.30188 1470.11 3.42566 1480.48C8.36658 1485.55 17.7975 1486.73 51.423 1484.65C80.1149 1478.88 94.3837 1479.02 134.897 1451.26L132.81 1463.79C124.583 1478.64 112.959 1485.21 76.465 1493C52.8752 1493.94 39.6383 1497.97 15.9467 1512.83C3.50793 1522.49 2.5614 1527.97 9.68604 1537.87C18.4392 1537.49 23.3639 1537.14 32.6415 1531.61L35.4773 1530.95C32.4888 1533.73 30.5323 1537.03 29.5111 1541C35.2426 1551.37 50.7609 1552.51 92.1163 1549.35C127.43 1544.65 147.171 1540.48 181.85 1519.09C175.247 1529.23 168.419 1535.27 154.721 1546.22C138.269 1556.09 128.218 1561.24 125.506 1577.52C127.808 1582.17 134.77 1582.24 157.852 1577.52C183.238 1563.85 197.116 1555.41 216.283 1528.48L218.835 1526.34C254.951 1496.09 275.973 1478.48 297.67 1441.87C317.41 1408.69 314.599 1394.6 298.713 1373.01Z" fill="#DDD8D2"/>
<path d="M181.85 1519.09C147.171 1540.48 127.43 1544.65 92.1163 1549.35C50.7609 1552.51 35.2425 1551.37 29.5111 1541C34.0081 1523.53 56.6344 1518.91 105.681 1515.96C138.027 1505.46 145.288 1498.75 157.852 1486.74L165.156 1470.05L147.418 1493C130.927 1507.59 116.238 1512.41 86.8992 1519.09L32.6414 1531.61C23.3639 1537.14 18.4393 1537.49 9.68607 1537.87C2.5614 1527.97 3.50794 1522.49 15.9466 1512.83C39.6384 1497.97 52.8753 1493.94 76.465 1493C112.959 1485.21 124.583 1478.64 132.81 1463.79L134.897 1451.26C94.3837 1479.02 80.1149 1478.88 51.4229 1484.65C17.7975 1486.73 8.36664 1485.55 3.4256 1480.48C-3.36829 1470.01 4.82896 1467.44 19.0769 1462.74C70.692 1451.46 86.7248 1442.11 109.854 1424.14C144.989 1397.7 155.385 1382.56 165.156 1355.27C165.087 1341.51 164.561 1333.71 157.852 1318.75C138.248 1302.54 130.131 1293.92 125.506 1280.14L129.679 1269.71C133.923 1262.81 137.301 1260.57 147.418 1263.45C178.513 1301.26 196.165 1316.44 228.804 1332.32C268.019 1348.1 282.672 1358.56 298.713 1373.01C314.599 1394.6 317.41 1408.69 297.67 1441.87C275.467 1479.34 253.971 1496.9 216.283 1528.48C197.116 1555.41 183.238 1563.85 157.852 1577.52C134.77 1582.24 127.808 1582.17 125.506 1577.52C128.218 1561.24 138.269 1556.09 154.721 1546.22C168.419 1535.27 175.247 1529.23 181.85 1519.09ZM181.85 1519.09L197.502 1493M251.753 1391.79C238.838 1392.49 232.118 1397.02 220.45 1407.44C219.148 1425.63 213.909 1430.97 205.843 1441.87M1036.41 802.259C995.344 874.472 958.095 890.908 879.898 900.34C744.698 880.004 703.232 839.296 682.692 720.872C609.665 664.412 618.594 642.931 682.692 614.443C689.72 554 693.054 523.143 706.691 429.758C732.514 356.24 748.926 316.227 837.118 281.593C924.584 267.593 965.748 277.475 1019.72 338.981C1046.34 378.948 1054.82 403.802 1057.28 452.713C1066.1 520.356 1065.85 558.279 1057.28 625.921C1108.17 663.431 1102.61 682.365 1051.02 713.568C1051.71 748.749 1048.73 768.181 1036.41 802.259ZM908.071 900.34V929.556C857.17 949.604 828.609 947.062 777.643 925.382V877.385C828.18 897.636 856.667 904.679 908.071 900.34Z" stroke="black" stroke-width="2"/>
<path d="M973.799 622.79C1021.74 630.301 1043.75 627.447 1062.49 592.531M946.67 582.097C959.745 623.18 961.278 680.178 943.54 679.135C925.802 678.091 906.48 649.323 902.846 617.573M830.85 617.573C774.659 631.271 754.275 624.941 734.856 592.531M1003.01 735.479C1032.98 750.034 1025.32 768.312 1028.06 778.26C1030.8 788.207 990.893 818.026 981.103 808.519M796.418 728.175C761.342 747.172 757.284 759.772 759.898 783.477C774.378 807.389 787.756 811.424 817.286 808.519" stroke="black" stroke-width="2"/>
<path d="M1046.84 423.497C1051.74 432.054 1051.9 436.854 1046.84 445.409C1000.25 449.039 974.621 446.287 928.931 441.236C889.108 431.978 874.181 420.778 851.718 397.412L818.328 383.848C795.193 382.877 786.837 380.785 785.982 372.37C793.925 354.505 805.355 354.297 827.719 356.719C865.266 364.969 880.775 376.034 907.019 397.412C941.213 418.615 962.089 422.384 1000.93 421.411C1025.72 416.471 1035.43 417.237 1046.84 423.497Z" fill="#ADD3EA" stroke="black" stroke-width="2"/>
<path d="M939.366 561.229C957.398 562.808 954.872 562.644 1062.49 571.663C1075.48 553.102 1084.45 544.329 1083.36 512.188C1083.1 481.068 1073.99 467.269 1045.79 447.496C995.793 437.437 967.4 430.417 931.018 473.581C921.045 513.099 922.923 540.175 939.366 561.229Z" fill="white"/>
<path d="M745.29 481.929C735.641 526.205 740.842 540.424 754.68 561.229H877.804H889.282C906.23 530.447 907.846 513.089 896.585 481.929C882.879 443.634 863.959 443.462 833.98 436.018C774.585 435.224 759.946 448.89 745.29 481.929Z" fill="white"/>
<path d="M1040.58 586.271L1062.49 571.663M1062.49 571.663C954.872 562.644 957.398 562.808 939.366 561.229M1062.49 571.663C1075.48 553.102 1084.45 544.329 1083.36 512.188C1083.1 481.068 1073.99 467.269 1045.79 447.496C995.793 437.437 967.4 430.417 931.018 473.581C921.045 513.099 922.923 540.175 939.366 561.229M939.366 561.229C945.78 575.808 953.013 581.994 970.668 590.444M889.282 561.229C906.23 530.447 907.846 513.089 896.585 481.929C882.879 443.634 863.959 443.462 833.98 436.018C774.585 435.224 759.946 448.89 745.29 481.929C735.641 526.205 740.843 540.424 754.68 561.229M889.282 561.229C881.007 572.495 872.513 577.918 851.718 586.271M889.282 561.229H877.804H754.68M754.68 561.229C761.124 571.741 766.308 575.272 776.592 580.01" stroke="black" stroke-width="2"/>
<path d="M1052.06 545.578L1044.75 556.012L1032.23 552.882L1029.1 545.578V537.23L1032.23 532.013H1044.75L1052.06 534.1V545.578Z" fill="black"/>
<path d="M859.023 526.796H863.197V537.23L859.023 545.578H852.763H844.415L839.198 539.317L837.111 534.1L844.415 528.883L846.502 526.796L854.849 528.883L859.023 526.796Z" fill="black"/>
<path d="M1052.06 545.578L1044.75 556.012L1032.23 552.882L1029.1 545.578V537.23L1032.23 532.013H1044.75L1052.06 534.1V545.578Z" stroke="black" stroke-width="2"/>
<path d="M859.023 526.796H863.197V537.23L859.023 545.578H852.763H844.415L839.198 539.317L837.111 534.1L844.415 528.883L846.502 526.796L854.849 528.883L859.023 526.796Z" stroke="black" stroke-width="2"/>
<path d="M896.586 734.436C958.341 733.219 991.237 733.954 1010.32 767.826C1002.65 788.678 986.853 787.396 958.148 784.521C927.549 785.407 910.675 785.945 864.24 784.521C834.926 789.601 821.316 787.376 796.418 784.521C783.183 774.011 778.768 767.637 796.418 752.175C816.37 740.615 829.425 734.586 896.586 734.436Z" fill="#692226" stroke="black" stroke-width="2"/>
<path d="M974.843 761.565C986.526 760.769 990.674 759.201 993.624 754.261C983.15 745.483 976.019 742.693 962.306 740.833C962.311 740.788 962.316 740.742 962.322 740.697C962.295 740.739 962.269 740.782 962.242 740.824C961.924 740.781 961.603 740.739 961.278 740.697C945.971 737.882 940.057 737.329 929.976 736.523C909.21 735.357 901.518 735.328 895.543 736.523C871.843 735.87 868.275 736.748 864.24 738.61C836.028 739.423 836.123 740.713 831.894 742.784C804.441 747.313 805.356 749.378 801.635 753.218C806.103 756.429 809.455 757.445 817.286 757.392C828.577 753.679 830.179 749.911 831.894 742.784C834.225 748.282 836.027 750.825 841.285 753.218C846.585 755.228 849.548 755.827 854.85 753.218C862.588 748.329 863.838 744.969 864.24 738.61C864.134 744.504 863.196 747.865 871.544 753.218C876.328 754.492 879.086 755.039 885.109 753.218C893.086 748.676 894.703 744.685 895.543 736.523C895.762 744.686 898.441 748.586 908.064 754.261C918.446 752.078 923.16 748.005 929.976 736.523C929.948 743.976 930.725 747.992 941.453 753.218C951.946 753.036 956.409 750.113 962.242 740.824C962.263 740.827 962.284 740.83 962.306 740.833C961.18 750.329 962.401 755.252 974.843 761.565Z" fill="#E7DDB2"/>
<path d="M1008.23 769.913C1003.66 765.259 1001.45 764.199 997.798 763.652C988.206 764.592 984.808 765.997 984.234 770.956C981.097 778.97 980.524 781.001 980.06 783.477L980.043 783.372C979.1 777.59 978.566 774.316 970.669 768.869C966.205 766.631 963.684 766.238 959.192 765.739C946.677 773.007 945.631 776.601 945.616 782.104C945.495 772.369 944.315 766.764 932.063 759.478C916.667 766.557 915.324 771.863 913.281 781.39C914.215 769.683 913.858 763.879 903.89 761.565C889.02 767.706 887.85 772.673 885.109 781.39C883.36 766.698 880.93 761.929 873.631 760.522C858.592 769.607 855.024 774.621 853.806 783.477C852.89 775.409 849.915 771.073 840.242 763.652C826.379 770.81 822.356 775.476 819.373 784.52C821.345 777.089 820.286 773.132 811.026 766.782C801.093 769.6 797.398 772.674 792.244 779.303L819.373 784.52L853.806 783.477L885.109 781.39H913.281L945.627 783.477H980.06C994.726 783.321 1001.4 781.065 1008.23 769.913Z" fill="#E7DDB2"/>
<path d="M929.976 736.523C929.948 743.976 930.725 747.992 941.453 753.218C951.994 753.035 956.45 750.086 962.322 740.697C961.169 750.282 962.342 755.222 974.843 761.565C986.526 760.769 990.674 759.201 993.624 754.261C982.892 745.267 975.669 742.559 961.278 740.697C945.971 737.882 940.057 737.329 929.976 736.523ZM929.976 736.523C923.16 748.005 918.446 752.078 908.064 754.261C898.441 748.586 895.762 744.686 895.543 736.523M929.976 736.523C909.21 735.357 901.518 735.328 895.543 736.523M895.543 736.523C894.703 744.685 893.086 748.676 885.109 753.218C879.086 755.039 876.328 754.492 871.544 753.218C863.196 747.865 864.134 744.504 864.24 738.61M895.543 736.523C871.843 735.87 868.275 736.748 864.24 738.61M864.24 738.61C863.838 744.969 862.588 748.329 854.85 753.218C849.548 755.827 846.585 755.228 841.285 753.218C836.027 750.825 834.225 748.282 831.894 742.784M864.24 738.61C836.028 739.423 836.123 740.713 831.894 742.784M831.894 742.784C830.179 749.911 828.577 753.679 817.286 757.392C809.455 757.445 806.103 756.429 801.635 753.218C805.356 749.378 804.441 747.313 831.894 742.784ZM980.06 783.477C980.524 781.001 981.097 778.97 984.234 770.956C984.808 765.997 988.206 764.592 997.798 763.652C1001.45 764.199 1003.66 765.259 1008.23 769.913C1001.4 781.065 994.726 783.321 980.06 783.477ZM980.06 783.477C979.106 777.63 978.614 774.349 970.669 768.869C966.205 766.631 963.684 766.238 959.192 765.739C945.666 773.594 945.537 777.157 945.627 783.477M980.06 783.477H945.627M945.627 783.477C945.58 772.883 944.88 767.1 932.063 759.478C916.667 766.557 915.324 771.863 913.281 781.39M945.627 783.477L913.281 781.39M913.281 781.39C914.215 769.683 913.858 763.879 903.89 761.565C889.02 767.706 887.85 772.673 885.109 781.39M913.281 781.39H885.109M885.109 781.39C883.36 766.698 880.93 761.929 873.631 760.522C858.592 769.607 855.024 774.621 853.806 783.477M885.109 781.39L853.806 783.477M853.806 783.477C852.89 775.409 849.915 771.073 840.242 763.652C826.379 770.81 822.356 775.476 819.373 784.52M853.806 783.477L819.373 784.52M819.373 784.52C821.345 777.089 820.286 773.132 811.026 766.782C801.093 769.6 797.398 772.674 792.244 779.303L819.373 784.52Z" stroke="black" stroke-width="2"/>
</svg>
